Moderustic-SemiBold.ufo
<glyph name="exclam" format="2">
  <advance width="255"/>
  <unicode hex="0021"/>
  <outline>
    <component base="period" xScale="0.897778" yScale="0.897778" xOffset="9.3911" yOffset="-2.04444"/>
    <contour>
      <point x="68" y="249" type="line"/>
      <point x="187" y="249" type="line"/>
      <point x="203" y="750" type="line"/>
      <point x="52" y="750" type="line"/>
    </contour>
  </outline>
</glyph>
<glyph name="ampersand" format="2">
  <advance width="664"/>
  <unicode hex="0026"/>
  <outline>
    <contour>
      <point x="290" y="421" type="line"/>
      <point x="242.881" y="459.011"/>
      <point x="213" y="501.246"/>
      <point x="213" y="541.369" type="curve" smooth="yes"/>
      <point x="213" y="580.436"/>
      <point x="242.969" y="610"/>
      <point x="291.382" y="610" type="curve" smooth="yes"/>
      <point x="338.641" y="610"/>
      <point x="364" y="581.541"/>
      <point x="364" y="543.595" type="curve" smooth="yes"/>
      <point x="364" y="478.243"/>
      <point x="286.375" y="448.73"/>
      <point x="226" y="415" type="curve"/>
    </contour>
    <contour>
      <point x="493" y="0" type="line"/>
      <point x="646" y="0" type="line"/>
      <point x="331.366" y="375.497" type="line"/>
      <point x="320.534" y="355.067" type="line"/>
      <point x="447.373" y="407.705"/>
      <point x="490" y="472.683"/>
      <point x="490" y="550" type="curve" smooth="yes"/>
      <point x="490" y="652"/>
      <point x="417" y="720"/>
      <point x="291" y="720" type="curve" smooth="yes"/>
      <point x="171" y="720"/>
      <point x="87" y="659"/>
      <point x="87" y="563" type="curve" smooth="yes"/>
      <point x="87" y="503"/>
      <point x="119" y="435"/>
      <point x="175" y="387" type="curve"/>
      <point x="83" y="353"/>
      <point x="27" y="282"/>
      <point x="27" y="187" type="curve" smooth="yes"/>
      <point x="27" y="61"/>
      <point x="126" y="-20"/>
      <point x="276" y="-20" type="curve" smooth="yes"/>
      <point x="468" y="-20"/>
      <point x="579" y="114"/>
      <point x="642" y="206" type="curve"/>
      <point x="566.712" y="281.288" type="line"/>
      <point x="484.634" y="151.848"/>
      <point x="374.377" y="90"/>
      <point x="283.065" y="90" type="curve" smooth="yes"/>
      <point x="212.273" y="90"/>
      <point x="162" y="131.81"/>
      <point x="162" y="208.113" type="curve" smooth="yes"/>
      <point x="162" y="256.195"/>
      <point x="185.571" y="298.005"/>
      <point x="228" y="321" type="curve"/>
    </contour>
  </outline>
</glyph>
<glyph name="four" format="2">
  <advance width="665"/>
  <unicode hex="0034"/>
  <outline>
    <contour>
      <point x="18" y="151" type="line"/>
      <point x="368" y="151" type="line"/>
      <point x="368" y="0" type="line"/>
      <point x="514" y="0" type="line"/>
      <point x="514" y="151" type="line"/>
      <point x="646" y="151" type="line"/>
      <point x="646" y="272" type="line"/>
      <point x="514" y="272" type="line"/>
      <point x="514" y="700" type="line"/>
      <point x="344" y="700" type="line"/>
      <point x="18" y="217" type="line"/>
    </contour>
    <contour>
      <point x="201" y="272" type="line"/>
      <point x="368" y="520" type="line"/>
      <point x="368" y="272" type="line"/>
    </contour>
  </outline>
</glyph>
<glyph name="question" format="2">
  <advance width="551"/>
  <unicode hex="003F"/>
  <outline>
    <contour>
      <point x="100" y="561" type="line"/>
      <point x="151" y="621"/>
      <point x="200" y="647"/>
      <point x="262" y="647" type="curve" smooth="yes"/>
      <point x="335" y="647"/>
      <point x="375" y="610"/>
      <point x="375" y="540" type="curve" smooth="yes"/>
      <point x="375" y="458"/>
      <point x="319" y="405"/>
      <point x="168" y="345" type="curve"/>
      <point x="168" y="250" type="line"/>
      <point x="314.49" y="250" type="line"/>
      <point x="314" y="332" type="line"/>
      <point x="418" y="364"/>
      <point x="521" y="452"/>
      <point x="521" y="573" type="curve" smooth="yes"/>
      <point x="521" y="690"/>
      <point x="425" y="767"/>
      <point x="280" y="767" type="curve" smooth="yes"/>
      <point x="171" y="767"/>
      <point x="78" y="724"/>
      <point x="15" y="646" type="curve"/>
    </contour>
    <contour>
      <point x="169.5" y="52.9216" type="curve" smooth="yes"/>
      <point x="169.99" y="12.8147"/>
      <point x="200.07" y="-20"/>
      <point x="242" y="-20" type="curve" smooth="yes"/>
      <point x="283.018" y="-20"/>
      <point x="314.01" y="12.8147"/>
      <point x="314.5" y="52.9216" type="curve" smooth="yes"/>
      <point x="314.01" y="93.0284"/>
      <point x="283.018" y="124.02"/>
      <point x="242" y="124.02" type="curve" smooth="yes"/>
      <point x="200.07" y="124.02"/>
      <point x="169.99" y="93.0284"/>
    </contour>
  </outline>
</glyph>
<glyph name="D" format="2">
  <advance width="722"/>
  <unicode hex="0044"/>
  <anchor x="318" y="719" name="top"/>
  <anchor x="318" y="-20" name="bottom"/>
  <outline>
    <contour>
      <point x="213" y="120" type="line" name="sv01"/>
      <point x="213" y="580" type="line" name="sv02"/>
      <point x="317.661" y="580" type="line" smooth="yes"/>
      <point x="454.257" y="580"/>
      <point x="541" y="484"/>
      <point x="541" y="349" type="curve" smooth="yes"/>
      <point x="541" y="209"/>
      <point x="448.274" y="120"/>
      <point x="317.661" y="120" type="curve" smooth="yes"/>
    </contour>
    <contour>
      <point x="68" y="0" type="line" name="ab01"/>
      <point x="332" y="0" type="line" smooth="yes"/>
      <point x="545" y="0"/>
      <point x="689" y="141"/>
      <point x="689" y="350" type="curve" smooth="yes"/>
      <point x="689" y="558"/>
      <point x="544" y="700"/>
      <point x="332" y="700" type="curve" smooth="yes" name="at01"/>
      <point x="68" y="700" type="line"/>
    </contour>
  </outline>
</glyph>
<glyph name="F" format="2">
  <advance width="510"/>
  <unicode hex="0046"/>
  <anchor x="260" y="719" name="top"/>
  <anchor x="271" y="-20" name="bottom"/>
  <outline>
    <contour>
      <point x="58" y="0" type="line"/>
      <point x="204" y="0" type="line" name="ab01"/>
      <point x="204" y="290" type="line" name="dv01"/>
      <point x="442" y="290" type="line"/>
      <point x="442" y="410" type="line"/>
      <point x="204" y="410" type="line" name="dv02"/>
      <point x="204" y="580" type="line" name="sv01"/>
      <point x="482" y="580" type="line"/>
      <point x="482" y="700" type="line" name="at01"/>
      <point x="58" y="700" type="line" name="dh01"/>
    </contour>
  </outline>
</glyph>
<glyph name="G" format="2">
  <advance width="786"/>
  <unicode hex="0047"/>
  <anchor x="393" y="719" name="top"/>
  <anchor x="393" y="-20" name="bottom"/>
  <outline>
    <contour>
      <point x="607" y="261" type="line" name="dv05"/>
      <point x="607" y="0" type="line"/>
      <point x="730" y="0" type="line"/>
      <point x="730" y="381" type="line" name="dv06"/>
      <point x="351" y="381" type="line" name="av02"/>
      <point x="351" y="261" type="line" name="av03"/>
    </contour>
    <contour>
      <point x="383" y="720" type="curve" smooth="yes" name="dv04"/>
      <point x="176" y="720"/>
      <point x="43" y="597"/>
      <point x="43" y="344" type="curve" smooth="yes"/>
      <point x="43" y="105"/>
      <point x="170" y="-20"/>
      <point x="366" y="-20" type="curve" smooth="yes" name="dv01"/>
      <point x="549" y="-20"/>
      <point x="641" y="90"/>
      <point x="641" y="221" type="curve"/>
      <point x="612" y="316" type="line" name="dv07"/>
      <point x="612" y="179.926"/>
      <point x="515.459" y="104"/>
      <point x="394.035" y="104" type="curve" smooth="yes" name="dv02"/>
      <point x="262.66" y="104"/>
      <point x="191" y="193.904"/>
      <point x="191" y="350.988" type="curve" smooth="yes"/>
      <point x="191" y="508.072"/>
      <point x="262.639" y="596"/>
      <point x="397.957" y="596" type="curve" smooth="yes" name="dv03"/>
      <point x="480.541" y="596"/>
      <point x="540.241" y="564.112"/>
      <point x="588" y="510" type="curve"/>
      <point x="673" y="595" type="line"/>
      <point x="609" y="674"/>
      <point x="510" y="720"/>
    </contour>
  </outline>
</glyph>
<glyph name="L" format="2">
  <advance width="524"/>
  <unicode hex="004C"/>
  <anchor x="140" y="719" name="top"/>
  <anchor x="277" y="-20" name="bottom"/>
  <anchor x="314" y="700" name="topright"/>
  <outline>
    <contour>
      <point x="68" y="0" type="line" name="ab01"/>
      <point x="508" y="0" type="line"/>
      <point x="508" y="120" type="line" name="sv01"/>
      <point x="214" y="120" type="line"/>
      <point x="214" y="700" type="line" name="at01"/>
      <point x="68" y="700" type="line"/>
    </contour>
  </outline>
</glyph>
<glyph name="N" format="2">
  <advance width="752"/>
  <unicode hex="004E"/>
  <anchor x="376" y="719" name="top"/>
  <anchor x="376" y="-20" name="bottom"/>
  <outline>
    <contour>
      <point x="223" y="0" type="line" name="ab01"/>
      <point x="223" y="468" type="line" name="iv01"/>
      <point x="539" y="0" type="line" name="ab02"/>
      <point x="675" y="0" type="line"/>
      <point x="675" y="700" type="line" name="at01"/>
      <point x="529" y="700" type="line"/>
      <point x="529" y="232" type="line" name="iv02"/>
      <point x="213" y="700" type="line" name="at02"/>
      <point x="77" y="700" type="line"/>
      <point x="77" y="0" type="line"/>
    </contour>
  </outline>
</glyph>
<glyph name="T" format="2">
  <advance width="648"/>
  <unicode hex="0054"/>
  <anchor x="324" y="719" name="top"/>
  <anchor x="324" y="-20" name="bottom"/>
  <outline>
    <contour>
      <point x="21" y="700" type="line" name="at01"/>
      <point x="21" y="580" type="line" name="sv01"/>
      <point x="251" y="580" type="line"/>
      <point x="251" y="0" type="line" name="ab01"/>
      <point x="397" y="0" type="line"/>
      <point x="397" y="580" type="line" name="sv02"/>
      <point x="627" y="580" type="line" name="sv03"/>
      <point x="627" y="700" type="line"/>
    </contour>
  </outline>
</glyph>
<glyph name="b" format="2">
  <advance width="635"/>
  <unicode hex="0062"/>
  <anchor x="345" y="-20" name="bottom"/>
  <anchor x="353" y="750" name="top"/>
  <outline>
    <contour>
      <point x="73" y="0" type="line"/>
      <point x="218" y="0" type="line" name="ab02"/>
      <point x="218" y="750" type="line" name="ab01"/>
      <point x="73" y="750" type="line" name="sh01"/>
    </contour>
    <contour>
      <point x="372.491" y="-20" type="curve" smooth="yes" name="dv01"/>
      <point x="501.604" y="-20"/>
      <point x="584.5" y="99"/>
      <point x="584.5" y="255" type="curve" smooth="yes"/>
      <point x="584.5" y="411"/>
      <point x="510.593" y="520"/>
      <point x="371.767" y="520" type="curve" smooth="yes" name="at01"/>
      <point x="253.915" y="520"/>
      <point x="186" y="423"/>
      <point x="186" y="255" type="curve" smooth="yes"/>
      <point x="186" y="89"/>
      <point x="248.921" y="-20"/>
    </contour>
    <contour>
      <point x="329.251" y="90" type="curve" smooth="yes" name="dv02"/>
      <point x="260.095" y="90"/>
      <point x="218" y="153.197"/>
      <point x="218" y="256.52" type="curve" smooth="yes"/>
      <point x="218" y="348.809"/>
      <point x="261.097" y="410"/>
      <point x="328.249" y="410" type="curve" smooth="yes" name="sv01"/>
      <point x="398.407" y="410"/>
      <point x="439.5" y="351.818"/>
      <point x="439.5" y="255.517" type="curve" smooth="yes"/>
      <point x="439.5" y="154.201"/>
      <point x="396.403" y="90"/>
    </contour>
  </outline>
</glyph>
<glyph name="c" format="2">
  <advance width="545"/>
  <unicode hex="0063"/>
  <anchor x="304" y="520" name="top"/>
  <anchor x="304" y="-20" name="bottom"/>
  <outline>
    <contour>
      <point x="444" y="145" type="line"/>
      <point x="415" y="111.389"/>
      <point x="371" y="90"/>
      <point x="315" y="90" type="curve" smooth="yes" name="dv02"/>
      <point x="210" y="90"/>
      <point x="185" y="163.459"/>
      <point x="185" y="255.031" type="curve" smooth="yes"/>
      <point x="185" y="359.686"/>
      <point x="223" y="410"/>
      <point x="298" y="410" type="curve" smooth="yes" name="sv01"/>
      <point x="353" y="410"/>
      <point x="405" y="390.648"/>
      <point x="436" y="355" type="curve"/>
      <point x="514" y="433" type="line"/>
      <point x="464" y="490"/>
      <point x="387" y="520"/>
      <point x="294" y="520" type="curve" smooth="yes" name="at01"/>
      <point x="132" y="520"/>
      <point x="40" y="416"/>
      <point x="40" y="255" type="curve" smooth="yes"/>
      <point x="40" y="84"/>
      <point x="132" y="-20"/>
      <point x="293" y="-20" type="curve" smooth="yes" name="dv01"/>
      <point x="396" y="-20"/>
      <point x="472" y="10"/>
      <point x="522" y="67" type="curve"/>
    </contour>
  </outline>
</glyph>
<glyph name="d" format="2">
  <advance width="635"/>
  <unicode hex="0064"/>
  <anchor x="295" y="-20" name="bottom"/>
  <anchor x="290" y="750" name="top"/>
  <anchor x="600" y="750" name="topright"/>
  <outline>
    <contour>
      <point x="417" y="0" type="line" name="ab02"/>
      <point x="562" y="0" type="line"/>
      <point x="562" y="750" type="line" name="ab01"/>
      <point x="417" y="750" type="line"/>
    </contour>
    <contour>
      <point x="449" y="255" type="curve" smooth="yes"/>
      <point x="449" y="423"/>
      <point x="381" y="520"/>
      <point x="263" y="520" type="curve" smooth="yes" name="at01"/>
      <point x="124" y="520"/>
      <point x="50" y="411"/>
      <point x="50" y="255" type="curve" smooth="yes"/>
      <point x="50" y="99"/>
      <point x="133" y="-20"/>
      <point x="269" y="-20" type="curve" smooth="yes" name="dv01"/>
      <point x="386" y="-20"/>
      <point x="449" y="89"/>
    </contour>
    <contour>
      <point x="195" y="255.517" type="curve" smooth="yes"/>
      <point x="195" y="352.821"/>
      <point x="236.186" y="410"/>
      <point x="306.502" y="410" type="curve" smooth="yes" name="sv01"/>
      <point x="373.805" y="410"/>
      <point x="417" y="348.809"/>
      <point x="417" y="256.52" type="curve" smooth="yes"/>
      <point x="417" y="153.197"/>
      <point x="374.81" y="90"/>
      <point x="305.498" y="90" type="curve" smooth="yes" name="dv02"/>
      <point x="238.195" y="90"/>
      <point x="195" y="154.201"/>
    </contour>
  </outline>
</glyph>
<glyph name="f" format="2">
  <advance width="413"/>
  <unicode hex="0066"/>
  <anchor x="234" y="750" name="top"/>
  <anchor x="173" y="-20" name="bottom"/>
  <outline>
    <contour>
      <point x="99" y="0" type="line" name="ab01"/>
      <point x="244" y="0" type="line"/>
      <point x="244" y="390" type="line" name="sv01"/>
      <point x="389" y="390" type="line"/>
      <point x="389" y="500" type="line" name="sv02"/>
      <point x="244" y="500" type="line"/>
      <point x="244" y="569" type="line" smooth="yes"/>
      <point x="244" y="620"/>
      <point x="263" y="637"/>
      <point x="300" y="637" type="curve" smooth="yes" name="dv01"/>
      <point x="316" y="637"/>
      <point x="347" y="634"/>
      <point x="365" y="627" type="curve"/>
      <point x="386" y="728" type="line"/>
      <point x="327" y="746"/>
      <point x="297" y="751"/>
      <point x="266" y="751" type="curve" smooth="yes" name="dv02"/>
      <point x="154" y="751"/>
      <point x="99" y="684"/>
      <point x="99" y="588" type="curve" smooth="yes"/>
      <point x="99" y="500" type="line" name="dv04"/>
      <point x="12" y="500" type="line"/>
      <point x="12" y="390" type="line"/>
      <point x="99" y="390" type="line" name="dv03"/>
    </contour>
  </outline>
</glyph>
<glyph name="h" format="2">
  <advance width="635"/>
  <unicode hex="0068"/>
  <anchor x="318" y="-20" name="bottom"/>
  <anchor x="146" y="750" name="top"/>
  <outline>
    <contour>
      <point x="74" y="0" type="line" name="ab03"/>
      <point x="219" y="0" type="line"/>
      <point x="219" y="750" type="line" name="ab01"/>
      <point x="74" y="750" type="line"/>
    </contour>
    <contour>
      <point x="212" y="282" type="line"/>
      <point x="219" y="217" type="line" name="iv01"/>
      <point x="219" y="333.604"/>
      <point x="261" y="410"/>
      <point x="336" y="410" type="curve" smooth="yes" name="sv01"/>
      <point x="386" y="410"/>
      <point x="416" y="383.936"/>
      <point x="416" y="278.68" type="curve" smooth="yes"/>
      <point x="416" y="0" type="line" name="ab01"/>
      <point x="561" y="0" type="line"/>
      <point x="561" y="314" type="line" smooth="yes"/>
      <point x="561" y="462"/>
      <point x="492" y="520"/>
      <point x="389" y="520" type="curve" smooth="yes" name="at01"/>
      <point x="301" y="520"/>
      <point x="230" y="456"/>
      <point x="211" y="361" type="curve"/>
    </contour>
  </outline>
</glyph>
<glyph name="k" format="2">
  <advance width="574"/>
  <unicode hex="006B"/>
  <anchor x="277" y="-20" name="bottom"/>
  <anchor x="126" y="750" name="top"/>
  <outline>
    <contour>
      <point x="55" y="0" type="line"/>
      <point x="200" y="0" type="line" name="ab02"/>
      <point x="200" y="750" type="line" name="ab01"/>
      <point x="55" y="750" type="line" name="sh01"/>
    </contour>
    <contour>
      <point x="93" y="207" type="line"/>
      <point x="300" y="207" type="line" name="iv01"/>
      <point x="392" y="0" type="line" name="ab02"/>
      <point x="557" y="0" type="line"/>
      <point x="416" y="265" type="line"/>
      <point x="541" y="500" type="line" name="av02"/>
      <point x="391" y="500" type="line"/>
      <point x="306" y="317" type="line" name="iv02"/>
      <point x="92" y="317" type="line"/>
    </contour>
  </outline>
</glyph>
<glyph name="l" format="2">
  <advance width="350"/>
  <unicode hex="006C"/>
  <anchor x="148" y="750" name="top"/>
  <anchor x="200" y="-20" name="bottom"/>
  <anchor x="260" y="750" name="topright"/>
  <outline>
    <contour>
      <point x="317" y="104" type="line"/>
      <point x="292" y="94.3077"/>
      <point x="273" y="90"/>
      <point x="258" y="90" type="curve" smooth="yes" name="dv02"/>
      <point x="225" y="90"/>
      <point x="219" y="110.03"/>
      <point x="219" y="175.129" type="curve" smooth="yes"/>
      <point x="219" y="750" type="line" name="ab01"/>
      <point x="74" y="750" type="line"/>
      <point x="74" y="132" type="line" smooth="yes"/>
      <point x="74" y="30"/>
      <point x="119" y="-20"/>
      <point x="230" y="-20" type="curve" smooth="yes" name="dv01"/>
      <point x="272" y="-20"/>
      <point x="295" y="-13"/>
      <point x="340" y="2" type="curve"/>
    </contour>
  </outline>
</glyph>
<glyph name="q" format="2">
  <advance width="635"/>
  <unicode hex="0071"/>
  <anchor x="290" y="-20" name="bottom"/>
  <anchor x="291" y="520" name="top"/>
  <outline>
    <contour>
      <point x="417" y="-200" type="line"/>
      <point x="562" y="-200" type="line"/>
      <point x="562" y="500" type="line"/>
      <point x="417" y="500" type="line"/>
    </contour>
    <contour>
      <point x="269.226" y="-20" type="curve" smooth="yes" name="dv01"/>
      <point x="386.079" y="-20"/>
      <point x="449" y="89"/>
      <point x="449" y="255" type="curve" smooth="yes"/>
      <point x="449" y="423"/>
      <point x="381.085" y="520"/>
      <point x="263.233" y="520" type="curve" smooth="yes" name="at01"/>
      <point x="124.407" y="520"/>
      <point x="50.5" y="411"/>
      <point x="50.5" y="255" type="curve" smooth="yes"/>
      <point x="50.5" y="99"/>
      <point x="133.396" y="-20"/>
    </contour>
    <contour>
      <point x="305.749" y="90" type="curve" smooth="yes" name="dv02"/>
      <point x="239.6" y="90"/>
      <point x="195.5" y="155.204"/>
      <point x="195.5" y="255.517" type="curve" smooth="yes"/>
      <point x="195.5" y="350.815"/>
      <point x="237.595" y="410"/>
      <point x="306.751" y="410" type="curve" smooth="yes" name="sv01"/>
      <point x="373.903" y="410"/>
      <point x="417" y="348.809"/>
      <point x="417" y="256.52" type="curve" smooth="yes"/>
      <point x="417" y="153.197"/>
      <point x="374.905" y="90"/>
    </contour>
  </outline>
</glyph>
<glyph name="w" format="2">
  <advance width="854"/>
  <unicode hex="0077"/>
  <anchor x="427" y="520" name="top"/>
  <anchor x="427" y="-20" name="bottom"/>
  <outline>
    <contour>
      <point x="206" y="0" type="line"/>
      <point x="332" y="0" type="line"/>
      <point x="427" y="341" type="line"/>
      <point x="522" y="0" type="line"/>
      <point x="648" y="0" type="line"/>
      <point x="830" y="500" type="line"/>
      <point x="676" y="500" type="line"/>
      <point x="580" y="179" type="line"/>
      <point x="487" y="500" type="line"/>
      <point x="367" y="500" type="line"/>
      <point x="274" y="179" type="line"/>
      <point x="178" y="500" type="line"/>
      <point x="24" y="500" type="line"/>
    </contour>
  </outline>
</glyph>
<glyph name="y" format="2">
  <advance width="626"/>
  <unicode hex="0079"/>
  <anchor x="313" y="520" name="top"/>
  <anchor x="553" y="-63" name="bottom"/>
  <outline>
    <contour>
      <point x="409" y="263" type="line" name="iv01"/>
      <point x="409" y="162.342"/>
      <point x="370" y="110"/>
      <point x="300" y="110" type="curve" smooth="yes" name="sv01"/>
      <point x="234" y="110"/>
      <point x="209" y="155.116"/>
      <point x="209" y="270.411" type="curve" smooth="yes"/>
      <point x="209" y="500" type="line" name="av01"/>
      <point x="64" y="500" type="line"/>
      <point x="64" y="216" type="line" smooth="yes"/>
      <point x="64" y="83"/>
      <point x="132" y="0"/>
      <point x="256" y="0" type="curve" smooth="yes" name="ab01"/>
      <point x="352" y="0"/>
      <point x="400" y="50"/>
      <point x="421" y="131" type="curve"/>
    </contour>
    <contour>
      <point x="60" y="-133" type="line"/>
      <point x="110" y="-190"/>
      <point x="189" y="-220"/>
      <point x="283" y="-220" type="curve" smooth="yes" name="at01"/>
      <point x="451" y="-220"/>
      <point x="553" y="-124"/>
      <point x="553" y="52" type="curve" smooth="yes"/>
      <point x="553" y="500" type="line" name="av01"/>
      <point x="409" y="500" type="line"/>
      <point x="409" y="64.2857" type="line" smooth="yes"/>
      <point x="409" y="-59.9179"/>
      <point x="357" y="-110"/>
      <point x="272" y="-110" type="curve" smooth="yes" name="sv01"/>
      <point x="219" y="-110"/>
      <point x="169" y="-90.6481"/>
      <point x="138" y="-55" type="curve"/>
    </contour>
  </outline>
</glyph>
<glyph name="sterling" format="2">
  <advance width="634"/>
  <unicode hex="00A3"/>
  <outline>
    <contour>
      <point x="21" y="364" type="line"/>
      <point x="21" y="294" type="line"/>
      <point x="485" y="294" type="line"/>
      <point x="485" y="364" type="line"/>
    </contour>
    <contour>
      <point x="329" y="599" type="curve" smooth="yes"/>
      <point x="390" y="599"/>
      <point x="448" y="572"/>
      <point x="498" y="514" type="curve"/>
      <point x="583" y="599" type="line"/>
      <point x="507" y="687"/>
      <point x="418" y="720"/>
      <point x="318" y="720" type="curve" smooth="yes"/>
      <point x="159" y="720"/>
      <point x="57" y="637"/>
      <point x="57" y="519" type="curve" smooth="yes"/>
      <point x="57" y="462"/>
      <point x="81" y="407"/>
      <point x="114" y="347" type="curve" smooth="yes"/>
      <point x="137" y="305"/>
      <point x="162" y="265"/>
      <point x="162" y="210" type="curve" smooth="yes"/>
      <point x="162" y="130"/>
      <point x="110" y="86"/>
      <point x="50" y="46" type="curve"/>
      <point x="50" y="-44" type="line"/>
      <point x="109" y="32"/>
      <point x="144" y="50"/>
      <point x="182" y="50" type="curve" smooth="yes"/>
      <point x="261" y="50"/>
      <point x="283" y="-26"/>
      <point x="404" y="-26" type="curve" smooth="yes"/>
      <point x="504" y="-26"/>
      <point x="585" y="26"/>
      <point x="614" y="110" type="curve"/>
      <point x="594" y="152" type="line"/>
      <point x="574" y="105"/>
      <point x="522" y="70"/>
      <point x="452" y="70" type="curve" smooth="yes"/>
      <point x="364" y="70"/>
      <point x="374" y="125"/>
      <point x="265" y="125" type="curve"/>
      <point x="280" y="147"/>
      <point x="298" y="176"/>
      <point x="298" y="225" type="curve" smooth="yes"/>
      <point x="298" y="337"/>
      <point x="204" y="399"/>
      <point x="204" y="494" type="curve" smooth="yes"/>
      <point x="204" y="569"/>
      <point x="264" y="599"/>
    </contour>
  </outline>
</glyph>
<glyph name="yen" format="2">
  <advance width="662"/>
  <unicode hex="00A5"/>
  <outline>
    <component base="Y"/>
    <contour>
      <point x="130" y="162" type="line"/>
      <point x="130" y="107" type="line"/>
      <point x="533" y="107" type="line"/>
      <point x="533" y="162" type="line"/>
    </contour>
    <contour>
      <point x="130" y="293" type="line"/>
      <point x="130" y="238" type="line"/>
      <point x="533" y="238" type="line"/>
      <point x="533" y="293" type="line"/>
    </contour>
  </outline>
</glyph>
<glyph name="registered" format="2">
  <advance width="817"/>
  <unicode hex="00AE"/>
  <outline>
    <contour>
      <point x="44" y="355" type="curve" smooth="yes"/>
      <point x="44" y="137"/>
      <point x="233" y="12"/>
      <point x="411" y="12" type="curve" smooth="yes"/>
      <point x="589" y="12"/>
      <point x="773" y="138"/>
      <point x="773" y="355" type="curve" smooth="yes"/>
      <point x="773" y="572"/>
      <point x="596" y="688"/>
      <point x="411" y="688" type="curve" smooth="yes"/>
      <point x="227" y="688"/>
      <point x="44" y="573"/>
    </contour>
    <contour>
      <point x="104" y="354" type="curve" smooth="yes"/>
      <point x="104" y="513"/>
      <point x="231" y="628"/>
      <point x="409" y="628" type="curve" smooth="yes"/>
      <point x="585" y="628"/>
      <point x="713" y="514"/>
      <point x="713" y="350" type="curve" smooth="yes"/>
      <point x="713" y="186"/>
      <point x="573" y="72"/>
      <point x="409" y="72" type="curve" smooth="yes"/>
      <point x="243" y="72"/>
      <point x="104" y="195"/>
    </contour>
    <contour>
      <point x="258.8" y="150" type="line"/>
      <point x="346.4" y="150" type="line" name="ab01"/>
      <point x="346.4" y="471.8" type="line" name="sv01"/>
      <point x="396.8" y="471.8" type="line" smooth="yes"/>
      <point x="467" y="471.8"/>
      <point x="495.8" y="454.917"/>
      <point x="495.8" y="414.82" type="curve" smooth="yes"/>
      <point x="495.8" y="374.723"/>
      <point x="467" y="357.84"/>
      <point x="396.8" y="357.84" type="curve" smooth="yes"/>
      <point x="278" y="357.84" type="line" name="dv02"/>
      <point x="278" y="286.64" type="line" name="dv01"/>
      <point x="426.8" y="286.64" type="line" smooth="yes"/>
      <point x="522.2" y="286.64"/>
      <point x="583.4" y="337.04"/>
      <point x="583.4" y="416.56" type="curve" smooth="yes"/>
      <point x="583.4" y="494.4"/>
      <point x="524.6" y="542"/>
      <point x="426.8" y="542" type="curve" smooth="yes" name="at01"/>
      <point x="258.8" y="542" type="line"/>
    </contour>
    <contour>
      <point x="499.4" y="150" type="line" name="ab02"/>
      <point x="594.2" y="150" type="line"/>
      <point x="492.2" y="336.48" type="line"/>
      <point x="413.6" y="307.36" type="line"/>
    </contour>
  </outline>
</glyph>
<glyph name="threesuperior" format="2">
  <advance width="422"/>
  <unicode hex="00B3"/>
  <outline>
    <contour>
      <point x="34" y="406" type="line"/>
      <point x="76" y="361"/>
      <point x="134" y="337"/>
      <point x="213" y="337" type="curve" smooth="yes"/>
      <point x="319" y="337"/>
      <point x="383" y="381"/>
      <point x="383" y="469" type="curve" smooth="yes"/>
      <point x="383" y="556"/>
      <point x="320" y="589"/>
      <point x="147" y="589" type="curve"/>
      <point x="147" y="532" type="line"/>
      <point x="234" y="532"/>
      <point x="279" y="512"/>
      <point x="279" y="471" type="curve" smooth="yes"/>
      <point x="279" y="436"/>
      <point x="246" y="419"/>
      <point x="203" y="419" type="curve" smooth="yes"/>
      <point x="158" y="419"/>
      <point x="128" y="438"/>
      <point x="98" y="470" type="curve"/>
    </contour>
    <contour>
      <point x="147" y="593" type="line"/>
      <point x="296" y="593"/>
      <point x="368" y="632"/>
      <point x="368" y="709" type="curve" smooth="yes"/>
      <point x="368" y="784"/>
      <point x="299" y="834"/>
      <point x="209" y="834" type="curve" smooth="yes"/>
      <point x="147" y="834"/>
      <point x="83" y="810"/>
      <point x="53" y="778" type="curve"/>
      <point x="117" y="714" type="line"/>
      <point x="141" y="734"/>
      <point x="170" y="752"/>
      <point x="204" y="752" type="curve" smooth="yes"/>
      <point x="236" y="752"/>
      <point x="262" y="736"/>
      <point x="262" y="706" type="curve" smooth="yes"/>
      <point x="262" y="674"/>
      <point x="231" y="650"/>
      <point x="147" y="650" type="curve"/>
    </contour>
  </outline>
</glyph>
<glyph name="germandbls" format="2">
  <advance width="725"/>
  <unicode hex="00DF"/>
  <outline>
    <contour>
      <point x="677" y="147" type="curve" smooth="yes"/>
      <point x="677" y="48"/>
      <point x="593.205" y="-20"/>
      <point x="471.501" y="-20" type="curve" smooth="yes"/>
      <point x="388.297" y="-20"/>
      <point x="313.112" y="11"/>
      <point x="268" y="74" type="curve"/>
      <point x="350" y="156" type="line"/>
      <point x="383.636" y="110.308"/>
      <point x="422.219" y="90"/>
      <point x="461.791" y="90" type="curve" smooth="yes"/>
      <point x="503.342" y="90"/>
      <point x="535" y="111.038"/>
      <point x="535" y="142.095" type="curve" smooth="yes"/>
      <point x="535" y="223.243"/>
      <point x="326.5" y="256.303"/>
      <point x="326.5" y="373.516" type="curve" smooth="yes"/>
      <point x="326.5" y="455.666"/>
      <point x="430.5" y="493.735"/>
      <point x="430.5" y="569.874" type="curve" smooth="yes"/>
      <point x="430.5" y="617.962"/>
      <point x="389.403" y="639"/>
      <point x="339.284" y="639" type="curve" smooth="yes"/>
      <point x="261.1" y="639"/>
      <point x="219" y="587"/>
      <point x="219" y="495" type="curve" smooth="yes"/>
      <point x="219" y="0" type="line"/>
      <point x="74" y="0" type="line"/>
      <point x="74" y="545" type="line" smooth="yes"/>
      <point x="74" y="680"/>
      <point x="184.889" y="749"/>
      <point x="334.738" y="749" type="curve" smooth="yes"/>
      <point x="477.595" y="749"/>
      <point x="572.5" y="687"/>
      <point x="572.5" y="579" type="curve" smooth="yes"/>
      <point x="572.5" y="468"/>
      <point x="471.5" y="445"/>
      <point x="471.5" y="384" type="curve" smooth="yes"/>
      <point x="471.5" y="297"/>
      <point x="677" y="303"/>
    </contour>
  </outline>
</glyph>
<glyph name="ccedilla" format="2">
  <advance width="563"/>
  <unicode hex="00E7"/>
  <anchor x="303" y="520" name="top"/>
  <anchor x="283" y="-218" name="bottom"/>
  <outline>
    <contour>
      <point x="443" y="145" type="line"/>
      <point x="414" y="111.389"/>
      <point x="370" y="90"/>
      <point x="314" y="90" type="curve" smooth="yes" name="dv02"/>
      <point x="209" y="90"/>
      <point x="184" y="163.459"/>
      <point x="184" y="255.031" type="curve" smooth="yes"/>
      <point x="184" y="359.686"/>
      <point x="222" y="410"/>
      <point x="297" y="410" type="curve" smooth="yes" name="sv01"/>
      <point x="352" y="410"/>
      <point x="404" y="390.648"/>
      <point x="435" y="355" type="curve"/>
      <point x="513" y="433" type="line"/>
      <point x="463" y="490"/>
      <point x="386" y="520"/>
      <point x="293" y="520" type="curve" smooth="yes" name="at01"/>
      <point x="131" y="520"/>
      <point x="39" y="416"/>
      <point x="39" y="255" type="curve" smooth="yes"/>
      <point x="39" y="84"/>
      <point x="131" y="-20"/>
      <point x="292" y="-20" type="curve" smooth="yes" name="dv01"/>
      <point x="395" y="-20"/>
      <point x="471" y="10"/>
      <point x="521" y="67" type="curve"/>
    </contour>
    <contour>
      <point x="166" y="-205" type="line"/>
      <point x="190" y="-213"/>
      <point x="224" y="-218"/>
      <point x="263" y="-218" type="curve" smooth="yes"/>
      <point x="358" y="-218"/>
      <point x="407" y="-188"/>
      <point x="407" y="-135" type="curve" smooth="yes"/>
      <point x="407" y="-89"/>
      <point x="371" y="-64"/>
      <point x="309" y="-64" type="curve"/>
      <point x="353.665" y="16.2739" type="line"/>
      <point x="267.665" y="16.2739" type="line"/>
      <point x="210" y="-96" type="line"/>
      <point x="226" y="-94"/>
      <point x="239" y="-92"/>
      <point x="253" y="-92" type="curve" smooth="yes"/>
      <point x="287" y="-92"/>
      <point x="307" y="-105"/>
      <point x="307" y="-132" type="curve" smooth="yes"/>
      <point x="307" y="-158"/>
      <point x="287" y="-172"/>
      <point x="254" y="-172" type="curve" smooth="yes"/>
      <point x="234" y="-172"/>
      <point x="206" y="-167"/>
      <point x="186" y="-161" type="curve"/>
    </contour>
  </outline>
</glyph>
<glyph name="oslash" format="2">
  <advance width="616"/>
  <unicode hex="00F8"/>
  <anchor x="417" y="-3" name="ogonek"/>
  <anchor x="308" y="520" name="top"/>
  <anchor x="308" y="-20" name="bottom"/>
  <anchor x="376" y="520" name="topgr"/>
  <outline>
    <contour>
      <point x="308" y="-20" type="curve" smooth="yes" name="dv01"/>
      <point x="482" y="-20"/>
      <point x="567" y="84"/>
      <point x="567" y="255" type="curve" smooth="yes"/>
      <point x="567" y="416"/>
      <point x="481" y="520"/>
      <point x="308" y="520" type="curve" smooth="yes" name="at01"/>
      <point x="146" y="520"/>
      <point x="49" y="416"/>
      <point x="49" y="255" type="curve" smooth="yes"/>
      <point x="49" y="84"/>
      <point x="147" y="-20"/>
    </contour>
    <contour>
      <point x="308" y="90" type="curve" smooth="yes" name="dv02"/>
      <point x="236" y="90"/>
      <point x="197" y="146.352"/>
      <point x="197" y="255.031" type="curve" smooth="yes"/>
      <point x="197" y="359.686"/>
      <point x="233" y="410"/>
      <point x="308" y="410" type="curve" smooth="yes" name="sv01"/>
      <point x="384" y="410"/>
      <point x="419" y="357.673"/>
      <point x="419" y="253.019" type="curve" smooth="yes"/>
      <point x="419" y="145.346"/>
      <point x="387" y="90"/>
    </contour>
    <contour>
      <point x="129.456" y="-77" type="line"/>
      <point x="156.114" y="-77" type="line"/>
      <point x="486.673" y="578.06" type="line"/>
      <point x="460.015" y="578.06" type="line"/>
    </contour>
  </outline>
</glyph>
<glyph name="Aogonek" format="2">
  <advance width="655"/>
  <unicode hex="0104"/>
  <anchor x="328" y="719" name="top"/>
  <anchor x="328" y="-20" name="bottom"/>
  <anchor x="86" y="500" name="topgr"/>
  <outline>
    <contour>
      <point x="183" y="119" type="line" name="dv01"/>
      <point x="469" y="119" type="line"/>
      <point x="435" y="234" type="line" name="dv03"/>
      <point x="217" y="234" type="line" name="dv02"/>
    </contour>
    <contour>
      <point x="17" y="0" type="line"/>
      <point x="170" y="0" type="line"/>
      <point x="368" y="700" type="line"/>
      <point x="244" y="700" type="line"/>
    </contour>
    <contour>
      <point x="485" y="0" type="line"/>
      <point x="638" y="0" type="line"/>
      <point x="411" y="700" type="line"/>
      <point x="287" y="700" type="line"/>
    </contour>
    <contour>
      <point x="638" y="-181" type="line"/>
      <point x="595" y="-167"/>
      <point x="574" y="-136"/>
      <point x="574" y="-102" type="curve" smooth="yes"/>
      <point x="574" y="-65"/>
      <point x="598" y="-23"/>
      <point x="637" y="1" type="curve"/>
      <point x="604" y="4" type="line"/>
      <point x="515" y="-12"/>
      <point x="464" y="-54"/>
      <point x="464" y="-107" type="curve" smooth="yes"/>
      <point x="464" y="-157"/>
      <point x="508" y="-194"/>
      <point x="581" y="-204" type="curve"/>
    </contour>
  </outline>
</glyph>
<glyph name="aogonek" format="2">
  <advance width="645"/>
  <unicode hex="0105"/>
  <anchor x="322" y="520" name="top"/>
  <anchor x="322" y="-20" name="bottom"/>
  <outline>
    <contour>
      <point x="427" y="0" type="line" name="ab01"/>
      <point x="572" y="0" type="line"/>
      <point x="572" y="500" type="line" name="av01"/>
      <point x="427" y="500" type="line"/>
    </contour>
    <contour>
      <point x="270" y="-20" type="curve" smooth="yes" name="dv01"/>
      <point x="394" y="-20"/>
      <point x="459" y="79"/>
      <point x="459" y="248" type="curve" smooth="yes"/>
      <point x="459" y="423"/>
      <point x="389" y="520"/>
      <point x="261" y="520" type="curve" smooth="yes" name="at01"/>
      <point x="126" y="520"/>
      <point x="50" y="411"/>
      <point x="50" y="259" type="curve" smooth="yes"/>
      <point x="50" y="99"/>
      <point x="135" y="-20"/>
    </contour>
    <contour>
      <point x="311" y="90" type="curve" smooth="yes" name="dv02"/>
      <point x="240" y="90"/>
      <point x="195" y="152.194"/>
      <point x="195" y="254.514" type="curve" smooth="yes"/>
      <point x="195" y="353.824"/>
      <point x="238" y="410"/>
      <point x="308" y="410" type="curve" smooth="yes" name="sv01"/>
      <point x="382" y="410"/>
      <point x="427" y="348.809"/>
      <point x="427" y="250.502" type="curve" smooth="yes"/>
      <point x="427" y="153.197"/>
      <point x="383" y="90"/>
    </contour>
    <contour>
      <point x="573" y="-181" type="line"/>
      <point x="530" y="-167"/>
      <point x="509" y="-136"/>
      <point x="509" y="-102" type="curve" smooth="yes"/>
      <point x="509" y="-65"/>
      <point x="533" y="-23"/>
      <point x="572" y="1" type="curve"/>
      <point x="539" y="4" type="line"/>
      <point x="450" y="-12"/>
      <point x="399" y="-54"/>
      <point x="399" y="-107" type="curve" smooth="yes"/>
      <point x="399" y="-157"/>
      <point x="443" y="-194"/>
      <point x="516" y="-204" type="curve"/>
    </contour>
  </outline>
</glyph>
<glyph name="eogonek" format="2">
  <advance width="598"/>
  <unicode hex="0119"/>
  <anchor x="299" y="520" name="top"/>
  <anchor x="299" y="-20" name="bottom"/>
  <outline>
    <contour>
      <point x="186" y="322" type="line" name="sv02"/>
      <point x="195" y="376.621"/>
      <point x="240.582" y="410"/>
      <point x="303.009" y="410" type="curve" smooth="yes" name="sv01"/>
      <point x="364.445" y="410"/>
      <point x="404.082" y="376.621"/>
      <point x="413" y="322" type="curve" name="dv04"/>
    </contour>
    <contour>
      <point x="456" y="145" type="line"/>
      <point x="425.228" y="109.352"/>
      <point x="376.588" y="90"/>
      <point x="318.022" y="90" type="curve" smooth="yes" name="dv02"/>
      <point x="229.676" y="90"/>
      <point x="186" y="134.336"/>
      <point x="186" y="222" type="curve" name="sv04"/>
      <point x="561" y="222" type="line" name="dv03"/>
      <point x="561" y="419"/>
      <point x="468" y="520"/>
      <point x="305" y="520" type="curve" smooth="yes" name="at01"/>
      <point x="145" y="520"/>
      <point x="38" y="422"/>
      <point x="38" y="251" type="curve" smooth="yes" name="sv03"/>
      <point x="38" y="85"/>
      <point x="138" y="-20"/>
      <point x="312" y="-20" type="curve" smooth="yes" name="dv01"/>
      <point x="405" y="-20"/>
      <point x="484" y="10"/>
      <point x="534" y="67" type="curve"/>
    </contour>
    <contour>
      <point x="423" y="-183" type="line"/>
      <point x="380" y="-169"/>
      <point x="359" y="-138"/>
      <point x="359" y="-104" type="curve" smooth="yes"/>
      <point x="359" y="-67"/>
      <point x="383" y="-25"/>
      <point x="422" y="-1" type="curve"/>
      <point x="389" y="2" type="line"/>
      <point x="300" y="-14"/>
      <point x="249" y="-56"/>
      <point x="249" y="-109" type="curve" smooth="yes"/>
      <point x="249" y="-159"/>
      <point x="293" y="-196"/>
      <point x="366" y="-206" type="curve"/>
    </contour>
  </outline>
</glyph>
<glyph name="Lslash" format="2">
  <advance width="554"/>
  <unicode hex="0141"/>
  <outline>
    <contour>
      <point x="68" y="0" type="line" name="ab01"/>
      <point x="514" y="0" type="line"/>
      <point x="514" y="120" type="line" name="sv01"/>
      <point x="214" y="120" type="line"/>
      <point x="214" y="700" type="line" name="at01"/>
      <point x="68" y="700" type="line"/>
    </contour>
    <contour>
      <point x="0" y="231" type="line"/>
      <point x="388" y="494" type="line"/>
      <point x="388" y="543" type="line"/>
      <point x="0" y="280" type="line"/>
    </contour>
  </outline>
</glyph>
<glyph name="lslash" format="2">
  <advance width="350"/>
  <unicode hex="0142"/>
  <outline>
    <contour>
      <point x="317" y="104" type="line"/>
      <point x="292" y="94.3077"/>
      <point x="273" y="90"/>
      <point x="258" y="90" type="curve" smooth="yes" name="dv02"/>
      <point x="225" y="90"/>
      <point x="219" y="110.03"/>
      <point x="219" y="175.129" type="curve" smooth="yes"/>
      <point x="219" y="750" type="line" name="ab01"/>
      <point x="74" y="750" type="line"/>
      <point x="74" y="132" type="line" smooth="yes"/>
      <point x="74" y="30"/>
      <point x="119" y="-20"/>
      <point x="230" y="-20" type="curve" smooth="yes" name="dv01"/>
      <point x="272" y="-20"/>
      <point x="295" y="-13"/>
      <point x="340" y="2" type="curve"/>
    </contour>
    <contour>
      <point x="6" y="250" type="line"/>
      <point x="323" y="465" type="line"/>
      <point x="323" y="506" type="line"/>
      <point x="6" y="291" type="line"/>
    </contour>
  </outline>
</glyph>
<glyph name="Tcedilla" format="2">
  <advance width="648"/>
  <unicode hex="0162"/>
  <anchor x="324" y="719" name="top"/>
  <anchor x="304" y="-218" name="bottom"/>
  <outline>
    <contour>
      <point x="251" y="0" type="line" name="ab01"/>
      <point x="397" y="0" type="line"/>
      <point x="397" y="580" type="line" name="sv02"/>
      <point x="627" y="580" type="line" name="sv03"/>
      <point x="627" y="700" type="line"/>
      <point x="21" y="700" type="line" name="at01"/>
      <point x="21" y="580" type="line" name="sv01"/>
      <point x="251" y="580" type="line"/>
    </contour>
    <contour>
      <point x="187" y="-205" type="line"/>
      <point x="211" y="-213"/>
      <point x="245" y="-218"/>
      <point x="284" y="-218" type="curve" smooth="yes"/>
      <point x="379" y="-218"/>
      <point x="428" y="-188"/>
      <point x="428" y="-135" type="curve" smooth="yes"/>
      <point x="428" y="-89"/>
      <point x="392" y="-64"/>
      <point x="330" y="-64" type="curve"/>
      <point x="374.665" y="16.2739" type="line"/>
      <point x="288.665" y="16.2739" type="line"/>
      <point x="231" y="-96" type="line"/>
      <point x="247" y="-94"/>
      <point x="260" y="-92"/>
      <point x="274" y="-92" type="curve" smooth="yes"/>
      <point x="308" y="-92"/>
      <point x="328" y="-105"/>
      <point x="328" y="-132" type="curve" smooth="yes"/>
      <point x="328" y="-158"/>
      <point x="308" y="-172"/>
      <point x="275" y="-172" type="curve" smooth="yes"/>
      <point x="255" y="-172"/>
      <point x="227" y="-167"/>
      <point x="207" y="-161" type="curve"/>
    </contour>
  </outline>
</glyph>
<glyph name="tcedilla" format="2">
  <advance width="365"/>
  <unicode hex="0163"/>
  <anchor x="175" y="630" name="top"/>
  <anchor x="272" y="700" name="topright"/>
  <anchor x="200" y="-218" name="bottom"/>
  <outline>
    <contour>
      <point x="16" y="390" type="line" name="dv03"/>
      <point x="338" y="390" type="line"/>
      <point x="338" y="500" type="line"/>
      <point x="16" y="500" type="line" name="dv04"/>
    </contour>
    <contour>
      <point x="330" y="109" type="line"/>
      <point x="306" y="98"/>
      <point x="292" y="93"/>
      <point x="277" y="93" type="curve" smooth="yes" name="dv02"/>
      <point x="254" y="93"/>
      <point x="243" y="105"/>
      <point x="243" y="169" type="curve" smooth="yes"/>
      <point x="243" y="620" type="line" name="av01"/>
      <point x="98" y="620" type="line"/>
      <point x="98" y="132" type="line" smooth="yes"/>
      <point x="98" y="26"/>
      <point x="145" y="-21"/>
      <point x="241" y="-21" type="curve" smooth="yes" name="dv01"/>
      <point x="280" y="-21"/>
      <point x="311" y="-13"/>
      <point x="355" y="7" type="curve"/>
    </contour>
    <contour>
      <point x="83" y="-205" type="line"/>
      <point x="107" y="-213"/>
      <point x="141" y="-218"/>
      <point x="180" y="-218" type="curve" smooth="yes"/>
      <point x="275" y="-218"/>
      <point x="324" y="-188"/>
      <point x="324" y="-135" type="curve" smooth="yes"/>
      <point x="324" y="-89"/>
      <point x="288" y="-64"/>
      <point x="226" y="-64" type="curve"/>
      <point x="270.665" y="16.2739" type="line"/>
      <point x="184.665" y="16.2739" type="line"/>
      <point x="127" y="-96" type="line"/>
      <point x="143" y="-94"/>
      <point x="156" y="-92"/>
      <point x="170" y="-92" type="curve" smooth="yes"/>
      <point x="204" y="-92"/>
      <point x="224" y="-105"/>
      <point x="224" y="-132" type="curve" smooth="yes"/>
      <point x="224" y="-158"/>
      <point x="204" y="-172"/>
      <point x="171" y="-172" type="curve" smooth="yes"/>
      <point x="151" y="-172"/>
      <point x="123" y="-167"/>
      <point x="103" y="-161" type="curve"/>
    </contour>
  </outline>
</glyph>
<glyph name="Schwa" format="2">
  <advance width="779"/>
  <unicode hex="018F"/>
  <anchor x="390" y="719" name="top"/>
  <anchor x="390" y="-20" name="bottom"/>
  <outline>
    <contour>
      <point x="599" y="294" type="line" name="dv05"/>
      <point x="600" y="409" type="line" name="dv06"/>
      <point x="47" y="409" type="line" name="sh04"/>
      <point x="45" y="394" name=".dv02"/>
      <point x="43" y="371"/>
      <point x="43" y="345" type="curve" smooth="yes" name="sh01"/>
      <point x="43" y="130"/>
      <point x="181" y="-20"/>
      <point x="390" y="-20" type="curve" smooth="yes" name="dv01"/>
      <point x="599" y="-20"/>
      <point x="736" y="129"/>
      <point x="736" y="355" type="curve" smooth="yes" name="sh03"/>
      <point x="736" y="581"/>
      <point x="600" y="720"/>
      <point x="379" y="720" type="curve" smooth="yes"/>
      <point x="252" y="720"/>
      <point x="163" y="674"/>
      <point x="99" y="595" type="curve"/>
      <point x="184" y="510" type="line"/>
      <point x="232" y="566.629" name=".sh02"/>
      <point x="294" y="600"/>
      <point x="381" y="600" type="curve" smooth="yes"/>
      <point x="514" y="600" name=".dv01"/>
      <point x="587" y="521.687"/>
      <point x="587" y="356.024" type="curve" smooth="yes"/>
      <point x="587" y="194.378" name=".sh01"/>
      <point x="517" y="100"/>
      <point x="392" y="100" type="curve" smooth="yes" name="dv02"/>
      <point x="280" y="100" name=".sh03"/>
      <point x="204" y="175.389" name=".dv03"/>
      <point x="195" y="294" type="curve" name="sh02"/>
    </contour>
  </outline>
</glyph>
<glyph name="dotlessj" format="2">
  <advance width="300"/>
  <unicode hex="0237"/>
  <anchor x="160" y="520" name="top"/>
  <anchor x="100" y="-217" name="bottom"/>
  <outline>
    <contour>
      <point x="-46" y="-198" type="line"/>
      <point x="1" y="-212"/>
      <point x="15" y="-221"/>
      <point x="83" y="-221" type="curve" smooth="yes" name="dv01"/>
      <point x="178" y="-221"/>
      <point x="231" y="-174"/>
      <point x="231" y="-68" type="curve" smooth="yes"/>
      <point x="231" y="500" type="line"/>
      <point x="86" y="500" type="line" name="av01"/>
      <point x="86" y="-22" type="line" smooth="yes"/>
      <point x="86" y="-87"/>
      <point x="78" y="-108"/>
      <point x="41" y="-108" type="curve" smooth="yes" name="dv02"/>
      <point x="26" y="-108"/>
      <point x="-2" y="-105"/>
      <point x="-21" y="-96" type="curve"/>
    </contour>
  </outline>
</glyph>
<glyph name="caron" format="2">
  <advance width="346"/>
  <unicode hex="02C7"/>
  <outline>
    <contour>
      <point x="124" y="550" type="line"/>
      <point x="222" y="550" type="line"/>
      <point x="324" y="701" type="line"/>
      <point x="225" y="701" type="line"/>
      <point x="173" y="603" type="line"/>
      <point x="121" y="701" type="line"/>
      <point x="22" y="701" type="line"/>
    </contour>
  </outline>
</glyph>
<glyph name="circumflexcomb" format="2">
  <advance width="346"/>
  <unicode hex="0302"/>
  <anchor x="173" y="700" name="top"/>
  <anchor x="173" y="500" name="_top"/>
  <outline>
    <contour>
      <point x="22" y="550" type="line"/>
      <point x="121" y="550" type="line"/>
      <point x="173" y="648" type="line"/>
      <point x="225" y="550" type="line"/>
      <point x="324" y="550" type="line"/>
      <point x="222" y="701" type="line"/>
      <point x="124" y="701" type="line"/>
    </contour>
  </outline>
</glyph>
<glyph name="tildecomb" format="2">
  <advance width="443"/>
  <unicode hex="0303"/>
  <anchor x="222" y="670" name="top"/>
  <anchor x="222" y="500" name="_top"/>
  <outline>
    <contour>
      <point x="129" y="584" type="line"/>
      <point x="131" y="609"/>
      <point x="140" y="619"/>
      <point x="158" y="619" type="curve" smooth="yes"/>
      <point x="195" y="619"/>
      <point x="229" y="580"/>
      <point x="290" y="580" type="curve" smooth="yes"/>
      <point x="348" y="580"/>
      <point x="391" y="616.618"/>
      <point x="391" y="686" type="curve"/>
      <point x="311" y="686" type="line"/>
      <point x="310" y="663"/>
      <point x="302" y="652"/>
      <point x="280" y="652" type="curve" smooth="yes"/>
      <point x="236" y="652"/>
      <point x="204" y="691"/>
      <point x="145" y="691" type="curve" smooth="yes"/>
      <point x="91" y="691"/>
      <point x="49" y="657.927"/>
      <point x="49" y="584" type="curve"/>
    </contour>
  </outline>
</glyph>
<glyph name="dieresiscomb" format="2">
  <advance width="407"/>
  <unicode hex="0308"/>
  <anchor x="204" y="657" name="top"/>
  <anchor x="204" y="500" name="_top"/>
  <anchor x="204" y="500" name="_topgr"/>
  <outline>
    <contour>
      <point x="30.489" y="613" type="curve" smooth="yes"/>
      <point x="30.489" y="582.166"/>
      <point x="53.782" y="544.793"/>
      <point x="101.434" y="544.793" type="curve" smooth="yes" name="dv01"/>
      <point x="147.217" y="544.793"/>
      <point x="169.576" y="579.363"/>
      <point x="169.576" y="613" type="curve" smooth="yes"/>
      <point x="169.576" y="649.44"/>
      <point x="147.217" y="681.207"/>
      <point x="101.434" y="681.207" type="curve" smooth="yes" name="dv02"/>
      <point x="53.782" y="681.207"/>
      <point x="30.489" y="644.768"/>
    </contour>
    <contour>
      <point x="237.424" y="613" type="curve" smooth="yes"/>
      <point x="237.424" y="582.166"/>
      <point x="260.717" y="544.793"/>
      <point x="308.369" y="544.793" type="curve" smooth="yes" name="dv01.1"/>
      <point x="354.152" y="544.793"/>
      <point x="376.511" y="579.363"/>
      <point x="376.511" y="613" type="curve" smooth="yes"/>
      <point x="376.511" y="649.44"/>
      <point x="354.152" y="681.207"/>
      <point x="308.369" y="681.207" type="curve" smooth="yes" name="dv02.1"/>
      <point x="260.717" y="681.207"/>
      <point x="237.424" y="644.768"/>
    </contour>
  </outline>
</glyph>
<glyph name="numeral-greek" format="2">
  <advance width="243"/>
  <unicode hex="0374"/>
  <outline>
    <contour>
      <point x="218" y="715" type="line"/>
      <point x="141" y="715" type="line"/>
      <point x="20" y="498" type="line"/>
      <point x="139" y="498" type="line"/>
    </contour>
  </outline>
</glyph>
<glyph name="lownumeralsign" format="2">
  <advance width="241"/>
  <unicode hex="0375"/>
  <outline>
    <contour>
      <point x="217" y="68" type="line"/>
      <point x="140" y="68" type="line"/>
      <point x="19" y="-149" type="line"/>
      <point x="138" y="-149" type="line"/>
    </contour>
  </outline>
</glyph>
<glyph name="dieresistonos" format="2">
  <advance width="333"/>
  <unicode hex="0385"/>
  <anchor x="166" y="688" name="topgr"/>
  <anchor x="166" y="500" name="_topgr"/>
  <outline>
    <contour>
      <point x="119" y="546" type="line"/>
      <point x="183" y="546" type="line"/>
      <point x="234" y="713" type="line"/>
      <point x="150" y="713" type="line"/>
    </contour>
    <contour>
      <point x="283.275" y="560.491" type="curve" smooth="yes" name="dv01"/>
      <point x="313.306" y="560.491"/>
      <point x="329.205" y="583.456"/>
      <point x="329.205" y="608.187" type="curve" smooth="yes"/>
      <point x="329.205" y="632.918"/>
      <point x="313.306" y="655"/>
      <point x="283.275" y="655" type="curve" smooth="yes" name="dv02"/>
      <point x="251.478" y="655"/>
      <point x="235.579" y="630.269"/>
      <point x="235.579" y="608.187" type="curve" smooth="yes"/>
      <point x="235.579" y="586.106"/>
      <point x="251.478" y="560.491"/>
    </contour>
    <contour>
      <point x="52.491" y="560.491" type="curve" smooth="yes" name="dv01"/>
      <point x="82.522" y="560.491"/>
      <point x="98.421" y="583.456"/>
      <point x="98.421" y="608.187" type="curve" smooth="yes"/>
      <point x="98.421" y="632.918"/>
      <point x="82.522" y="655"/>
      <point x="52.491" y="655" type="curve" smooth="yes" name="dv02"/>
      <point x="20.694" y="655"/>
      <point x="4.795" y="630.269"/>
      <point x="4.795" y="608.187" type="curve" smooth="yes"/>
      <point x="4.795" y="586.106"/>
      <point x="20.694" y="560.491"/>
    </contour>
  </outline>
</glyph>
<glyph name="Sigma" format="2">
  <advance width="570"/>
  <unicode hex="03A3"/>
  <outline>
    <contour>
      <point x="524" y="0" type="line"/>
      <point x="524" y="120" type="line"/>
      <point x="238" y="120" type="line"/>
      <point x="445" y="350" type="line"/>
      <point x="238" y="580" type="line"/>
      <point x="524" y="580" type="line"/>
      <point x="524" y="700" type="line"/>
      <point x="31" y="700" type="line"/>
      <point x="31" y="610" type="line"/>
      <point x="265" y="350" type="line"/>
      <point x="31" y="90" type="line"/>
      <point x="31" y="0" type="line"/>
    </contour>
  </outline>
</glyph>
<glyph name="eta" format="2">
  <advance width="630"/>
  <unicode hex="03B7"/>
  <anchor x="300" y="520" name="topgr"/>
  <outline>
    <contour>
      <point x="89" y="0" type="line"/>
      <point x="234" y="0" type="line"/>
      <point x="234" y="384" type="line" smooth="yes"/>
      <point x="234" y="482"/>
      <point x="178" y="520"/>
      <point x="23" y="520" type="curve"/>
      <point x="23" y="410" type="line"/>
      <point x="60" y="410"/>
      <point x="89" y="396"/>
      <point x="89" y="337" type="curve" smooth="yes"/>
    </contour>
    <contour>
      <point x="411" y="-200" type="line"/>
      <point x="556" y="-200" type="line"/>
      <point x="556" y="304" type="line" smooth="yes"/>
      <point x="556" y="448"/>
      <point x="506" y="520"/>
      <point x="398" y="520" type="curve" smooth="yes"/>
      <point x="290" y="520"/>
      <point x="230" y="448"/>
      <point x="211" y="370" type="curve"/>
      <point x="213" y="287" type="line"/>
      <point x="234" y="217" type="line"/>
      <point x="234" y="309.479"/>
      <point x="255" y="410"/>
      <point x="334" y="410" type="curve" smooth="yes"/>
      <point x="377" y="410"/>
      <point x="411" y="380.952"/>
      <point x="411" y="285.796" type="curve" smooth="yes"/>
    </contour>
  </outline>
</glyph>
<glyph name="iota" format="2">
  <advance width="300"/>
  <unicode hex="03B9"/>
  <anchor x="131" y="520" name="topgr"/>
  <outline>
    <contour>
      <point x="257" y="110" type="line"/>
      <point x="210" y="110"/>
      <point x="201" y="125"/>
      <point x="201" y="187" type="curve" smooth="yes"/>
      <point x="201" y="500" type="line"/>
      <point x="56" y="500" type="line"/>
      <point x="56" y="153" type="line" smooth="yes"/>
      <point x="56" y="47"/>
      <point x="100" y="0"/>
      <point x="219" y="0" type="curve" smooth="yes"/>
      <point x="257" y="0" type="line"/>
    </contour>
  </outline>
</glyph>
<glyph name="sigma" format="2">
  <advance width="648"/>
  <unicode hex="03C3"/>
  <anchor x="417" y="-3" name="ogonek"/>
  <anchor x="308" y="-20" name="bottom"/>
  <anchor x="308" y="520" name="topgr"/>
  <outline>
    <contour>
      <point x="308" y="-20" type="curve" smooth="yes" name="dv01"/>
      <point x="482" y="-20"/>
      <point x="567" y="80.1481"/>
      <point x="567" y="244.815" type="curve" smooth="yes"/>
      <point x="567" y="399.852"/>
      <point x="481" y="500"/>
      <point x="308" y="500" type="curve" smooth="yes" name="at01"/>
      <point x="146" y="500"/>
      <point x="49" y="399.852"/>
      <point x="49" y="244.815" type="curve" smooth="yes"/>
      <point x="49" y="80.1481"/>
      <point x="147" y="-20"/>
    </contour>
    <contour>
      <point x="308" y="85.9259" type="curve" smooth="yes" name="dv02"/>
      <point x="236" y="85.9259"/>
      <point x="197" y="140.191"/>
      <point x="197" y="244.845" type="curve" smooth="yes"/>
      <point x="197" y="345.623"/>
      <point x="233" y="394.074"/>
      <point x="308" y="394.074" type="curve" smooth="yes" name="sv01"/>
      <point x="384" y="394.074"/>
      <point x="419" y="343.685"/>
      <point x="419" y="242.907" type="curve" smooth="yes"/>
      <point x="419" y="139.222"/>
      <point x="387" y="85.9259"/>
    </contour>
    <contour>
      <point x="346" y="390" type="line"/>
      <point x="621" y="390" type="line"/>
      <point x="621" y="500" type="line"/>
      <point x="304" y="500" type="line"/>
    </contour>
  </outline>
</glyph>
<glyph name="tau" format="2">
  <advance width="421"/>
  <unicode hex="03C4"/>
  <anchor x="210" y="520" name="topgr"/>
  <outline>
    <component base="iota" xOffset="72"/>
    <contour>
      <point x="35" y="500" type="line"/>
      <point x="35" y="390" type="line"/>
      <point x="379" y="390" type="line"/>
      <point x="379" y="500" type="line"/>
    </contour>
  </outline>
</glyph>
<glyph name="phi" format="2">
  <advance width="750"/>
  <unicode hex="03C6"/>
  <anchor x="375" y="520" name="topgr"/>
  <outline>
    <contour>
      <point x="300.5" y="-200" type="line"/>
      <point x="445.5" y="-200" type="line"/>
      <point x="445.5" y="-20" type="line"/>
      <point x="603.81" y="-20"/>
      <point x="700.5" y="84"/>
      <point x="700.5" y="250" type="curve" smooth="yes"/>
      <point x="700.5" y="421"/>
      <point x="601.747" y="520"/>
      <point x="448.131" y="520" type="curve" smooth="yes"/>
      <point x="353.368" y="520"/>
      <point x="300.5" y="470.886"/>
      <point x="300.5" y="375.664" type="curve" smooth="yes"/>
      <point x="300.5" y="90" type="line"/>
      <point x="224.786" y="91.0031"/>
      <point x="194.5" y="155.204"/>
      <point x="194.5" y="253.511" type="curve" smooth="yes"/>
      <point x="194.5" y="328.746"/>
      <point x="216.683" y="384.922"/>
      <point x="255" y="410" type="curve"/>
      <point x="165" y="500" type="line"/>
      <point x="99.2845" y="460"/>
      <point x="49.5" y="365"/>
      <point x="49.5" y="251" type="curve" smooth="yes"/>
      <point x="49.5" y="94"/>
      <point x="136.173" y="-20"/>
      <point x="300.5" y="-20" type="curve"/>
    </contour>
    <contour>
      <point x="445.5" y="90" type="curve"/>
      <point x="445.5" y="376.905" type="line" smooth="yes"/>
      <point x="445.5" y="396.968"/>
      <point x="451.555" y="407"/>
      <point x="470.729" y="407" type="curve" smooth="yes"/>
      <point x="515.133" y="407"/>
      <point x="555.5" y="349.82"/>
      <point x="555.5" y="251.509" type="curve" smooth="yes"/>
      <point x="555.5" y="152.196"/>
      <point x="512.106" y="90"/>
    </contour>
  </outline>
</glyph>
<glyph name="kaisymbol" format="2">
  <advance width="594"/>
  <unicode hex="03D7"/>
  <outline>
    <contour>
      <point x="69" y="0" type="line"/>
      <point x="214" y="0" type="line"/>
      <point x="214" y="500" type="line"/>
      <point x="69" y="500" type="line"/>
    </contour>
    <contour>
      <point x="110" y="207" type="line"/>
      <point x="317" y="207" type="line" name="iv01"/>
      <point x="409" y="0" type="line" name="ab02"/>
      <point x="574" y="0" type="line"/>
      <point x="433" y="265" type="line"/>
      <point x="558" y="500" type="line" name="av02"/>
      <point x="418" y="500" type="line"/>
      <point x="336" y="316" type="line" name="iv02"/>
      <point x="109" y="316" type="line"/>
    </contour>
    <contour>
      <point x="211" y="-197" type="line"/>
      <point x="429.651" y="-197"/>
      <point x="547" y="-134"/>
      <point x="574" y="0" type="curve"/>
      <point x="409" y="1" type="line"/>
      <point x="409" y="-53"/>
      <point x="337.64" y="-87"/>
      <point x="211" y="-87" type="curve"/>
    </contour>
  </outline>
</glyph>
<glyph name="Tshecyr" format="2">
  <advance width="752"/>
  <unicode hex="040B"/>
  <outline>
    <contour>
      <point x="21" y="700" type="line"/>
      <point x="21" y="580" type="line"/>
      <point x="172" y="580" type="line"/>
      <point x="172" y="0" type="line"/>
      <point x="318" y="0" type="line"/>
      <point x="318" y="580" type="line"/>
      <point x="562" y="580" type="line"/>
      <point x="562" y="700" type="line"/>
    </contour>
    <contour>
      <point x="678" y="0" type="line"/>
      <point x="678" y="257" type="line" smooth="yes"/>
      <point x="678" y="403"/>
      <point x="605" y="478"/>
      <point x="490" y="478" type="curve" smooth="yes"/>
      <point x="380" y="478"/>
      <point x="315" y="409"/>
      <point x="305" y="320" type="curve"/>
      <point x="318" y="214" type="line"/>
      <point x="318" y="303"/>
      <point x="378" y="358"/>
      <point x="448" y="358" type="curve" smooth="yes"/>
      <point x="507" y="358"/>
      <point x="532" y="318"/>
      <point x="532" y="254" type="curve" smooth="yes"/>
      <point x="532" y="0" type="line"/>
    </contour>
  </outline>
</glyph>
<glyph name="Becyr" format="2">
  <advance width="633"/>
  <unicode hex="0411"/>
  <outline>
    <component base="Softcyr"/>
    <contour>
      <point x="118" y="579" type="line"/>
      <point x="545" y="579" type="line"/>
      <point x="545" y="700" type="line"/>
      <point x="85" y="700" type="line"/>
      <point x="85" y="693" type="line"/>
    </contour>
  </outline>
</glyph>
<glyph name="Gecyr" format="2">
  <advance width="544"/>
  <unicode hex="0413"/>
  <anchor x="272" y="719" name="top"/>
  <anchor x="283" y="-20" name="bottom"/>
  <outline>
    <contour>
      <point x="214" y="0" type="line"/>
      <point x="214" y="579" type="line"/>
      <point x="498" y="579" type="line"/>
      <point x="498" y="700" type="line"/>
      <point x="68" y="700" type="line"/>
      <point x="68" y="0" type="line"/>
    </contour>
  </outline>
</glyph>
<glyph name="Decyr" format="2">
  <advance width="864"/>
  <unicode hex="0414"/>
  <outline>
    <contour>
      <point x="140" y="-140" type="line"/>
      <point x="140" y="-47"/>
      <point x="137" y="0"/>
      <point x="196" y="0" type="curve" smooth="yes"/>
      <point x="661" y="0" type="line" smooth="yes"/>
      <point x="732" y="0"/>
      <point x="724" y="-42"/>
      <point x="724" y="-140" type="curve"/>
      <point x="844" y="-140" type="line"/>
      <point x="844" y="101"/>
      <point x="812" y="119"/>
      <point x="712" y="119" type="curve"/>
      <point x="712" y="700" type="line"/>
      <point x="227" y="700" type="line"/>
      <point x="227" y="671" type="line" smooth="yes"/>
      <point x="227" y="235"/>
      <point x="213" y="194"/>
      <point x="148" y="121" type="curve"/>
      <point x="59" y="121"/>
      <point x="20" y="101"/>
      <point x="20" y="-140" type="curve"/>
    </contour>
    <contour>
      <point x="288" y="120" type="line"/>
      <point x="359.58" y="187.91"/>
      <point x="371.36" y="229.72"/>
      <point x="372.82" y="580" type="curve"/>
      <point x="566" y="580" type="line"/>
      <point x="566" y="120" type="line"/>
    </contour>
  </outline>
</glyph>
<glyph name="Kacyr" format="2">
  <advance width="640"/>
  <unicode hex="041A"/>
  <anchor x="320" y="719" name="top"/>
  <anchor x="320" y="-20" name="bottom"/>
  <outline>
    <contour>
      <point x="68" y="700" type="line"/>
      <point x="68" y="0" type="line"/>
      <point x="213" y="0" type="line"/>
      <point x="213" y="700" type="line"/>
    </contour>
    <contour>
      <point x="159" y="315" type="line"/>
      <point x="369" y="315" type="line" smooth="yes"/>
      <point x="463" y="315"/>
      <point x="538" y="351"/>
      <point x="555" y="467" type="curve"/>
      <point x="580" y="700" type="line"/>
      <point x="434" y="700" type="line"/>
      <point x="420" y="554" type="line"/>
      <point x="411" y="465"/>
      <point x="390" y="435"/>
      <point x="335" y="435" type="curve" smooth="yes"/>
      <point x="159" y="435" type="line"/>
    </contour>
    <contour>
      <point x="349" y="329" type="line"/>
      <point x="469" y="0" type="line"/>
      <point x="623" y="0" type="line"/>
      <point x="494" y="355" type="line"/>
    </contour>
  </outline>
</glyph>
<glyph name="Pecyr" format="2">
  <advance width="680"/>
  <unicode hex="041F"/>
  <anchor x="340" y="-20" name="bottom"/>
  <anchor x="340" y="719" name="top"/>
  <outline>
    <contour>
      <point x="67" y="0" type="line"/>
      <point x="213" y="0" type="line"/>
      <point x="213" y="580" type="line"/>
      <point x="467" y="580" type="line"/>
      <point x="467" y="0" type="line"/>
      <point x="613" y="0" type="line"/>
      <point x="613" y="700" type="line"/>
      <point x="67" y="700" type="line"/>
    </contour>
  </outline>
</glyph>
<glyph name="Shchacyr" format="2">
  <advance width="1060"/>
  <unicode hex="0429"/>
  <outline>
    <contour>
      <point x="77" y="0" type="line"/>
      <point x="77" y="700" type="line"/>
      <point x="223" y="700" type="line"/>
      <point x="223" y="120" type="line"/>
      <point x="413" y="120" type="line"/>
      <point x="413" y="700" type="line"/>
      <point x="559" y="700" type="line"/>
      <point x="559" y="120" type="line"/>
      <point x="749" y="120" type="line"/>
      <point x="749" y="700" type="line"/>
      <point x="895" y="700" type="line"/>
      <point x="895" y="120" type="line"/>
      <point x="995" y="120"/>
      <point x="1027" y="96"/>
      <point x="1027" y="-140" type="curve"/>
      <point x="907" y="-140" type="line"/>
      <point x="907" y="-42"/>
      <point x="915" y="0"/>
      <point x="844" y="0" type="curve" smooth="yes"/>
    </contour>
  </outline>
</glyph>
<glyph name="Hardcyr" format="2">
  <advance width="735"/>
  <unicode hex="042A"/>
  <outline>
    <contour>
      <point x="21" y="579" type="line"/>
      <point x="194" y="579" type="line"/>
      <point x="227" y="693" type="line"/>
      <point x="227" y="700" type="line"/>
      <point x="21" y="700" type="line"/>
    </contour>
    <contour>
      <point x="179" y="0" type="line"/>
      <point x="445" y="0" type="line" smooth="yes"/>
      <point x="598" y="0"/>
      <point x="696" y="86"/>
      <point x="696" y="220" type="curve" smooth="yes"/>
      <point x="696" y="353"/>
      <point x="598" y="434"/>
      <point x="445" y="434" type="curve" smooth="yes"/>
      <point x="325" y="434" type="line"/>
      <point x="325" y="700" type="line"/>
      <point x="179" y="700" type="line"/>
    </contour>
    <contour>
      <point x="325" y="120" type="line"/>
      <point x="325" y="313" type="line"/>
      <point x="442" y="313" type="line" smooth="yes"/>
      <point x="519" y="313"/>
      <point x="550" y="280"/>
      <point x="550" y="219" type="curve" smooth="yes"/>
      <point x="550" y="158"/>
      <point x="519" y="120"/>
      <point x="442" y="120" type="curve" smooth="yes"/>
    </contour>
  </outline>
</glyph>
<glyph name="Softcyr" format="2">
  <advance width="613"/>
  <unicode hex="042C"/>
  <outline>
    <contour>
      <point x="67" y="0" type="line"/>
      <point x="333" y="0" type="line" smooth="yes"/>
      <point x="486" y="0"/>
      <point x="584" y="89.963"/>
      <point x="584" y="230.138" type="curve" smooth="yes"/>
      <point x="584" y="369.267"/>
      <point x="486" y="454"/>
      <point x="333" y="454" type="curve" smooth="yes"/>
      <point x="213" y="454" type="line"/>
      <point x="213" y="700" type="line"/>
      <point x="67" y="700" type="line"/>
    </contour>
    <contour>
      <point x="213" y="120" type="line"/>
      <point x="213" y="333" type="line"/>
      <point x="330" y="333" type="line" smooth="yes"/>
      <point x="407" y="333"/>
      <point x="438" y="296.58"/>
      <point x="438" y="229.259" type="curve" smooth="yes"/>
      <point x="438" y="161.938"/>
      <point x="407" y="120"/>
      <point x="330" y="120" type="curve" smooth="yes"/>
    </contour>
  </outline>
</glyph>
<glyph name="shchacyr" format="2">
  <advance width="944"/>
  <unicode hex="0449"/>
  <outline>
    <contour>
      <point x="60" y="0" type="line"/>
      <point x="761" y="0" type="line" smooth="yes"/>
      <point x="829" y="0"/>
      <point x="814" y="-102"/>
      <point x="814" y="-140" type="curve"/>
      <point x="920" y="-140" type="line"/>
      <point x="920" y="69"/>
      <point x="899" y="119"/>
      <point x="799" y="119" type="curve"/>
      <point x="799" y="500" type="line"/>
      <point x="654" y="500" type="line"/>
      <point x="654" y="120" type="line"/>
      <point x="502" y="120" type="line"/>
      <point x="502" y="500" type="line"/>
      <point x="357" y="500" type="line"/>
      <point x="357" y="120" type="line"/>
      <point x="205" y="120" type="line"/>
      <point x="205" y="500" type="line"/>
      <point x="60" y="500" type="line"/>
    </contour>
  </outline>
</glyph>
<glyph name="ereversedcyr" format="2">
  <advance width="563"/>
  <unicode hex="044D"/>
  <anchor x="301" y="-20" name="bottom"/>
  <anchor x="281" y="520" name="top"/>
  <outline>
    <contour>
      <point x="417" y="208" type="line"/>
      <point x="417" y="304" type="line"/>
      <point x="153" y="304" type="line"/>
      <point x="153" y="208" type="line"/>
    </contour>
    <contour>
      <point x="39" y="67" type="line"/>
      <point x="89" y="10"/>
      <point x="165" y="-20"/>
      <point x="268" y="-20" type="curve" smooth="yes" name="dv01"/>
      <point x="429" y="-20"/>
      <point x="521" y="84"/>
      <point x="521" y="255" type="curve" smooth="yes"/>
      <point x="521" y="416"/>
      <point x="429" y="520"/>
      <point x="267" y="520" type="curve" smooth="yes" name="at01"/>
      <point x="174" y="520"/>
      <point x="97" y="490"/>
      <point x="47" y="433" type="curve"/>
      <point x="125" y="355" type="line"/>
      <point x="156" y="390.648"/>
      <point x="208" y="410"/>
      <point x="263" y="410" type="curve" smooth="yes" name="sv01"/>
      <point x="338" y="410"/>
      <point x="376" y="359.686"/>
      <point x="376" y="255.031" type="curve" smooth="yes"/>
      <point x="376" y="163.459"/>
      <point x="351" y="90"/>
      <point x="246" y="90" type="curve" smooth="yes" name="dv02"/>
      <point x="190" y="90"/>
      <point x="146" y="111.389"/>
      <point x="117" y="145" type="curve"/>
    </contour>
  </outline>
</glyph>
<glyph name="yacyr" format="2">
  <advance width="570"/>
  <unicode hex="044F"/>
  <anchor x="300" y="-20" name="bottom"/>
  <anchor x="300" y="520" name="top"/>
  <outline>
    <contour>
      <point x="500" y="0" type="line"/>
      <point x="500" y="500" type="line"/>
      <point x="276.258" y="500" type="line" smooth="yes"/>
      <point x="137.418" y="500"/>
      <point x="66.5" y="444"/>
      <point x="66.5" y="346" type="curve" smooth="yes"/>
      <point x="66.5" y="280"/>
      <point x="99.3187" y="229"/>
      <point x="157" y="196" type="curve"/>
      <point x="57" y="0" type="line"/>
      <point x="202" y="0" type="line"/>
      <point x="284" y="162" type="line"/>
      <point x="355" y="162" type="line"/>
      <point x="355" y="0" type="line"/>
    </contour>
    <contour>
      <point x="355" y="272" type="line"/>
      <point x="306.832" y="272" type="line" smooth="yes"/>
      <point x="245.619" y="272"/>
      <point x="211.5" y="293"/>
      <point x="211.5" y="332" type="curve" smooth="yes"/>
      <point x="211.5" y="370"/>
      <point x="245.619" y="390"/>
      <point x="306.832" y="390" type="curve" smooth="yes"/>
      <point x="355" y="390" type="line"/>
    </contour>
  </outline>
</glyph>
<glyph name="djecyr" format="2">
  <advance width="665"/>
  <unicode hex="0452"/>
  <outline>
    <contour>
      <point x="104" y="0" type="line" name="ab03"/>
      <point x="249" y="0" type="line"/>
      <point x="249" y="750" type="line" name="ab01"/>
      <point x="104" y="750" type="line"/>
    </contour>
    <contour>
      <point x="249" y="197" type="line" name="iv01"/>
      <point x="249" y="313"/>
      <point x="291" y="389"/>
      <point x="366" y="389" type="curve" smooth="yes" name="sv01"/>
      <point x="416" y="389"/>
      <point x="446" y="363"/>
      <point x="446" y="258" type="curve" smooth="yes"/>
      <point x="446" y="0" type="line" name="ab01"/>
      <point x="591" y="0" type="line"/>
      <point x="591" y="294" type="line" smooth="yes"/>
      <point x="591" y="442"/>
      <point x="522" y="500"/>
      <point x="419" y="500" type="curve" smooth="yes" name="at01"/>
      <point x="331" y="500"/>
      <point x="260" y="436"/>
      <point x="241" y="341" type="curve"/>
      <point x="242" y="262" type="line"/>
    </contour>
    <contour>
      <point x="16" y="590" type="line"/>
      <point x="415" y="590" type="line"/>
      <point x="415" y="626" type="line"/>
      <point x="16" y="626" type="line"/>
    </contour>
    <contour>
      <point x="314" y="-198" type="line"/>
      <point x="361" y="-212"/>
      <point x="375" y="-221"/>
      <point x="443" y="-221" type="curve" smooth="yes" name="dv01"/>
      <point x="538" y="-221"/>
      <point x="591" y="-174"/>
      <point x="591" y="-68" type="curve" smooth="yes"/>
      <point x="591" y="196" type="line"/>
      <point x="446" y="196" type="line" name="av01"/>
      <point x="446" y="-22" type="line" smooth="yes"/>
      <point x="446" y="-87"/>
      <point x="438" y="-108"/>
      <point x="401" y="-108" type="curve" smooth="yes" name="dv02"/>
      <point x="386" y="-108"/>
      <point x="358" y="-105"/>
      <point x="339" y="-96" type="curve"/>
    </contour>
  </outline>
</glyph>
<glyph name="ljecyr" format="2">
  <advance width="820"/>
  <unicode hex="0459"/>
  <outline>
    <contour>
      <point x="17" y="-14" type="line"/>
      <point x="37" y="-18"/>
      <point x="57" y="-20"/>
      <point x="76" y="-20" type="curve" smooth="yes"/>
      <point x="184.908" y="-20"/>
      <point x="236.725" y="43.231"/>
      <point x="254.056" y="218.274" type="curve" smooth="yes"/>
      <point x="258.844" y="266.638"/>
      <point x="261" y="323.539"/>
      <point x="261" y="390" type="curve"/>
      <point x="365" y="390" type="line"/>
      <point x="365" y="0" type="line"/>
      <point x="587" y="0" type="line" smooth="yes"/>
      <point x="707" y="0"/>
      <point x="770" y="56.8"/>
      <point x="770" y="164.21" type="curve" smooth="yes"/>
      <point x="770" y="266.45"/>
      <point x="712" y="315"/>
      <point x="586" y="315" type="curve" smooth="yes"/>
      <point x="510" y="315" type="line"/>
      <point x="510" y="500" type="line"/>
      <point x="117" y="500" type="line"/>
      <point x="117" y="392.453"/>
      <point x="115.958" y="310.504"/>
      <point x="112.729" y="249.187" type="curve" smooth="yes"/>
      <point x="106.472" y="130.339"/>
      <point x="92.004" y="89"/>
      <point x="61" y="89" type="curve" smooth="yes"/>
      <point x="56" y="89"/>
      <point x="49" y="90"/>
      <point x="40" y="94" type="curve"/>
    </contour>
    <contour>
      <point x="510" y="110" type="line"/>
      <point x="510" y="205" type="line"/>
      <point x="567" y="205" type="line" smooth="yes"/>
      <point x="605" y="205"/>
      <point x="625" y="190.47"/>
      <point x="625" y="160.29" type="curve" smooth="yes"/>
      <point x="625" y="127.88"/>
      <point x="603" y="110"/>
      <point x="565" y="110" type="curve" smooth="yes"/>
    </contour>
  </outline>
</glyph>
<glyph name="tshecyr" format="2">
  <advance width="665"/>
  <unicode hex="045B"/>
  <outline>
    <contour>
      <point x="104" y="0" type="line" name="ab03"/>
      <point x="249" y="0" type="line"/>
      <point x="249" y="197" type="line" smooth="yes" name="iv01"/>
      <point x="249" y="313"/>
      <point x="291" y="389"/>
      <point x="366" y="389" type="curve" smooth="yes" name="sv01"/>
      <point x="416" y="389"/>
      <point x="446" y="363"/>
      <point x="446" y="258" type="curve" smooth="yes"/>
      <point x="446" y="0" type="line" name="ab01"/>
      <point x="591" y="0" type="line"/>
      <point x="591" y="294" type="line" smooth="yes"/>
      <point x="591" y="442"/>
      <point x="522" y="500"/>
      <point x="419" y="500" type="curve" smooth="yes" name="at01"/>
      <point x="340.56" y="500"/>
      <point x="275.64" y="449.15"/>
      <point x="249" y="370.82" type="curve"/>
      <point x="249" y="590" type="line"/>
      <point x="405" y="590" type="line"/>
      <point x="405" y="626" type="line"/>
      <point x="249" y="626" type="line"/>
      <point x="249" y="750" type="line" name="ab01"/>
      <point x="104" y="750" type="line"/>
      <point x="104" y="626" type="line"/>
      <point x="16" y="626" type="line"/>
      <point x="16" y="590" type="line"/>
      <point x="104" y="590" type="line"/>
    </contour>
  </outline>
</glyph>
<glyph name="Germandbls" format="2">
  <advance width="765"/>
  <unicode hex="1E9E"/>
  <outline>
    <contour>
      <point x="537" y="505" type="curve" smooth="yes"/>
      <point x="677" y="645" type="line"/>
      <point x="613" y="696"/>
      <point x="510.046" y="720"/>
      <point x="391.803" y="720" type="curve" smooth="yes"/>
      <point x="188.954" y="720"/>
      <point x="86" y="633"/>
      <point x="86" y="479" type="curve" smooth="yes"/>
      <point x="86" y="0" type="line"/>
      <point x="232" y="0" type="line"/>
      <point x="232" y="463.887" type="line" smooth="yes"/>
      <point x="232" y="550.307"/>
      <point x="275.043" y="596"/>
      <point x="372.87" y="596" type="curve" smooth="yes"/>
      <point x="421.783" y="596"/>
      <point x="457" y="590"/>
      <point x="482" y="582" type="curve"/>
      <point x="417.376" y="524.643" type="line" smooth="yes"/>
      <point x="368.928" y="481.643"/>
      <point x="346" y="443.778"/>
      <point x="346" y="392.958" type="curve" smooth="yes"/>
      <point x="346" y="245.518"/>
      <point x="580" y="245.447"/>
      <point x="580" y="155.802" type="curve" smooth="yes"/>
      <point x="580" y="122.918"/>
      <point x="553.609" y="100"/>
      <point x="510.253" y="100" type="curve" smooth="yes"/>
      <point x="465.011" y="100"/>
      <point x="416" y="124"/>
      <point x="392" y="164" type="curve"/>
      <point x="303" y="75" type="line"/>
      <point x="342" y="18"/>
      <point x="404.376" y="-20"/>
      <point x="501.838" y="-20" type="curve" smooth="yes"/>
      <point x="638.284" y="-20"/>
      <point x="726" y="54"/>
      <point x="726" y="160" type="curve" smooth="yes"/>
      <point x="726" y="340"/>
      <point x="493" y="316"/>
      <point x="493" y="426" type="curve" smooth="yes"/>
      <point x="493" y="453"/>
      <point x="511" y="479"/>
    </contour>
  </outline>
</glyph>
<glyph name="fraction" format="2">
  <advance width="216"/>
  <unicode hex="2044"/>
  <outline>
    <contour>
      <point x="-90" y="0" type="line"/>
      <point x="-50" y="0" type="line"/>
      <point x="306" y="700" type="line"/>
      <point x="266" y="700" type="line"/>
    </contour>
  </outline>
</glyph>
<glyph name="zero.superior" format="2">
  <advance width="438"/>
  <unicode hex="2070"/>
  <outline>
    <contour>
      <point x="32" y="579" type="curve" smooth="yes"/>
      <point x="32" y="421"/>
      <point x="99" y="334"/>
      <point x="222" y="334" type="curve" smooth="yes"/>
      <point x="343" y="334"/>
      <point x="408" y="419"/>
      <point x="408" y="583" type="curve" smooth="yes"/>
      <point x="408" y="746"/>
      <point x="344" y="832"/>
      <point x="225" y="832" type="curve" smooth="yes"/>
      <point x="101" y="832"/>
      <point x="32" y="740"/>
    </contour>
    <contour>
      <point x="137" y="581" type="curve" smooth="yes"/>
      <point x="137" y="694"/>
      <point x="170" y="750"/>
      <point x="222" y="750" type="curve" smooth="yes"/>
      <point x="273" y="750"/>
      <point x="303" y="698"/>
      <point x="303" y="584" type="curve" smooth="yes"/>
      <point x="303" y="469"/>
      <point x="272" y="416"/>
      <point x="221" y="416" type="curve" smooth="yes"/>
      <point x="169" y="416"/>
      <point x="137" y="470"/>
    </contour>
  </outline>
</glyph>
<glyph name="seven.superior" format="2">
  <advance width="417"/>
  <unicode hex="2077"/>
  <outline>
    <contour>
      <point x="68" y="344" type="line"/>
      <point x="256" y="748" type="line"/>
      <point x="30" y="748" type="line"/>
      <point x="30" y="830" type="line"/>
      <point x="406" y="830" type="line"/>
      <point x="406" y="821" type="line"/>
      <point x="184" y="344" type="line"/>
    </contour>
  </outline>
</glyph>
<glyph name="plus.superior" format="2">
  <advance width="401"/>
  <unicode hex="207A"/>
  <outline>
    <contour>
      <point x="178" y="569" type="line"/>
      <point x="178" y="417" type="line"/>
      <point x="212" y="417" type="line"/>
      <point x="212" y="569" type="line"/>
      <point x="367" y="569" type="line"/>
      <point x="367" y="603" type="line"/>
      <point x="212" y="603" type="line"/>
      <point x="212" y="752" type="line"/>
      <point x="178" y="752" type="line"/>
      <point x="178" y="603" type="line"/>
      <point x="30" y="603" type="line"/>
      <point x="30" y="569" type="line"/>
    </contour>
  </outline>
</glyph>
<glyph name="austral" format="2">
  <advance width="718"/>
  <unicode hex="20B3"/>
  <outline>
    <contour>
      <point x="13" y="136" type="line"/>
      <point x="705" y="136" type="line"/>
      <point x="705" y="199" type="line"/>
      <point x="13" y="199" type="line"/>
    </contour>
    <contour>
      <point x="13" y="275" type="line"/>
      <point x="705" y="275" type="line"/>
      <point x="705" y="338" type="line"/>
      <point x="13" y="338" type="line"/>
    </contour>
    <contour>
      <point x="389.5" y="700" type="line"/>
      <point x="275.5" y="700" type="line"/>
      <point x="48.5" y="0" type="line"/>
      <point x="191.5" y="0" type="line"/>
    </contour>
    <contour>
      <point x="442.5" y="700" type="line"/>
      <point x="328.5" y="700" type="line"/>
      <point x="526.5" y="0" type="line"/>
      <point x="669.5" y="0" type="line"/>
    </contour>
  </outline>
</glyph>
<glyph name="manat" format="2">
  <advance width="846"/>
  <unicode hex="20BC"/>
  <outline>
    <contour>
      <point x="240" y="0" type="line"/>
      <point x="206" y="59"/>
      <point x="188" y="133"/>
      <point x="188" y="202" type="curve" smooth="yes"/>
      <point x="188" y="370"/>
      <point x="282" y="482"/>
      <point x="423" y="482" type="curve" smooth="yes"/>
      <point x="566" y="482"/>
      <point x="658" y="372"/>
      <point x="658" y="205" type="curve" smooth="yes"/>
      <point x="658" y="135"/>
      <point x="640" y="60"/>
      <point x="605" y="0" type="curve"/>
      <point x="751" y="0" type="line"/>
      <point x="785" y="75"/>
      <point x="803" y="154"/>
      <point x="803" y="230" type="curve" smooth="yes"/>
      <point x="803" y="450"/>
      <point x="648" y="602"/>
      <point x="425" y="602" type="curve" smooth="yes"/>
      <point x="198" y="602"/>
      <point x="43" y="444"/>
      <point x="43" y="214" type="curve" smooth="yes"/>
      <point x="43" y="143"/>
      <point x="59" y="69"/>
      <point x="90" y="0" type="curve"/>
    </contour>
    <contour>
      <point x="376" y="110" type="line"/>
      <point x="477" y="157" type="line"/>
      <point x="477" y="750" type="line"/>
      <point x="376" y="703" type="line"/>
    </contour>
  </outline>
</glyph>
<glyph name="Ccedilla.ss09" format="2">
  <advance width="773"/>
  <anchor x="387" y="719" name="top"/>
  <anchor x="387" y="-217" name="bottom"/>
  <outline>
    <contour>
      <point x="587" y="261" type="line"/>
      <point x="571" y="163.394"/>
      <point x="509" y="100"/>
      <point x="401" y="100" type="curve" smooth="yes"/>
      <point x="266" y="100"/>
      <point x="188" y="198.394"/>
      <point x="188" y="347.992" type="curve" smooth="yes"/>
      <point x="188" y="501.606"/>
      <point x="270" y="600"/>
      <point x="406" y="600" type="curve" smooth="yes"/>
      <point x="490" y="600"/>
      <point x="549" y="562.675"/>
      <point x="577" y="485" type="curve"/>
      <point x="720" y="485" type="line"/>
      <point x="672" y="637"/>
      <point x="563" y="720"/>
      <point x="402" y="720" type="curve" smooth="yes"/>
      <point x="184" y="720"/>
      <point x="43" y="569"/>
      <point x="43" y="354" type="curve" smooth="yes"/>
      <point x="43" y="146"/>
      <point x="174" y="-20"/>
      <point x="393" y="-20" type="curve" smooth="yes"/>
      <point x="566" y="-20"/>
      <point x="692" y="84"/>
      <point x="730" y="261" type="curve"/>
    </contour>
    <contour>
      <point x="270" y="-204" type="line"/>
      <point x="294" y="-212"/>
      <point x="328" y="-217"/>
      <point x="367" y="-217" type="curve" smooth="yes"/>
      <point x="462" y="-217"/>
      <point x="511" y="-187"/>
      <point x="511" y="-134" type="curve" smooth="yes"/>
      <point x="511" y="-88"/>
      <point x="475" y="-63"/>
      <point x="413" y="-63" type="curve"/>
      <point x="457.665" y="17.2739" type="line"/>
      <point x="371.665" y="17.2739" type="line"/>
      <point x="314" y="-95" type="line"/>
      <point x="330" y="-93"/>
      <point x="343" y="-91"/>
      <point x="357" y="-91" type="curve" smooth="yes"/>
      <point x="391" y="-91"/>
      <point x="411" y="-104"/>
      <point x="411" y="-131" type="curve" smooth="yes"/>
      <point x="411" y="-157"/>
      <point x="391" y="-171"/>
      <point x="358" y="-171" type="curve" smooth="yes"/>
      <point x="338" y="-171"/>
      <point x="310" y="-166"/>
      <point x="290" y="-160" type="curve"/>
    </contour>
  </outline>
</glyph>
<glyph name="Ccedilla.ss10" format="2">
  <advance width="715"/>
  <anchor x="377" y="719" name="top"/>
  <anchor x="377" y="-217" name="bottom"/>
  <outline>
    <contour>
      <point x="643" y="255" type="line"/>
      <point x="564" y="134.221"/>
      <point x="487" y="100"/>
      <point x="399" y="100" type="curve" smooth="yes"/>
      <point x="260" y="100"/>
      <point x="178" y="185.341"/>
      <point x="178" y="347.992" type="curve" smooth="yes"/>
      <point x="178" y="500.602"/>
      <point x="249" y="600"/>
      <point x="391" y="600" type="curve" smooth="yes"/>
      <point x="475" y="600"/>
      <point x="552" y="565.779"/>
      <point x="634" y="445" type="curve"/>
      <point x="673" y="583" type="line"/>
      <point x="603" y="673"/>
      <point x="505" y="720"/>
      <point x="385" y="720" type="curve" smooth="yes"/>
      <point x="174" y="720"/>
      <point x="33" y="573"/>
      <point x="33" y="357" type="curve" smooth="yes"/>
      <point x="33" y="137"/>
      <point x="180" y="-20"/>
      <point x="395" y="-20" type="curve" smooth="yes"/>
      <point x="512" y="-20"/>
      <point x="612" y="27"/>
      <point x="682" y="117" type="curve"/>
    </contour>
    <contour>
      <point x="260" y="-204" type="line"/>
      <point x="284" y="-212"/>
      <point x="318" y="-217"/>
      <point x="357" y="-217" type="curve" smooth="yes"/>
      <point x="452" y="-217"/>
      <point x="501" y="-187"/>
      <point x="501" y="-134" type="curve" smooth="yes"/>
      <point x="501" y="-88"/>
      <point x="465" y="-63"/>
      <point x="403" y="-63" type="curve"/>
      <point x="447.665" y="17.274" type="line"/>
      <point x="361.665" y="17.274" type="line"/>
      <point x="304" y="-95" type="line"/>
      <point x="320" y="-93"/>
      <point x="333" y="-91"/>
      <point x="347" y="-91" type="curve" smooth="yes"/>
      <point x="381" y="-91"/>
      <point x="401" y="-104"/>
      <point x="401" y="-131" type="curve" smooth="yes"/>
      <point x="401" y="-157"/>
      <point x="381" y="-171"/>
      <point x="348" y="-171" type="curve" smooth="yes"/>
      <point x="328" y="-171"/>
      <point x="300" y="-166"/>
      <point x="280" y="-160" type="curve"/>
    </contour>
  </outline>
</glyph>
<glyph name="Decyr.ss08" format="2">
  <advance width="863"/>
  <outline>
    <contour>
      <point x="333" y="700" type="line"/>
      <point x="129" y="93" type="line"/>
      <point x="286" y="93" type="line"/>
      <point x="473" y="700" type="line"/>
    </contour>
    <contour>
      <point x="392" y="700" type="line"/>
      <point x="577" y="93" type="line"/>
      <point x="734" y="93" type="line"/>
      <point x="530" y="700" type="line"/>
    </contour>
    <contour>
      <point x="158" y="120" type="line" smooth="yes"/>
      <point x="62" y="120"/>
      <point x="19" y="103"/>
      <point x="19" y="-140" type="curve"/>
      <point x="139" y="-140" type="line"/>
      <point x="139" y="-37"/>
      <point x="136" y="0"/>
      <point x="195" y="0" type="curve" smooth="yes"/>
      <point x="660" y="0" type="line" smooth="yes"/>
      <point x="731" y="0"/>
      <point x="723" y="-32"/>
      <point x="723" y="-140" type="curve"/>
      <point x="843" y="-140" type="line"/>
      <point x="843" y="103"/>
      <point x="808" y="120"/>
      <point x="711" y="120" type="curve" smooth="yes"/>
    </contour>
  </outline>
</glyph>
<glyph name="Djecyr.ss12" format="2">
  <advance width="783"/>
  <outline>
    <contour>
      <point x="183" y="0" type="line"/>
      <point x="329" y="0" type="line"/>
      <point x="329" y="193" type="line" smooth="yes"/>
      <point x="329" y="288"/>
      <point x="389" y="359"/>
      <point x="462" y="359" type="curve" smooth="yes"/>
      <point x="541" y="359"/>
      <point x="588" y="285"/>
      <point x="588" y="183" type="curve" smooth="yes"/>
      <point x="588" y="38"/>
      <point x="538" y="-27"/>
      <point x="428" y="-27" type="curve"/>
      <point x="428" y="-147" type="line"/>
      <point x="633" y="-147"/>
      <point x="734" y="-20"/>
      <point x="734" y="196" type="curve" smooth="yes"/>
      <point x="734" y="368"/>
      <point x="646" y="466"/>
      <point x="509" y="466" type="curve" smooth="yes"/>
      <point x="424" y="466"/>
      <point x="359" y="416"/>
      <point x="329" y="352" type="curve"/>
      <point x="329" y="580" type="line"/>
      <point x="554" y="580" type="line"/>
      <point x="554" y="700" type="line"/>
      <point x="21" y="700" type="line"/>
      <point x="21" y="580" type="line"/>
      <point x="183" y="580" type="line"/>
    </contour>
  </outline>
</glyph>
<glyph name="Eng.ss07" format="2">
  <advance width="732"/>
  <anchor x="366" y="719" name="top"/>
  <anchor x="356" y="-224" name="bottom"/>
  <outline>
    <contour>
      <point x="67.5" y="0" type="line"/>
      <point x="212.5" y="0" type="line" name="ab01"/>
      <point x="212.5" y="468" type="line" name="iv01"/>
      <point x="528.5" y="0" type="line" name="ab02"/>
      <point x="664.5" y="124.893" type="line"/>
      <point x="664.5" y="700" type="line" name="at01"/>
      <point x="519.5" y="700" type="line"/>
      <point x="519.5" y="232" type="line" name="iv02"/>
      <point x="203.5" y="700" type="line" name="at02"/>
      <point x="67.5" y="700" type="line"/>
    </contour>
    <contour>
      <point x="350" y="-224" type="line"/>
      <point x="581.633" y="-224"/>
      <point x="665.5" y="-146"/>
      <point x="665.5" y="68" type="curve" smooth="yes"/>
      <point x="665.5" y="620" type="line"/>
      <point x="520.5" y="620" type="line"/>
      <point x="520.5" y="49" type="line" smooth="yes"/>
      <point x="520.5" y="-76"/>
      <point x="474.365" y="-104"/>
      <point x="350" y="-104" type="curve"/>
    </contour>
  </outline>
</glyph>
<glyph name="Ereversedcyr.ss09" format="2">
  <advance width="773"/>
  <anchor x="387" y="719" name="top"/>
  <outline>
    <contour>
      <point x="276" y="300" type="line"/>
      <point x="276" y="420" type="line"/>
      <point x="611" y="420" type="line"/>
      <point x="611" y="300" type="line"/>
    </contour>
    <contour>
      <point x="186" y="261" type="line"/>
      <point x="202" y="163.394"/>
      <point x="264" y="100"/>
      <point x="372" y="100" type="curve" smooth="yes"/>
      <point x="507" y="100"/>
      <point x="585" y="198.394"/>
      <point x="585" y="347.992" type="curve" smooth="yes"/>
      <point x="585" y="501.606"/>
      <point x="503" y="600"/>
      <point x="367" y="600" type="curve" smooth="yes"/>
      <point x="283" y="600"/>
      <point x="224" y="562.675"/>
      <point x="196" y="485" type="curve"/>
      <point x="53" y="485" type="line"/>
      <point x="101" y="637"/>
      <point x="210" y="720"/>
      <point x="371" y="720" type="curve" smooth="yes"/>
      <point x="589" y="720"/>
      <point x="730" y="569"/>
      <point x="730" y="354" type="curve" smooth="yes"/>
      <point x="730" y="146"/>
      <point x="599" y="-20"/>
      <point x="380" y="-20" type="curve" smooth="yes"/>
      <point x="207" y="-20"/>
      <point x="81" y="84"/>
      <point x="43" y="261" type="curve"/>
    </contour>
  </outline>
</glyph>
<glyph name="Ereversedcyr.ss10" format="2">
  <advance width="735"/>
  <anchor x="357" y="719" name="top"/>
  <outline>
    <contour>
      <point x="43" y="117" type="line"/>
      <point x="113" y="27"/>
      <point x="213" y="-20"/>
      <point x="330" y="-20" type="curve" smooth="yes"/>
      <point x="545" y="-20"/>
      <point x="692" y="137"/>
      <point x="692" y="357" type="curve" smooth="yes"/>
      <point x="692" y="573"/>
      <point x="551" y="720"/>
      <point x="340" y="720" type="curve" smooth="yes"/>
      <point x="220" y="720"/>
      <point x="122" y="673"/>
      <point x="52" y="583" type="curve"/>
      <point x="91" y="445" type="line"/>
      <point x="173" y="565.779"/>
      <point x="250" y="600"/>
      <point x="334" y="600" type="curve" smooth="yes"/>
      <point x="476" y="600"/>
      <point x="547" y="500.602"/>
      <point x="547" y="347.992" type="curve" smooth="yes"/>
      <point x="547" y="185.341"/>
      <point x="465" y="100"/>
      <point x="326" y="100" type="curve" smooth="yes"/>
      <point x="238" y="100"/>
      <point x="161" y="134.221"/>
      <point x="82" y="255" type="curve"/>
    </contour>
    <contour>
      <point x="226" y="300" type="line"/>
      <point x="561" y="300" type="line"/>
      <point x="561" y="420" type="line"/>
      <point x="226" y="420" type="line"/>
    </contour>
  </outline>
</glyph>
<glyph name="Euro.ss09" format="2">
  <advance width="730"/>
  <outline>
    <contour>
      <point x="472" y="384" type="line"/>
      <point x="481" y="434" type="line"/>
      <point x="232" y="434" type="line"/>
      <point x="247" y="546"/>
      <point x="305" y="599"/>
      <point x="398" y="599" type="curve" smooth="yes"/>
      <point x="484" y="599"/>
      <point x="537" y="540"/>
      <point x="547" y="485" type="curve"/>
      <point x="687" y="485" type="line"/>
      <point x="650" y="620"/>
      <point x="556" y="720"/>
      <point x="395" y="720" type="curve" smooth="yes"/>
      <point x="232" y="720"/>
      <point x="102" y="603"/>
      <point x="89" y="434" type="curve"/>
      <point x="24" y="434" type="line"/>
      <point x="15" y="384" type="line"/>
    </contour>
    <contour>
      <point x="14" y="270" type="line"/>
      <point x="88" y="270" type="line"/>
      <point x="100" y="95"/>
      <point x="217" y="-20"/>
      <point x="381" y="-20" type="curve" smooth="yes"/>
      <point x="555" y="-20"/>
      <point x="658" y="106"/>
      <point x="687" y="261" type="curve"/>
      <point x="547" y="261" type="line"/>
      <point x="527" y="156"/>
      <point x="473" y="101"/>
      <point x="389" y="101" type="curve" smooth="yes"/>
      <point x="305" y="101"/>
      <point x="245" y="148"/>
      <point x="231" y="270" type="curve"/>
      <point x="445" y="270" type="line"/>
      <point x="455" y="320" type="line"/>
      <point x="24" y="320" type="line"/>
    </contour>
  </outline>
</glyph>
<glyph name="Euro.ss10" format="2">
  <advance width="714"/>
  <outline>
    <contour>
      <point x="16" y="374" type="line"/>
      <point x="507" y="374" type="line"/>
      <point x="518" y="439" type="line"/>
      <point x="233" y="439" type="line"/>
      <point x="254" y="537"/>
      <point x="315" y="599"/>
      <point x="416" y="599" type="curve" smooth="yes"/>
      <point x="490" y="599"/>
      <point x="552" y="565"/>
      <point x="623" y="445" type="curve"/>
      <point x="662" y="583" type="line"/>
      <point x="599" y="673"/>
      <point x="509" y="720"/>
      <point x="400" y="720" type="curve" smooth="yes"/>
      <point x="232" y="720"/>
      <point x="113" y="609"/>
      <point x="85" y="439" type="curve"/>
      <point x="25" y="439" type="line"/>
    </contour>
    <contour>
      <point x="15" y="265" type="line"/>
      <point x="86" y="265" type="line"/>
      <point x="118" y="95"/>
      <point x="239" y="-20"/>
      <point x="408" y="-20" type="curve" smooth="yes"/>
      <point x="516" y="-20"/>
      <point x="607" y="27"/>
      <point x="671" y="117" type="curve"/>
      <point x="632" y="255" type="line"/>
      <point x="563" y="135"/>
      <point x="501" y="101"/>
      <point x="423" y="101" type="curve" smooth="yes"/>
      <point x="323" y="101"/>
      <point x="255" y="156"/>
      <point x="232" y="265" type="curve"/>
      <point x="488" y="265" type="line"/>
      <point x="499" y="330" type="line"/>
      <point x="26" y="330" type="line"/>
    </contour>
  </outline>
</glyph>
<glyph name="G.ss03" format="2">
  <advance width="773"/>
  <anchor x="399" y="-19" name="bottom"/>
  <anchor x="387" y="719" name="top"/>
  <outline>
    <contour>
      <point x="399" y="600" type="curve" smooth="yes"/>
      <point x="495" y="600"/>
      <point x="564" y="563.766"/>
      <point x="644" y="445" type="curve"/>
      <point x="683" y="583" type="line"/>
      <point x="614" y="672"/>
      <point x="517" y="720"/>
      <point x="396" y="720" type="curve" smooth="yes"/>
      <point x="183" y="720"/>
      <point x="43" y="573"/>
      <point x="43" y="348" type="curve" smooth="yes"/>
      <point x="43" y="132"/>
      <point x="189" y="-20"/>
      <point x="396" y="-20" type="curve" smooth="yes"/>
      <point x="600" y="-20"/>
      <point x="730" y="120.351"/>
      <point x="730" y="324.862" type="curve" smooth="yes"/>
      <point x="730" y="380" type="line"/>
      <point x="380" y="380" type="line"/>
      <point x="380" y="270" type="line"/>
      <point x="585" y="270" type="line"/>
      <point x="585" y="159.349"/>
      <point x="509" y="100"/>
      <point x="400" y="100" type="curve" smooth="yes"/>
      <point x="267" y="100"/>
      <point x="190" y="200.402"/>
      <point x="190" y="351.004" type="curve" smooth="yes"/>
      <point x="190" y="507.631"/>
      <point x="267" y="600"/>
    </contour>
  </outline>
</glyph>
<glyph name="G.ss10" format="2">
  <advance width="770"/>
  <anchor x="384" y="-19" name="bottom"/>
  <anchor x="384" y="719" name="top"/>
  <outline>
    <contour>
      <point x="353" y="252" type="line"/>
      <point x="614" y="252" type="line"/>
      <point x="677" y="0" type="line"/>
      <point x="717" y="0" type="line"/>
      <point x="717" y="362" type="line"/>
      <point x="353" y="362" type="line"/>
    </contour>
    <contour>
      <point x="589" y="344" type="line"/>
      <point x="589" y="339.984"/>
      <point x="590" y="318.897"/>
      <point x="590" y="315.885" type="curve"/>
      <point x="581" y="186.354"/>
      <point x="502" y="100"/>
      <point x="384" y="100" type="curve" smooth="yes"/>
      <point x="253.472" y="100"/>
      <point x="180" y="192.57"/>
      <point x="180" y="357.028" type="curve" smooth="yes"/>
      <point x="180" y="513.575"/>
      <point x="253.63" y="600"/>
      <point x="387" y="600" type="curve" smooth="yes"/>
      <point x="478" y="600"/>
      <point x="553" y="565.779"/>
      <point x="640" y="445" type="curve"/>
      <point x="679" y="583" type="line"/>
      <point x="605" y="673"/>
      <point x="501" y="720"/>
      <point x="378" y="720" type="curve" smooth="yes"/>
      <point x="167" y="720"/>
      <point x="33" y="577"/>
      <point x="33" y="356" type="curve" smooth="yes"/>
      <point x="33" y="130.4"/>
      <point x="166.2" y="-20"/>
      <point x="366" y="-20" type="curve" smooth="yes"/>
      <point x="523" y="-20"/>
      <point x="610" y="79"/>
      <point x="638" y="221" type="curve"/>
    </contour>
  </outline>
</glyph>
<glyph name="G.ss13" format="2">
  <advance width="763"/>
  <anchor x="382" y="-19" name="bottom"/>
  <anchor x="382" y="719" name="top"/>
  <outline>
    <contour>
      <point x="380" y="260" type="line" name="dv05"/>
      <point x="580" y="260" type="line" name="sv02"/>
      <point x="569" y="163.396"/>
      <point x="505" y="100"/>
      <point x="391" y="100" type="curve" smooth="yes" name="dv04"/>
      <point x="258" y="100"/>
      <point x="178" y="187.349"/>
      <point x="178" y="350" type="curve" smooth="yes" name="dv07"/>
      <point x="178" y="506.627"/>
      <point x="253" y="600"/>
      <point x="396" y="600" type="curve" smooth="yes"/>
      <point x="483" y="600"/>
      <point x="536" y="565.702"/>
      <point x="568" y="485" type="curve"/>
      <point x="711" y="485" type="line"/>
      <point x="667" y="634"/>
      <point x="551" y="720"/>
      <point x="386" y="720" type="curve" smooth="yes"/>
      <point x="178" y="720"/>
      <point x="33" y="582"/>
      <point x="33" y="355" type="curve" smooth="yes" name="dv08"/>
      <point x="33" y="134"/>
      <point x="170" y="-20"/>
      <point x="386" y="-20" type="curve" smooth="yes" name="dv03"/>
      <point x="592" y="-20"/>
      <point x="730" y="120.639"/>
      <point x="730" y="329.105" type="curve" smooth="yes" name="sv03"/>
      <point x="730" y="370" type="line" name="sv01"/>
      <point x="380" y="370" type="line" name="dv06"/>
    </contour>
  </outline>
</glyph>
<glyph name="Germandbls.ss09" format="2">
  <advance width="703"/>
  <outline>
    <contour>
      <point x="56" y="0" type="line"/>
      <point x="202" y="0" type="line"/>
      <point x="202" y="451" type="line" smooth="yes"/>
      <point x="202" y="546"/>
      <point x="251" y="599"/>
      <point x="344" y="599" type="curve" smooth="yes"/>
      <point x="383.343" y="599"/>
      <point x="415.305" y="588.336"/>
      <point x="424.414" y="583.317" type="curve"/>
      <point x="452.498" y="624.633" type="line"/>
      <point x="387" y="553" type="line" smooth="yes"/>
      <point x="330.494" y="491.201"/>
      <point x="312.596" y="450.172"/>
      <point x="312.596" y="411.341" type="curve" smooth="yes"/>
      <point x="312.596" y="218"/>
      <point x="520" y="278.42"/>
      <point x="520" y="160" type="curve" smooth="yes"/>
      <point x="520" y="121"/>
      <point x="493" y="101"/>
      <point x="447" y="101" type="curve" smooth="yes"/>
      <point x="403" y="101"/>
      <point x="386" y="120"/>
      <point x="384" y="157" type="curve"/>
      <point x="243" y="157" type="line"/>
      <point x="261" y="38"/>
      <point x="321" y="-20"/>
      <point x="448" y="-20" type="curve" smooth="yes"/>
      <point x="588" y="-20"/>
      <point x="666" y="50"/>
      <point x="666" y="164" type="curve" smooth="yes"/>
      <point x="666" y="353.096"/>
      <point x="459" y="326.135"/>
      <point x="459" y="423.189" type="curve" smooth="yes"/>
      <point x="459" y="451"/>
      <point x="475.997" y="476.867"/>
      <point x="496" y="499" type="curve" smooth="yes"/>
      <point x="649.468" y="668.81" type="line"/>
      <point x="622.761" y="626.988" type="line"/>
      <point x="558.292" y="684.359"/>
      <point x="453.794" y="720"/>
      <point x="340" y="720" type="curve" smooth="yes"/>
      <point x="155" y="720"/>
      <point x="56" y="634"/>
      <point x="56" y="489" type="curve" smooth="yes"/>
    </contour>
  </outline>
</glyph>
<glyph name="IJ.liga.ss09" format="2">
  <advance width="622"/>
  <outline>
    <contour>
      <point x="90" y="195" type="line"/>
      <point x="115.76" y="45"/>
      <point x="183.5" y="-20"/>
      <point x="319.934" y="-20" type="curve" smooth="yes"/>
      <point x="484.99" y="-20"/>
      <point x="557.5" y="75"/>
      <point x="557.5" y="252" type="curve" smooth="yes"/>
      <point x="557.5" y="700" type="line"/>
      <point x="412.5" y="700" type="line"/>
      <point x="412.5" y="255.259" type="line" smooth="yes"/>
      <point x="412.5" y="136.06"/>
      <point x="379.458" y="100"/>
      <point x="318.731" y="100" type="curve" smooth="yes"/>
      <point x="267.828" y="100"/>
      <point x="241.93" y="126"/>
      <point x="233" y="195" type="curve"/>
    </contour>
    <contour>
      <point x="235" y="250" type="line"/>
      <point x="235" y="700" type="line"/>
      <point x="90" y="700" type="line"/>
      <point x="90" y="250" type="line"/>
    </contour>
  </outline>
</glyph>
<glyph name="IJ.liga.ss12" format="2">
  <advance width="610"/>
  <outline>
    <contour>
      <point x="104" y="31" type="line"/>
      <point x="150.944" y="5"/>
      <point x="208.528" y="-20"/>
      <point x="303.434" y="-20" type="curve" smooth="yes"/>
      <point x="459.124" y="-20"/>
      <point x="545.5" y="57"/>
      <point x="545.5" y="232" type="curve" smooth="yes"/>
      <point x="545.5" y="700" type="line"/>
      <point x="400.5" y="700" type="line"/>
      <point x="400.5" y="227" type="line" smooth="yes"/>
      <point x="400.5" y="124"/>
      <point x="366.616" y="100"/>
      <point x="277.387" y="100" type="curve" smooth="yes"/>
      <point x="236.725" y="100"/>
      <point x="179.122" y="105"/>
      <point x="116" y="130" type="curve"/>
    </contour>
    <contour>
      <point x="90" y="200" type="line"/>
      <point x="235" y="200" type="line"/>
      <point x="235" y="700" type="line"/>
      <point x="90" y="700" type="line"/>
    </contour>
  </outline>
</glyph>
<glyph name="J.ss10" format="2">
  <advance width="558"/>
  <anchor x="435" y="719" name="top"/>
  <anchor x="256" y="-20" name="bottom"/>
  <outline>
    <contour>
      <point x="21" y="117" type="line"/>
      <point x="77.941" y="31"/>
      <point x="153.862" y="-20"/>
      <point x="268.743" y="-20" type="curve" smooth="yes"/>
      <point x="418.588" y="-20"/>
      <point x="503.5" y="68"/>
      <point x="503.5" y="231" type="curve" smooth="yes"/>
      <point x="503.5" y="700" type="line"/>
      <point x="358.5" y="700" type="line"/>
      <point x="358.5" y="244.24" type="line" smooth="yes"/>
      <point x="358.5" y="138.063"/>
      <point x="337.465" y="100"/>
      <point x="257.331" y="100" type="curve" smooth="yes"/>
      <point x="169.183" y="100"/>
      <point x="113.089" y="147.305"/>
      <point x="60" y="255" type="curve"/>
    </contour>
  </outline>
</glyph>
<glyph name="Ljecyr.ss08" format="2">
  <advance width="920"/>
  <outline>
    <component base="Elcyr.ss08"/>
    <contour>
      <point x="494" y="0" type="line"/>
      <point x="631" y="0" type="line" smooth="yes"/>
      <point x="797" y="0"/>
      <point x="881" y="68"/>
      <point x="881" y="203" type="curve" smooth="yes"/>
      <point x="881" y="339"/>
      <point x="795" y="410"/>
      <point x="631" y="410" type="curve" smooth="yes"/>
      <point x="414" y="410" type="line"/>
      <point x="429" y="290" type="line"/>
      <point x="582" y="290" type="line" smooth="yes"/>
      <point x="701" y="290"/>
      <point x="736" y="271"/>
      <point x="736" y="207" type="curve" smooth="yes"/>
      <point x="736" y="141"/>
      <point x="699" y="120"/>
      <point x="582" y="120" type="curve" smooth="yes"/>
      <point x="536" y="120" type="line"/>
      <point x="493" y="4" type="line"/>
    </contour>
  </outline>
</glyph>
<glyph name="R.ss08" format="2">
  <advance width="645"/>
  <anchor x="323" y="719" name="top"/>
  <anchor x="323" y="-20" name="bottom"/>
  <outline>
    <contour>
      <point x="68" y="0" type="line"/>
      <point x="214" y="0" type="line"/>
      <point x="214" y="244" type="line"/>
      <point x="321" y="244" type="line" smooth="yes"/>
      <point x="471" y="244"/>
      <point x="580" y="341"/>
      <point x="580" y="474" type="curve" smooth="yes"/>
      <point x="580" y="611"/>
      <point x="483" y="700"/>
      <point x="333" y="700" type="curve" smooth="yes"/>
      <point x="68" y="700" type="line"/>
    </contour>
    <contour>
      <point x="214" y="364" type="line"/>
      <point x="214" y="580" type="line"/>
      <point x="299" y="580" type="line" smooth="yes"/>
      <point x="387" y="580"/>
      <point x="433" y="542"/>
      <point x="433" y="469" type="curve" smooth="yes"/>
      <point x="433" y="399"/>
      <point x="387" y="364"/>
      <point x="299" y="364" type="curve" smooth="yes"/>
    </contour>
    <contour>
      <point x="295" y="244" type="line"/>
      <point x="348" y="242"/>
      <point x="399" y="232"/>
      <point x="420" y="183" type="curve" smooth="yes"/>
      <point x="437" y="143"/>
      <point x="420" y="60"/>
      <point x="435" y="0" type="curve"/>
      <point x="584" y="0" type="line"/>
      <point x="564" y="56"/>
      <point x="584" y="171"/>
      <point x="559" y="222" type="curve" smooth="yes"/>
      <point x="534" y="273"/>
      <point x="492" y="279"/>
      <point x="396" y="305" type="curve"/>
    </contour>
  </outline>
</glyph>
<glyph name="S.ss10" format="2">
  <advance width="580"/>
  <anchor x="275" y="719" name="top"/>
  <anchor x="290" y="-20" name="bottom"/>
  <outline>
    <contour>
      <point x="33" y="117" type="line"/>
      <point x="96" y="27"/>
      <point x="181" y="-20"/>
      <point x="299" y="-20" type="curve" smooth="yes"/>
      <point x="447" y="-20"/>
      <point x="541" y="53.118"/>
      <point x="541" y="194.346" type="curve" smooth="yes"/>
      <point x="541" y="337.945"/>
      <point x="430.287" y="370.025"/>
      <point x="332.866" y="398.252" type="curve" smooth="yes"/>
      <point x="256.331" y="420.428"/>
      <point x="188" y="440.227"/>
      <point x="188" y="509.855" type="curve" smooth="yes"/>
      <point x="188" y="560.937"/>
      <point x="212" y="600"/>
      <point x="283" y="600" type="curve" smooth="yes"/>
      <point x="348" y="600"/>
      <point x="413" y="565.779"/>
      <point x="492" y="445" type="curve"/>
      <point x="531" y="583" type="line"/>
      <point x="462" y="673"/>
      <point x="368" y="720"/>
      <point x="266" y="720" type="curve" smooth="yes"/>
      <point x="131" y="720"/>
      <point x="43" y="637.868"/>
      <point x="43" y="507.658" type="curve" smooth="yes"/>
      <point x="43" y="365.333"/>
      <point x="155.826" y="324.02"/>
      <point x="253.906" y="296.799" type="curve" smooth="yes"/>
      <point x="329.311" y="275.872"/>
      <point x="396" y="257.363"/>
      <point x="396" y="188.142" type="curve" smooth="yes"/>
      <point x="396" y="130.048"/>
      <point x="359" y="100"/>
      <point x="287" y="100" type="curve" smooth="yes"/>
      <point x="210" y="100"/>
      <point x="142" y="134.221"/>
      <point x="72" y="255" type="curve"/>
    </contour>
  </outline>
</glyph>
<glyph name="Scedilla.ss12" format="2">
  <advance width="590"/>
  <anchor x="290" y="719" name="top"/>
  <anchor x="275" y="-218" name="bottom"/>
  <outline>
    <contour>
      <point x="52.6476" y="100.931" type="line"/>
      <point x="100.263" y="34.918"/>
      <point x="217.338" y="-20.7557"/>
      <point x="314.735" y="-20.7557" type="curve" smooth="yes"/>
      <point x="463.586" y="-20.7557"/>
      <point x="550.5" y="66.1904"/>
      <point x="550.5" y="194.471" type="curve" smooth="yes"/>
      <point x="550.5" y="332.424"/>
      <point x="443.068" y="373.458"/>
      <point x="345.42" y="405.912" type="curve" smooth="yes"/>
      <point x="269.269" y="431.22"/>
      <point x="197.5" y="449.743"/>
      <point x="197.5" y="515.171" type="curve" smooth="yes"/>
      <point x="197.5" y="567.285"/>
      <point x="239.013" y="600"/>
      <point x="316.13" y="600" type="curve" smooth="yes"/>
      <point x="373.485" y="600"/>
      <point x="437.334" y="576.481"/>
      <point x="513.086" y="521.961" type="curve"/>
      <point x="520.662" y="612.864" type="line"/>
      <point x="473.046" y="678.877"/>
      <point x="388.636" y="720"/>
      <point x="291.24" y="720" type="curve" smooth="yes"/>
      <point x="129.894" y="720"/>
      <point x="52.5" y="639.742"/>
      <point x="52.5" y="516.344" type="curve" smooth="yes"/>
      <point x="52.5" y="379.247"/>
      <point x="162.324" y="337.404"/>
      <point x="259.458" y="303.935" type="curve" smooth="yes"/>
      <point x="336.468" y="277.4"/>
      <point x="405.5" y="257.613"/>
      <point x="405.5" y="189.291" type="curve" smooth="yes"/>
      <point x="405.5" y="130.1"/>
      <point x="376.458" y="99"/>
      <point x="304.354" y="99" type="curve" smooth="yes"/>
      <point x="246.999" y="99"/>
      <point x="135.975" y="137.314"/>
      <point x="60.2228" y="191.834" type="curve"/>
    </contour>
    <contour>
      <point x="158" y="-205" type="line"/>
      <point x="182" y="-213"/>
      <point x="216" y="-218"/>
      <point x="255" y="-218" type="curve" smooth="yes"/>
      <point x="350" y="-218"/>
      <point x="399" y="-188"/>
      <point x="399" y="-135" type="curve" smooth="yes"/>
      <point x="399" y="-89"/>
      <point x="363" y="-64"/>
      <point x="301" y="-64" type="curve"/>
      <point x="345.665" y="16.2739" type="line"/>
      <point x="259.665" y="16.2739" type="line"/>
      <point x="202" y="-96" type="line"/>
      <point x="218" y="-94"/>
      <point x="231" y="-92"/>
      <point x="245" y="-92" type="curve" smooth="yes"/>
      <point x="279" y="-92"/>
      <point x="299" y="-105"/>
      <point x="299" y="-132" type="curve" smooth="yes"/>
      <point x="299" y="-158"/>
      <point x="279" y="-172"/>
      <point x="246" y="-172" type="curve" smooth="yes"/>
      <point x="226" y="-172"/>
      <point x="198" y="-167"/>
      <point x="178" y="-161" type="curve"/>
    </contour>
  </outline>
</glyph>
<glyph name="Schwa.ss09" format="2">
  <advance width="779"/>
  <anchor x="390" y="719" name="top"/>
  <anchor x="390" y="-20" name="bottom"/>
  <outline>
    <contour>
      <point x="387" y="600" type="curve" smooth="yes"/>
      <point x="294" y="600"/>
      <point x="230" y="556.623"/>
      <point x="202" y="485" type="curve"/>
      <point x="59" y="485" type="line"/>
      <point x="105" y="635"/>
      <point x="229" y="720"/>
      <point x="390" y="720" type="curve" smooth="yes"/>
      <point x="608" y="720"/>
      <point x="736" y="573"/>
      <point x="736" y="350" type="curve" smooth="yes" name="sh03"/>
      <point x="736" y="121"/>
      <point x="599" y="-20"/>
      <point x="390" y="-20" type="curve" smooth="yes" name="dv01"/>
      <point x="181" y="-20"/>
      <point x="43" y="130"/>
      <point x="43" y="358" type="curve" smooth="yes" name="sh01"/>
      <point x="43" y="371"/>
      <point x="45" y="394"/>
      <point x="47" y="409" type="curve" name="sh04"/>
      <point x="600" y="409" type="line" name="dv06"/>
      <point x="599" y="294" type="line" name="dv05"/>
      <point x="195" y="294" type="line" name="sh02"/>
      <point x="204" y="173.378"/>
      <point x="278" y="100"/>
      <point x="392" y="100" type="curve" smooth="yes" name="dv02"/>
      <point x="517" y="100"/>
      <point x="587" y="182.378"/>
      <point x="587" y="350.048" type="curve" smooth="yes"/>
      <point x="587" y="512.699"/>
      <point x="523" y="600"/>
    </contour>
  </outline>
</glyph>
<glyph name="Schwa.ss12" format="2">
  <advance width="779"/>
  <anchor x="390" y="719" name="top"/>
  <anchor x="390" y="-20" name="bottom"/>
  <outline>
    <contour>
      <point x="371" y="600" type="curve" smooth="yes"/>
      <point x="515" y="600"/>
      <point x="590" y="524.85"/>
      <point x="590" y="362.525" type="curve" smooth="yes"/>
      <point x="590" y="194.188"/>
      <point x="520" y="100"/>
      <point x="394" y="100" type="curve" smooth="yes" name="dv02"/>
      <point x="278" y="100"/>
      <point x="204" y="174"/>
      <point x="195" y="294" type="curve" name="sh02"/>
      <point x="604" y="294" type="line" name="dv05"/>
      <point x="605" y="409" type="line" name="dv06"/>
      <point x="47" y="409" type="line" name="sh04"/>
      <point x="45" y="394"/>
      <point x="43" y="371"/>
      <point x="43" y="358" type="curve" smooth="yes" name="sh01"/>
      <point x="43" y="130"/>
      <point x="181" y="-20"/>
      <point x="390" y="-20" type="curve" smooth="yes" name="dv01"/>
      <point x="599" y="-20"/>
      <point x="736" y="121"/>
      <point x="736" y="350" type="curve" smooth="yes" name="sh03"/>
      <point x="736" y="573"/>
      <point x="600" y="720"/>
      <point x="382" y="720" type="curve" smooth="yes"/>
      <point x="274" y="720"/>
      <point x="182" y="678"/>
      <point x="103" y="585" type="curve"/>
      <point x="113" y="490" type="line"/>
      <point x="197" y="568"/>
      <point x="274" y="600"/>
    </contour>
  </outline>
</glyph>
<glyph name="Zecyr.ss09" format="2">
  <advance width="598"/>
  <anchor x="299" y="-20" name="bottom"/>
  <anchor x="299" y="719" name="top"/>
  <outline>
    <contour>
      <point x="31" y="198" type="line"/>
      <point x="56.9757" y="67"/>
      <point x="143.895" y="-20"/>
      <point x="310.739" y="-20" type="curve" smooth="yes"/>
      <point x="462.597" y="-20"/>
      <point x="567.5" y="67"/>
      <point x="567.5" y="179" type="curve" smooth="yes"/>
      <point x="567.5" y="294"/>
      <point x="505.66" y="355"/>
      <point x="376" y="371" type="curve"/>
      <point x="493" y="399"/>
      <point x="535" y="451"/>
      <point x="535" y="542" type="curve" smooth="yes"/>
      <point x="535" y="649"/>
      <point x="445" y="720"/>
      <point x="302" y="720" type="curve" smooth="yes"/>
      <point x="145" y="720"/>
      <point x="62" y="633"/>
      <point x="40" y="502" type="curve"/>
      <point x="183" y="502" type="line"/>
      <point x="192" y="557"/>
      <point x="230" y="600"/>
      <point x="302" y="600" type="curve" smooth="yes"/>
      <point x="358" y="600"/>
      <point x="390" y="573.851"/>
      <point x="390" y="524.571" type="curve" smooth="yes"/>
      <point x="390" y="474.286"/>
      <point x="353" y="424"/>
      <point x="261" y="424" type="curve"/>
      <point x="261" y="304" type="line"/>
      <point x="376.359" y="304"/>
      <point x="422.5" y="259"/>
      <point x="422.5" y="199" type="curve" smooth="yes"/>
      <point x="422.5" y="140"/>
      <point x="383.423" y="100"/>
      <point x="313.281" y="100" type="curve" smooth="yes"/>
      <point x="229.111" y="100"/>
      <point x="192.036" y="127"/>
      <point x="174" y="198" type="curve"/>
    </contour>
  </outline>
</glyph>
<glyph name="a.ss02" format="2">
  <advance width="580"/>
  <anchor x="290" y="520" name="top"/>
  <anchor x="280" y="-20" name="bottom"/>
  <anchor x="501" y="-2" name="ogonek"/>
  <outline>
    <contour>
      <point x="361" y="158.05" type="curve"/>
      <point x="344.04" y="185.03"/>
      <point x="309.23" y="202"/>
      <point x="267" y="202" type="curve" smooth="yes"/>
      <point x="221" y="202"/>
      <point x="196" y="182"/>
      <point x="196" y="146" type="curve" smooth="yes"/>
      <point x="196" y="111"/>
      <point x="220" y="90"/>
      <point x="263" y="90" type="curve" smooth="yes"/>
      <point x="310.18" y="90"/>
      <point x="350.73" y="116.91"/>
    </contour>
    <contour>
      <point x="361" y="0" type="line"/>
      <point x="361" y="64.54" type="line"/>
      <point x="335.25" y="10.55"/>
      <point x="286.2" y="-20"/>
      <point x="220" y="-20" type="curve" smooth="yes"/>
      <point x="121" y="-20"/>
      <point x="50" y="49"/>
      <point x="50" y="146" type="curve" smooth="yes"/>
      <point x="50" y="243"/>
      <point x="121" y="312"/>
      <point x="223" y="312" type="curve" smooth="yes"/>
      <point x="286.77" y="312"/>
      <point x="335.06" y="284.7"/>
      <point x="361" y="236.5" type="curve"/>
      <point x="361" y="330.8" type="line" smooth="yes"/>
      <point x="361" y="382.93"/>
      <point x="338" y="410"/>
      <point x="278" y="410" type="curve" smooth="yes" name="sv01"/>
      <point x="227" y="410"/>
      <point x="179" y="390.64"/>
      <point x="148" y="355" type="curve"/>
      <point x="70" y="433" type="line"/>
      <point x="120" y="490"/>
      <point x="198" y="520"/>
      <point x="294" y="520" type="curve" smooth="yes" name="at01"/>
      <point x="446" y="520"/>
      <point x="506" y="444"/>
      <point x="506" y="352" type="curve" smooth="yes"/>
      <point x="506" y="0" type="line"/>
    </contour>
  </outline>
</glyph>
<glyph name="ae.ss13" format="2">
  <advance width="887"/>
  <outline>
    <contour>
      <point x="269.951" y="410" type="curve" smooth="yes" name="sv01"/>
      <point x="225.547" y="410"/>
      <point x="191.01" y="387"/>
      <point x="185.09" y="341" type="curve"/>
      <point x="51.44" y="341" type="line"/>
      <point x="60.43" y="457"/>
      <point x="149.44" y="520"/>
      <point x="276.17" y="520" type="curve" smooth="yes" name="at01"/>
      <point x="348.9" y="520"/>
      <point x="403.07" y="499.36"/>
      <point x="438.29" y="466.59" type="curve"/>
      <point x="480.39" y="500.09"/>
      <point x="536.03" y="520"/>
      <point x="603.85" y="520" type="curve" smooth="yes"/>
      <point x="769.72" y="520"/>
      <point x="849.26" y="397"/>
      <point x="849.26" y="221" type="curve"/>
      <point x="487.97" y="221" type="line"/>
      <point x="487.97" y="131.31"/>
      <point x="543.133" y="90"/>
      <point x="607.007" y="90" type="curve" smooth="yes"/>
      <point x="660.234" y="90"/>
      <point x="710.559" y="114"/>
      <point x="714.43" y="167" type="curve"/>
      <point x="844.41" y="167" type="line"/>
      <point x="825.01" y="50"/>
      <point x="740.62" y="-20"/>
      <point x="606.76" y="-20" type="curve" smooth="yes"/>
      <point x="515.2" y="-20"/>
      <point x="442.69" y="17.64"/>
      <point x="397.4" y="79.81" type="curve"/>
      <point x="352.822" y="10.5628"/>
      <point x="286.375" y="-20"/>
      <point x="214.207" y="-20" type="curve" smooth="yes"/>
      <point x="105.771" y="-20"/>
      <point x="35.6" y="49"/>
      <point x="35.6" y="146" type="curve" smooth="yes"/>
      <point x="35.6" y="243"/>
      <point x="105.771" y="312"/>
      <point x="206.581" y="312" type="curve" smooth="yes"/>
      <point x="269.624" y="312"/>
      <point x="317.333" y="284.7"/>
      <point x="342.97" y="236.49" type="curve"/>
      <point x="342.97" y="340.83" type="line" smooth="yes"/>
      <point x="342.97" y="382.93"/>
      <point x="318.301" y="410"/>
    </contour>
    <contour>
      <point x="487.97" y="308" type="curve"/>
      <point x="711.52" y="308" type="line"/>
      <point x="711.52" y="367"/>
      <point x="673.249" y="410"/>
      <point x="599.55" y="410" type="curve" smooth="yes"/>
      <point x="525.842" y="410"/>
      <point x="487.97" y="365"/>
    </contour>
    <contour>
      <point x="180.14" y="146" type="curve" smooth="yes"/>
      <point x="180.14" y="111"/>
      <point x="203.824" y="90"/>
      <point x="246.259" y="90" type="curve" smooth="yes"/>
      <point x="292.82" y="90"/>
      <point x="332.852" y="115.15"/>
      <point x="342.97" y="156.3" type="curve"/>
      <point x="342.97" y="158.04" type="line"/>
      <point x="326.233" y="185.03"/>
      <point x="291.883" y="202"/>
      <point x="250.206" y="202" type="curve" smooth="yes"/>
      <point x="204.811" y="202"/>
      <point x="180.14" y="182"/>
    </contour>
  </outline>
</glyph>
<glyph name="alpha.ss01" format="2">
  <advance width="629"/>
  <anchor x="271" y="519" name="topgr"/>
  <outline>
    <contour>
      <point x="599" y="110" type="line"/>
      <point x="552" y="110"/>
      <point x="543" y="125"/>
      <point x="543" y="187" type="curve" smooth="yes"/>
      <point x="543" y="500" type="line"/>
      <point x="398" y="500" type="line"/>
      <point x="398" y="153" type="line" smooth="yes"/>
      <point x="398" y="47"/>
      <point x="442" y="0"/>
      <point x="561" y="0" type="curve" smooth="yes"/>
      <point x="599" y="0" type="line"/>
    </contour>
    <contour>
      <point x="240.231" y="-20" type="curve" smooth="yes"/>
      <point x="363.08" y="-20"/>
      <point x="428" y="79"/>
      <point x="428" y="248" type="curve" smooth="yes"/>
      <point x="428" y="426"/>
      <point x="356.088" y="520"/>
      <point x="231.242" y="520" type="curve" smooth="yes"/>
      <point x="97.407" y="520"/>
      <point x="21.5" y="411"/>
      <point x="21.5" y="259" type="curve" smooth="yes"/>
      <point x="21.5" y="99"/>
      <point x="106.396" y="-20"/>
    </contour>
    <contour>
      <point x="284.755" y="90" type="curve" smooth="yes"/>
      <point x="213.602" y="90"/>
      <point x="166.5" y="162.226"/>
      <point x="166.5" y="253.511" type="curve" smooth="yes"/>
      <point x="166.5" y="343.793"/>
      <point x="212.6" y="410"/>
      <point x="281.749" y="410" type="curve" smooth="yes"/>
      <point x="348.894" y="410"/>
      <point x="398" y="348.809"/>
      <point x="398" y="249.498" type="curve" smooth="yes"/>
      <point x="398" y="153.197"/>
      <point x="350.898" y="90"/>
    </contour>
  </outline>
</glyph>
<glyph name="ampersand.ss09" format="2">
  <advance width="660"/>
  <outline>
    <contour>
      <point x="454" y="310" type="line"/>
      <point x="454" y="178"/>
      <point x="382" y="101"/>
      <point x="271" y="101" type="curve" smooth="yes"/>
      <point x="206" y="101"/>
      <point x="165" y="143"/>
      <point x="165" y="208" type="curve" smooth="yes"/>
      <point x="165" y="294"/>
      <point x="215" y="341"/>
      <point x="331" y="378" type="curve"/>
      <point x="223" y="500" type="line" smooth="yes"/>
      <point x="189" y="539"/>
      <point x="203" y="580"/>
      <point x="255" y="580" type="curve" smooth="yes"/>
      <point x="468" y="580" type="line"/>
      <point x="468" y="700" type="line"/>
      <point x="242" y="700" type="line" smooth="yes"/>
      <point x="109" y="700"/>
      <point x="63" y="632"/>
      <point x="63" y="559" type="curve" smooth="yes"/>
      <point x="63" y="482"/>
      <point x="119" y="430"/>
      <point x="165" y="379" type="curve"/>
      <point x="72" y="339"/>
      <point x="24" y="270"/>
      <point x="24" y="177" type="curve" smooth="yes"/>
      <point x="24" y="53"/>
      <point x="119" y="-20"/>
      <point x="282" y="-20" type="curve" smooth="yes"/>
      <point x="483" y="-20"/>
      <point x="597" y="122"/>
      <point x="597" y="310" type="curve"/>
    </contour>
    <contour>
      <point x="409" y="147" type="line"/>
      <point x="556" y="0" type="line"/>
      <point x="648" y="0" type="line"/>
      <point x="648" y="84" type="line"/>
      <point x="501" y="231" type="line"/>
    </contour>
  </outline>
</glyph>
<glyph name="backslash.case" format="2">
  <advance width="326"/>
  <outline>
    <contour>
      <point x="363" y="0" type="line"/>
      <point x="333" y="0" type="line"/>
      <point x="-39" y="700" type="line"/>
      <point x="-9" y="700" type="line"/>
    </contour>
  </outline>
</glyph>
<glyph name="c.ss09" format="2">
  <advance width="573"/>
  <anchor x="293" y="520" name="top"/>
  <anchor x="313" y="-20" name="bottom"/>
  <outline>
    <contour>
      <point x="406" y="167" type="line"/>
      <point x="402.987" y="123"/>
      <point x="363.817" y="90"/>
      <point x="304.561" y="90" type="curve" smooth="yes"/>
      <point x="222.204" y="90"/>
      <point x="175" y="146.352"/>
      <point x="175" y="246.981" type="curve" smooth="yes"/>
      <point x="175" y="349.623"/>
      <point x="223.207" y="410"/>
      <point x="303.552" y="410" type="curve" smooth="yes"/>
      <point x="362.806" y="410"/>
      <point x="401.974" y="377.835"/>
      <point x="408" y="333" type="curve"/>
      <point x="543" y="333" type="line"/>
      <point x="523" y="457.667"/>
      <point x="430" y="520"/>
      <point x="297" y="520" type="curve" smooth="yes"/>
      <point x="128" y="520"/>
      <point x="30" y="417"/>
      <point x="30" y="255" type="curve" smooth="yes"/>
      <point x="30" y="85"/>
      <point x="126" y="-20"/>
      <point x="296" y="-20" type="curve" smooth="yes"/>
      <point x="431" y="-20"/>
      <point x="529" y="47"/>
      <point x="541" y="167" type="curve"/>
    </contour>
  </outline>
</glyph>
<glyph name="c.ss12" format="2">
  <advance width="570"/>
  <anchor x="310" y="520" name="top"/>
  <anchor x="310" y="-20" name="bottom"/>
  <outline>
    <contour>
      <point x="520" y="91" type="curve"/>
      <point x="513" y="174" type="line"/>
      <point x="462" y="117"/>
      <point x="408" y="90"/>
      <point x="344" y="90" type="curve" smooth="yes"/>
      <point x="248" y="90"/>
      <point x="194" y="155"/>
      <point x="194" y="255" type="curve" smooth="yes"/>
      <point x="194" y="353"/>
      <point x="244" y="410"/>
      <point x="343" y="410" type="curve" smooth="yes"/>
      <point x="402" y="410"/>
      <point x="446" y="391"/>
      <point x="514" y="337" type="curve"/>
      <point x="521" y="421" type="line"/>
      <point x="468" y="486"/>
      <point x="397" y="520"/>
      <point x="314" y="520" type="curve" smooth="yes"/>
      <point x="146" y="520"/>
      <point x="49" y="411"/>
      <point x="49" y="255" type="curve" smooth="yes"/>
      <point x="49" y="91"/>
      <point x="144" y="-20"/>
      <point x="313" y="-20" type="curve" smooth="yes"/>
      <point x="392" y="-20"/>
      <point x="457" y="15"/>
    </contour>
  </outline>
</glyph>
<glyph name="ccedilla.ss09" format="2">
  <advance width="611"/>
  <anchor x="312" y="520" name="top"/>
  <anchor x="312" y="-218" name="bottom"/>
  <outline>
    <contour>
      <point x="425" y="167" type="line"/>
      <point x="421.987" y="123"/>
      <point x="382.817" y="90"/>
      <point x="323.561" y="90" type="curve" smooth="yes"/>
      <point x="241.204" y="90"/>
      <point x="194" y="146.352"/>
      <point x="194" y="246.981" type="curve" smooth="yes"/>
      <point x="194" y="349.623"/>
      <point x="242.207" y="410"/>
      <point x="322.552" y="410" type="curve" smooth="yes"/>
      <point x="381.806" y="410"/>
      <point x="420.974" y="377.835"/>
      <point x="427" y="333" type="curve"/>
      <point x="562" y="333" type="line"/>
      <point x="542" y="457.667"/>
      <point x="449" y="520"/>
      <point x="316" y="520" type="curve" smooth="yes"/>
      <point x="147" y="520"/>
      <point x="49" y="417"/>
      <point x="49" y="255" type="curve" smooth="yes"/>
      <point x="49" y="85"/>
      <point x="145" y="-20"/>
      <point x="315" y="-20" type="curve" smooth="yes"/>
      <point x="450" y="-20"/>
      <point x="548" y="47"/>
      <point x="560" y="167" type="curve"/>
    </contour>
    <contour>
      <point x="195" y="-205" type="line"/>
      <point x="219" y="-213"/>
      <point x="253" y="-218"/>
      <point x="292" y="-218" type="curve" smooth="yes"/>
      <point x="387" y="-218"/>
      <point x="436" y="-188"/>
      <point x="436" y="-135" type="curve" smooth="yes"/>
      <point x="436" y="-89"/>
      <point x="400" y="-64"/>
      <point x="338" y="-64" type="curve"/>
      <point x="382.665" y="16.2739" type="line"/>
      <point x="296.665" y="16.2739" type="line"/>
      <point x="239" y="-96" type="line"/>
      <point x="255" y="-94"/>
      <point x="268" y="-92"/>
      <point x="282" y="-92" type="curve" smooth="yes"/>
      <point x="316" y="-92"/>
      <point x="336" y="-105"/>
      <point x="336" y="-132" type="curve" smooth="yes"/>
      <point x="336" y="-158"/>
      <point x="316" y="-172"/>
      <point x="283" y="-172" type="curve" smooth="yes"/>
      <point x="263" y="-172"/>
      <point x="235" y="-167"/>
      <point x="215" y="-161" type="curve"/>
    </contour>
  </outline>
</glyph>
<glyph name="ccedilla.ss10" format="2">
  <advance width="585"/>
  <anchor x="316" y="520" name="top"/>
  <anchor x="296" y="-218" name="bottom"/>
  <outline>
    <contour>
      <point x="502" y="201" type="line"/>
      <point x="452" y="122"/>
      <point x="400" y="90"/>
      <point x="324" y="90" type="curve" smooth="yes"/>
      <point x="239" y="90"/>
      <point x="195" y="146"/>
      <point x="195" y="255" type="curve" smooth="yes"/>
      <point x="195" y="355"/>
      <point x="241" y="410"/>
      <point x="324" y="410" type="curve" smooth="yes"/>
      <point x="398" y="410"/>
      <point x="450" y="378"/>
      <point x="502" y="299" type="curve"/>
      <point x="536" y="417" type="line"/>
      <point x="490" y="482"/>
      <point x="412" y="520"/>
      <point x="323" y="520" type="curve" smooth="yes"/>
      <point x="161" y="520"/>
      <point x="49" y="412"/>
      <point x="49" y="255" type="curve" smooth="yes"/>
      <point x="49" y="91"/>
      <point x="159" y="-20"/>
      <point x="323" y="-20" type="curve" smooth="yes"/>
      <point x="412" y="-20"/>
      <point x="490" y="18"/>
      <point x="536" y="83" type="curve"/>
    </contour>
    <contour>
      <point x="179" y="-205" type="line"/>
      <point x="203" y="-213"/>
      <point x="237" y="-218"/>
      <point x="276" y="-218" type="curve" smooth="yes"/>
      <point x="371" y="-218"/>
      <point x="420" y="-188"/>
      <point x="420" y="-135" type="curve" smooth="yes"/>
      <point x="420" y="-89"/>
      <point x="384" y="-64"/>
      <point x="322" y="-64" type="curve"/>
      <point x="366.665" y="16.2739" type="line"/>
      <point x="280.665" y="16.2739" type="line"/>
      <point x="223" y="-96" type="line"/>
      <point x="239" y="-94"/>
      <point x="252" y="-92"/>
      <point x="266" y="-92" type="curve" smooth="yes"/>
      <point x="300" y="-92"/>
      <point x="320" y="-105"/>
      <point x="320" y="-132" type="curve" smooth="yes"/>
      <point x="320" y="-158"/>
      <point x="300" y="-172"/>
      <point x="267" y="-172" type="curve" smooth="yes"/>
      <point x="247" y="-172"/>
      <point x="219" y="-167"/>
      <point x="199" y="-161" type="curve"/>
    </contour>
  </outline>
</glyph>
<glyph name="dollar.ss10" format="2">
  <advance width="580"/>
  <outline>
    <contour>
      <point x="33" y="129.729" type="line"/>
      <point x="96" y="44.553"/>
      <point x="181" y="0.072"/>
      <point x="299" y="0.072" type="curve" smooth="yes"/>
      <point x="447" y="0.072"/>
      <point x="541" y="69.271"/>
      <point x="541" y="202.929" type="curve" smooth="yes"/>
      <point x="541" y="338.832"/>
      <point x="430.287" y="369.191"/>
      <point x="332.866" y="395.906" type="curve" smooth="yes"/>
      <point x="256.331" y="416.893"/>
      <point x="188" y="435.631"/>
      <point x="188" y="501.526" type="curve" smooth="yes"/>
      <point x="188" y="549.871"/>
      <point x="212" y="586.84"/>
      <point x="283" y="586.84" type="curve" smooth="yes"/>
      <point x="348" y="586.84"/>
      <point x="413" y="554.453"/>
      <point x="492" y="440.148" type="curve"/>
      <point x="531" y="570.751" type="line"/>
      <point x="462" y="655.927"/>
      <point x="368" y="700.408"/>
      <point x="266" y="700.408" type="curve" smooth="yes"/>
      <point x="131" y="700.408"/>
      <point x="43" y="622.678"/>
      <point x="43" y="499.447" type="curve" smooth="yes"/>
      <point x="43" y="364.751"/>
      <point x="155.826" y="325.652"/>
      <point x="253.906" y="299.891" type="curve" smooth="yes"/>
      <point x="329.311" y="280.085"/>
      <point x="396" y="262.569"/>
      <point x="396" y="197.058" type="curve" smooth="yes"/>
      <point x="396" y="142.078"/>
      <point x="359" y="113.64"/>
      <point x="287" y="113.64" type="curve" smooth="yes"/>
      <point x="210" y="113.64"/>
      <point x="142" y="146.027"/>
      <point x="72" y="260.332" type="curve"/>
    </contour>
    <contour>
      <point x="265" y="-101" type="line"/>
      <point x="303" y="-101" type="line"/>
      <point x="303" y="780" type="line"/>
      <point x="265" y="780" type="line"/>
    </contour>
  </outline>
</glyph>
<glyph name="e.ss09" format="2">
  <advance width="595"/>
  <anchor x="298" y="520" name="top"/>
  <anchor x="298" y="-20" name="bottom"/>
  <anchor x="417" y="-2" name="ogonek"/>
  <outline>
    <contour>
      <point x="185" y="308" type="curve"/>
      <point x="416" y="308" type="line"/>
      <point x="416" y="367"/>
      <point x="369" y="410"/>
      <point x="305" y="410" type="curve" smooth="yes"/>
      <point x="238" y="410"/>
      <point x="185" y="365"/>
    </contour>
    <contour>
      <point x="308" y="90" type="curve" smooth="yes"/>
      <point x="363" y="90"/>
      <point x="415" y="114"/>
      <point x="419" y="167" type="curve"/>
      <point x="553" y="167" type="line"/>
      <point x="533" y="50"/>
      <point x="446" y="-20"/>
      <point x="308" y="-20" type="curve" smooth="yes"/>
      <point x="143" y="-20"/>
      <point x="38" y="95"/>
      <point x="38" y="255" type="curve" smooth="yes"/>
      <point x="38" y="401"/>
      <point x="134" y="520"/>
      <point x="305" y="520" type="curve" smooth="yes"/>
      <point x="476" y="520"/>
      <point x="558" y="397"/>
      <point x="558" y="221" type="curve"/>
      <point x="185" y="221" type="line"/>
      <point x="185" y="131.315"/>
      <point x="242" y="90"/>
    </contour>
  </outline>
</glyph>
<glyph name="e.ss10" format="2">
  <advance width="585"/>
  <anchor x="297" y="520" name="top"/>
  <anchor x="297" y="-20" name="bottom"/>
  <anchor x="403" y="-3" name="ogonek"/>
  <outline>
    <contour>
      <point x="400" y="311" type="line"/>
      <point x="400" y="355"/>
      <point x="370" y="410"/>
      <point x="295" y="410" type="curve" smooth="yes"/>
      <point x="222" y="410"/>
      <point x="184" y="359"/>
      <point x="184" y="311" type="curve"/>
    </contour>
    <contour>
      <point x="183" y="218" type="line"/>
      <point x="183" y="132"/>
      <point x="239" y="90"/>
      <point x="318" y="90" type="curve" smooth="yes"/>
      <point x="394" y="90"/>
      <point x="446" y="122"/>
      <point x="496" y="201" type="curve"/>
      <point x="530" y="83" type="line"/>
      <point x="484.093" y="18"/>
      <point x="406.252" y="-20"/>
      <point x="303.92" y="-20" type="curve" smooth="yes"/>
      <point x="129.813" y="-20"/>
      <point x="38" y="90"/>
      <point x="38" y="255" type="curve" smooth="yes"/>
      <point x="38" y="410"/>
      <point x="138.802" y="520"/>
      <point x="297.491" y="520" type="curve" smooth="yes"/>
      <point x="455.182" y="520"/>
      <point x="548" y="410"/>
      <point x="548" y="218" type="curve"/>
    </contour>
  </outline>
</glyph>
<glyph name="e.ss12" format="2">
  <advance width="574"/>
  <anchor x="290" y="520" name="top"/>
  <anchor x="290" y="-20" name="bottom"/>
  <anchor x="394" y="-2" name="ogonek"/>
  <outline>
    <contour>
      <point x="180" y="318" type="line"/>
      <point x="180" y="368"/>
      <point x="223" y="409"/>
      <point x="288" y="409" type="curve" smooth="yes"/>
      <point x="350" y="409"/>
      <point x="391" y="369"/>
      <point x="391" y="318" type="curve"/>
    </contour>
    <contour>
      <point x="540" y="236" type="line"/>
      <point x="540" y="416"/>
      <point x="442" y="520"/>
      <point x="290" y="520" type="curve" smooth="yes"/>
      <point x="132" y="520"/>
      <point x="30" y="410"/>
      <point x="30" y="255" type="curve" smooth="yes"/>
      <point x="30" y="93"/>
      <point x="133" y="-20"/>
      <point x="304" y="-20" type="curve" smooth="yes"/>
      <point x="383" y="-20"/>
      <point x="448" y="15"/>
      <point x="511" y="91" type="curve"/>
      <point x="504" y="174" type="line"/>
      <point x="453" y="117"/>
      <point x="399" y="90"/>
      <point x="335" y="90" type="curve" smooth="yes"/>
      <point x="236" y="90"/>
      <point x="177" y="144"/>
      <point x="177" y="236" type="curve"/>
    </contour>
  </outline>
</glyph>
<glyph name="efcyr.ss11" format="2">
  <advance width="844"/>
  <outline>
    <contour>
      <point x="494" y="700" type="line"/>
      <point x="349" y="700" type="line"/>
      <point x="349" y="-200" type="line"/>
      <point x="494" y="-200" type="line"/>
    </contour>
    <contour>
      <point x="324" y="91" type="curve" smooth="yes" name="dv02"/>
      <point x="219" y="91"/>
      <point x="195" y="164"/>
      <point x="195" y="255" type="curve" smooth="yes"/>
      <point x="195" y="359"/>
      <point x="232" y="409"/>
      <point x="307" y="409" type="curve" smooth="yes" name="sv01"/>
      <point x="362" y="409"/>
      <point x="414" y="390"/>
      <point x="445" y="355" type="curve"/>
      <point x="488" y="465" type="line"/>
      <point x="440" y="501"/>
      <point x="377" y="520"/>
      <point x="303" y="520" type="curve" smooth="yes" name="at01"/>
      <point x="141" y="520"/>
      <point x="49" y="416"/>
      <point x="49" y="255" type="curve" smooth="yes"/>
      <point x="49" y="84"/>
      <point x="141" y="-20"/>
      <point x="302" y="-20" type="curve" smooth="yes" name="dv01"/>
      <point x="378" y="-20"/>
      <point x="439" y="-4"/>
      <point x="486" y="27" type="curve"/>
      <point x="453" y="145" type="line"/>
      <point x="424" y="112"/>
      <point x="380" y="91"/>
    </contour>
    <contour>
      <point x="520" y="91" type="curve" smooth="yes" name="dv02"/>
      <point x="464" y="91"/>
      <point x="420" y="112"/>
      <point x="391" y="145" type="curve"/>
      <point x="355" y="30" type="line"/>
      <point x="402" y="-3"/>
      <point x="465" y="-20"/>
      <point x="542" y="-20" type="curve" smooth="yes" name="dv01"/>
      <point x="703" y="-20"/>
      <point x="795" y="84"/>
      <point x="795" y="255" type="curve" smooth="yes"/>
      <point x="795" y="416"/>
      <point x="703" y="520"/>
      <point x="541" y="520" type="curve" smooth="yes" name="at01"/>
      <point x="467" y="520"/>
      <point x="403" y="501"/>
      <point x="355" y="465" type="curve"/>
      <point x="399" y="355" type="line"/>
      <point x="430" y="390"/>
      <point x="482" y="409"/>
      <point x="537" y="409" type="curve" smooth="yes" name="sv01"/>
      <point x="612" y="409"/>
      <point x="649" y="359"/>
      <point x="649" y="255" type="curve" smooth="yes"/>
      <point x="649" y="164"/>
      <point x="625" y="91"/>
    </contour>
  </outline>
</glyph>
<glyph name="elcyr.ss08" format="2">
  <advance width="550"/>
  <outline>
    <contour>
      <point x="15" y="0" type="line"/>
      <point x="169" y="0" type="line"/>
      <point x="275" y="321" type="line"/>
      <point x="381" y="0" type="line"/>
      <point x="535" y="0" type="line"/>
      <point x="343" y="500" type="line"/>
      <point x="207" y="500" type="line"/>
    </contour>
  </outline>
</glyph>
<glyph name="epsilon.ss12" format="2">
  <advance width="500"/>
  <anchor x="250" y="519" name="topgr"/>
  <outline>
    <contour>
      <point x="451" y="163" type="line"/>
      <point x="371" y="109"/>
      <point x="323" y="90"/>
      <point x="265" y="90" type="curve" smooth="yes"/>
      <point x="209" y="90"/>
      <point x="180" y="108"/>
      <point x="180" y="149" type="curve" smooth="yes"/>
      <point x="180" y="196"/>
      <point x="218" y="212"/>
      <point x="383" y="212" type="curve"/>
      <point x="383" y="297" type="line"/>
      <point x="241" y="297"/>
      <point x="199" y="314"/>
      <point x="199" y="358" type="curve" smooth="yes"/>
      <point x="199" y="392"/>
      <point x="225" y="410"/>
      <point x="274" y="410" type="curve" smooth="yes"/>
      <point x="325" y="410"/>
      <point x="371" y="391"/>
      <point x="451" y="337" type="curve"/>
      <point x="458" y="421" type="line"/>
      <point x="400" y="486"/>
      <point x="336" y="520"/>
      <point x="244" y="520" type="curve" smooth="yes"/>
      <point x="131" y="520"/>
      <point x="58" y="469"/>
      <point x="58" y="378" type="curve" smooth="yes"/>
      <point x="58" y="306"/>
      <point x="103" y="270"/>
      <point x="220" y="260" type="curve"/>
      <point x="95" y="261"/>
      <point x="39" y="220"/>
      <point x="39" y="141" type="curve" smooth="yes"/>
      <point x="39" y="41"/>
      <point x="130" y="-20"/>
      <point x="249" y="-20" type="curve" smooth="yes"/>
      <point x="338" y="-20"/>
      <point x="401" y="14"/>
      <point x="458" y="79" type="curve"/>
    </contour>
  </outline>
</glyph>
<glyph name="ereversedcyr.ss10" format="2">
  <advance width="585"/>
  <anchor x="293" y="520" name="top"/>
  <anchor x="293" y="-20" name="bottom"/>
  <outline>
    <contour>
      <point x="49" y="83" type="line"/>
      <point x="95" y="18"/>
      <point x="173" y="-20"/>
      <point x="262" y="-20" type="curve" smooth="yes"/>
      <point x="426" y="-20"/>
      <point x="536" y="91"/>
      <point x="536" y="255" type="curve" smooth="yes"/>
      <point x="536" y="412"/>
      <point x="424" y="520"/>
      <point x="262" y="520" type="curve" smooth="yes"/>
      <point x="173" y="520"/>
      <point x="95" y="482"/>
      <point x="49" y="417" type="curve"/>
      <point x="83" y="299" type="line"/>
      <point x="135" y="378"/>
      <point x="187" y="410"/>
      <point x="261" y="410" type="curve" smooth="yes"/>
      <point x="344" y="410"/>
      <point x="390" y="355"/>
      <point x="390" y="255" type="curve" smooth="yes"/>
      <point x="390" y="146"/>
      <point x="346" y="90"/>
      <point x="261" y="90" type="curve" smooth="yes"/>
      <point x="185" y="90"/>
      <point x="133" y="122"/>
      <point x="83" y="201" type="curve"/>
    </contour>
    <contour>
      <point x="194" y="210" type="line"/>
      <point x="468" y="210" type="line"/>
      <point x="468" y="295" type="line"/>
      <point x="194" y="295" type="line"/>
    </contour>
  </outline>
</glyph>
<glyph name="exclamdown.case" format="2">
  <advance width="258"/>
  <outline>
    <contour>
      <point x="53" y="-49" type="line"/>
      <point x="204" y="-49" type="line"/>
      <point x="188" y="452" type="line"/>
      <point x="69" y="452" type="line"/>
    </contour>
    <contour>
      <point x="58.076" y="649.178" type="curve" smooth="yes"/>
      <point x="58.076" y="609.676"/>
      <point x="88.6" y="579.151"/>
      <point x="129" y="579.151" type="curve" smooth="yes"/>
      <point x="170.298" y="579.151"/>
      <point x="199.924" y="609.676"/>
      <point x="199.924" y="649.178" type="curve" smooth="yes"/>
      <point x="199.924" y="688.68"/>
      <point x="170.298" y="721"/>
      <point x="129" y="721" type="curve" smooth="yes"/>
      <point x="88.6" y="721"/>
      <point x="58.076" y="688.68"/>
    </contour>
  </outline>
</glyph>
<glyph name="f.ss11" format="2">
  <advance width="413"/>
  <anchor x="240" y="750" name="top"/>
  <anchor x="173" y="-20" name="bottom"/>
  <outline>
    <contour>
      <point x="99" y="0" type="line"/>
      <point x="244" y="0" type="line"/>
      <point x="244" y="390" type="line"/>
      <point x="390" y="390" type="line"/>
      <point x="390" y="500" type="line"/>
      <point x="244" y="500" type="line"/>
      <point x="244" y="549.45" type="line" smooth="yes"/>
      <point x="244" y="588.807"/>
      <point x="268" y="610"/>
      <point x="309" y="610" type="curve" smooth="yes"/>
      <point x="324" y="610"/>
      <point x="345" y="605.636"/>
      <point x="386" y="598" type="curve"/>
      <point x="386" y="707" type="line"/>
      <point x="339" y="716"/>
      <point x="315" y="720"/>
      <point x="267" y="720" type="curve" smooth="yes"/>
      <point x="159" y="720"/>
      <point x="99" y="669"/>
      <point x="99" y="577" type="curve" smooth="yes"/>
      <point x="99" y="500" type="line"/>
      <point x="12" y="500" type="line"/>
      <point x="12" y="390" type="line"/>
      <point x="99" y="390" type="line"/>
    </contour>
  </outline>
</glyph>
<glyph name="fi.ss11" format="2">
  <advance width="753"/>
  <outline>
    <contour>
      <point x="99" y="0" type="line"/>
      <point x="244" y="0" type="line"/>
      <point x="244" y="390" type="line"/>
      <point x="390" y="390" type="line"/>
      <point x="390" y="500" type="line"/>
      <point x="244" y="500" type="line"/>
      <point x="244" y="549.45" type="line" smooth="yes"/>
      <point x="244" y="588.807"/>
      <point x="268" y="610"/>
      <point x="309" y="610" type="curve" smooth="yes"/>
      <point x="324" y="610"/>
      <point x="345" y="605.636"/>
      <point x="386" y="598" type="curve"/>
      <point x="386" y="707" type="line"/>
      <point x="339" y="716"/>
      <point x="315" y="720"/>
      <point x="267" y="720" type="curve" smooth="yes"/>
      <point x="159" y="720"/>
      <point x="99" y="669"/>
      <point x="99" y="577" type="curve" smooth="yes"/>
      <point x="99" y="500" type="line"/>
      <point x="12" y="500" type="line"/>
      <point x="12" y="390" type="line"/>
      <point x="99" y="390" type="line"/>
    </contour>
    <contour>
      <point x="496" y="0" type="line" name="ab01"/>
      <point x="641" y="0" type="line"/>
      <point x="641" y="500" type="line"/>
      <point x="496" y="500" type="line" name="av01"/>
    </contour>
    <contour>
      <point x="371" y="390" type="line"/>
      <point x="736" y="390" type="line"/>
      <point x="736" y="500" type="line"/>
      <point x="371" y="500" type="line"/>
    </contour>
    <contour>
      <point x="401" y="0" type="line"/>
      <point x="736" y="0" type="line"/>
      <point x="736" y="110" type="line"/>
      <point x="401" y="110" type="line"/>
    </contour>
    <contour>
      <point x="493" y="634" type="curve" smooth="yes"/>
      <point x="493" y="600"/>
      <point x="519" y="560"/>
      <point x="570" y="560" type="curve" smooth="yes" name="dv01"/>
      <point x="621" y="560"/>
      <point x="644" y="598"/>
      <point x="644" y="635" type="curve" smooth="yes"/>
      <point x="644" y="672"/>
      <point x="619" y="706"/>
      <point x="571" y="706" type="curve" smooth="yes" name="dv02"/>
      <point x="519" y="706"/>
      <point x="493" y="668"/>
    </contour>
  </outline>
</glyph>
<glyph name="five.osf" format="2">
  <advance width="615"/>
  <outline>
    <contour>
      <point x="227" y="430" type="line"/>
      <point x="538" y="430" type="line"/>
      <point x="538" y="550" type="line"/>
      <point x="118" y="550" type="line"/>
      <point x="51.4086" y="115.892" type="line"/>
      <point x="136.521" y="170.892"/>
      <point x="221.231" y="195"/>
      <point x="303.34" y="195" type="curve" smooth="yes"/>
      <point x="379.44" y="195"/>
      <point x="424.5" y="155"/>
      <point x="424.5" y="82" type="curve" smooth="yes"/>
      <point x="424.5" y="1"/>
      <point x="368.41" y="-50"/>
      <point x="280.269" y="-50" type="curve" smooth="yes"/>
      <point x="213.162" y="-50"/>
      <point x="156.071" y="-20"/>
      <point x="112" y="37" type="curve"/>
      <point x="27" y="-48" type="line"/>
      <point x="105.927" y="-136"/>
      <point x="186.853" y="-170"/>
      <point x="287.76" y="-170" type="curve" smooth="yes"/>
      <point x="457.603" y="-170"/>
      <point x="569.5" y="-74.5983"/>
      <point x="569.5" y="82.0613" type="curve" smooth="yes"/>
      <point x="569.5" y="220.645"/>
      <point x="482.618" y="305"/>
      <point x="341.81" y="305" type="curve" smooth="yes"/>
      <point x="281.891" y="305"/>
      <point x="237.951" y="289.118"/>
      <point x="202" y="269" type="curve"/>
    </contour>
  </outline>
</glyph>
<glyph name="five.ss09.osf" format="2">
  <advance width="594"/>
  <outline>
    <contour>
      <point x="288" y="-48" type="curve" smooth="yes"/>
      <point x="221" y="-48"/>
      <point x="182" y="-17"/>
      <point x="170" y="50" type="curve"/>
      <point x="27" y="50" type="line"/>
      <point x="52" y="-91"/>
      <point x="152" y="-168"/>
      <point x="301" y="-168" type="curve" smooth="yes"/>
      <point x="464" y="-168"/>
      <point x="564" y="-76"/>
      <point x="564" y="76" type="curve" smooth="yes"/>
      <point x="564" y="218"/>
      <point x="476" y="308"/>
      <point x="341" y="308" type="curve" smooth="yes"/>
      <point x="269" y="308"/>
      <point x="231" y="282"/>
      <point x="205" y="260" type="curve"/>
      <point x="232" y="432" type="line"/>
      <point x="497" y="432" type="line"/>
      <point x="514" y="552" type="line"/>
      <point x="101" y="552" type="line"/>
      <point x="42" y="136" type="line"/>
      <point x="187" y="136" type="line"/>
      <point x="208" y="180"/>
      <point x="249" y="205"/>
      <point x="306" y="205" type="curve" smooth="yes"/>
      <point x="381" y="205"/>
      <point x="418" y="163"/>
      <point x="418" y="87" type="curve" smooth="yes"/>
      <point x="418" y="7"/>
      <point x="378" y="-48"/>
    </contour>
  </outline>
</glyph>
<glyph name="g.ss03" format="2">
  <advance width="590"/>
  <anchor x="295" y="520" name="top"/>
  <anchor x="295" y="-220" name="bottom"/>
  <outline>
    <contour>
      <point x="59" y="318" type="curve" smooth="yes"/>
      <point x="59" y="202"/>
      <point x="156" y="124"/>
      <point x="292" y="124" type="curve" smooth="yes" name="dv05"/>
      <point x="432" y="124"/>
      <point x="531" y="206"/>
      <point x="531" y="322" type="curve" smooth="yes" name="sv14"/>
      <point x="531" y="437"/>
      <point x="433" y="520"/>
      <point x="296" y="520" type="curve" smooth="yes" name="at01"/>
      <point x="157" y="520"/>
      <point x="59" y="435"/>
    </contour>
    <contour>
      <point x="293" y="234" type="curve" smooth="yes" name="dv06"/>
      <point x="237" y="234"/>
      <point x="204" y="262"/>
      <point x="204" y="319" type="curve" smooth="yes" name="sv09"/>
      <point x="204" y="376"/>
      <point x="238" y="410"/>
      <point x="295" y="410" type="curve" smooth="yes" name="sv01"/>
      <point x="352" y="410"/>
      <point x="386" y="377"/>
      <point x="386" y="322" type="curve" smooth="yes" name="sv13"/>
      <point x="386" y="268"/>
      <point x="354" y="234"/>
    </contour>
    <contour>
      <point x="46" y="-33" type="line" name="sv12"/>
      <point x="53" y="-166"/>
      <point x="150" y="-220"/>
      <point x="309" y="-220" type="curve" smooth="yes" name="dv01"/>
      <point x="468" y="-220"/>
      <point x="554" y="-166"/>
      <point x="554" y="-60" type="curve" smooth="yes" name="sv08"/>
      <point x="554" y="37"/>
      <point x="482" y="84"/>
      <point x="300" y="84" type="curve" smooth="yes" name="sv05"/>
      <point x="197" y="84"/>
      <point x="152" y="99"/>
      <point x="152" y="136" type="curve" smooth="yes" name="sv06"/>
      <point x="152" y="160"/>
      <point x="170" y="176"/>
      <point x="195" y="191" type="curve" name="sv10"/>
      <point x="194" y="247" type="line" name="sv11"/>
      <point x="96" y="221"/>
      <point x="42" y="177"/>
      <point x="42" y="104" type="curve" smooth="yes"/>
      <point x="42" y="30"/>
      <point x="96" y="-11"/>
      <point x="270" y="-11" type="curve" smooth="yes" name="ab01"/>
      <point x="376" y="-11"/>
      <point x="414" y="-26"/>
      <point x="414" y="-63" type="curve" smooth="yes" name="sv07"/>
      <point x="414" y="-97"/>
      <point x="381" y="-110"/>
      <point x="310" y="-110" type="curve" smooth="yes" name="dv02"/>
      <point x="223" y="-110"/>
      <point x="193" y="-90"/>
      <point x="188" y="-33" type="curve" name="sv04"/>
    </contour>
    <contour>
      <point x="431" y="432" type="line" name="sv03"/>
      <point x="436" y="480"/>
      <point x="470" y="515"/>
      <point x="483" y="526" type="curve" name="at02"/>
      <point x="481" y="497"/>
      <point x="509" y="472"/>
      <point x="543" y="472" type="curve" smooth="yes" name="dv03"/>
      <point x="577" y="472"/>
      <point x="599" y="496"/>
      <point x="599" y="534" type="curve" smooth="yes"/>
      <point x="599" y="578"/>
      <point x="570" y="599"/>
      <point x="534" y="599" type="curve" smooth="yes" name="dv04"/>
      <point x="468" y="599"/>
      <point x="414" y="531"/>
      <point x="404" y="435" type="curve" name="sv02"/>
    </contour>
  </outline>
</glyph>
<glyph name="g.ss09" format="2">
  <advance width="558"/>
  <anchor x="273" y="520" name="top"/>
  <anchor x="273" y="-220" name="bottom"/>
  <outline>
    <contour>
      <point x="37" y="318" type="curve" smooth="yes"/>
      <point x="37" y="202"/>
      <point x="134.822" y="124"/>
      <point x="271.975" y="124" type="curve" smooth="yes" name="dv05"/>
      <point x="413.161" y="124"/>
      <point x="513" y="206"/>
      <point x="513" y="322" type="curve" smooth="yes" name="sv14"/>
      <point x="513" y="437"/>
      <point x="414.169" y="520"/>
      <point x="276.008" y="520" type="curve" smooth="yes" name="at01"/>
      <point x="135.831" y="520"/>
      <point x="37" y="435"/>
    </contour>
    <contour>
      <point x="272.956" y="234" type="curve" smooth="yes" name="dv06"/>
      <point x="215.725" y="234"/>
      <point x="182" y="262"/>
      <point x="182" y="319" type="curve" smooth="yes" name="sv09"/>
      <point x="182" y="376"/>
      <point x="216.747" y="410"/>
      <point x="275" y="410" type="curve" smooth="yes" name="sv01"/>
      <point x="333.253" y="410"/>
      <point x="368" y="377"/>
      <point x="368" y="322" type="curve" smooth="yes" name="sv13"/>
      <point x="368" y="268"/>
      <point x="335.297" y="234"/>
    </contour>
    <contour>
      <point x="24" y="-33" type="line" name="sv12"/>
      <point x="31.055" y="-166"/>
      <point x="128.819" y="-220"/>
      <point x="289.071" y="-220" type="curve" smooth="yes" name="dv01"/>
      <point x="449.323" y="-220"/>
      <point x="536" y="-166"/>
      <point x="536" y="-60" type="curve" smooth="yes" name="sv08"/>
      <point x="536" y="37"/>
      <point x="463.284" y="84"/>
      <point x="279.473" y="84" type="curve" smooth="yes" name="sv05"/>
      <point x="175.448" y="84"/>
      <point x="130" y="99"/>
      <point x="130" y="136" type="curve" smooth="yes" name="sv06"/>
      <point x="130" y="160"/>
      <point x="148" y="176"/>
      <point x="173" y="191" type="curve" name="sv10"/>
      <point x="172" y="247" type="line" name="sv11"/>
      <point x="74" y="221"/>
      <point x="20" y="177"/>
      <point x="20" y="104" type="curve" smooth="yes"/>
      <point x="20" y="30"/>
      <point x="74.581" y="-11"/>
      <point x="250.452" y="-11" type="curve" smooth="yes" name="ab01"/>
      <point x="357.591" y="-11"/>
      <point x="396" y="-26"/>
      <point x="396" y="-63" type="curve" smooth="yes" name="sv07"/>
      <point x="396" y="-97"/>
      <point x="362.416" y="-110"/>
      <point x="290.159" y="-110" type="curve" smooth="yes" name="dv02"/>
      <point x="201.619" y="-110"/>
      <point x="171.088" y="-90"/>
      <point x="166" y="-33" type="curve" name="sv04"/>
    </contour>
    <contour>
      <point x="399" y="432" type="line" name="sv03"/>
      <point x="404" y="480"/>
      <point x="438" y="515"/>
      <point x="451" y="526" type="curve" name="at02"/>
      <point x="449" y="497"/>
      <point x="477" y="472"/>
      <point x="511" y="472" type="curve" smooth="yes" name="dv03"/>
      <point x="545" y="472"/>
      <point x="567" y="496"/>
      <point x="567" y="534" type="curve" smooth="yes"/>
      <point x="567" y="578"/>
      <point x="538" y="599"/>
      <point x="502" y="599" type="curve" smooth="yes" name="dv04"/>
      <point x="436" y="599"/>
      <point x="382" y="531"/>
      <point x="372" y="435" type="curve" name="sv02"/>
    </contour>
  </outline>
</glyph>
<glyph name="hryvnia.ss10" format="2">
  <advance width="709"/>
  <outline>
    <contour>
      <point x="123.96" y="290" type="line"/>
      <point x="109.54" y="265.05"/>
      <point x="101" y="233.82"/>
      <point x="101" y="194" type="curve" smooth="yes"/>
      <point x="101" y="53"/>
      <point x="195" y="-20"/>
      <point x="343" y="-20" type="curve" smooth="yes"/>
      <point x="461" y="-20"/>
      <point x="546" y="27"/>
      <point x="609" y="117" type="curve"/>
      <point x="570" y="255" type="line"/>
      <point x="500" y="135"/>
      <point x="432" y="101"/>
      <point x="355" y="101" type="curve" smooth="yes"/>
      <point x="283" y="101"/>
      <point x="246" y="131"/>
      <point x="246" y="189" type="curve" smooth="yes"/>
      <point x="246" y="249.84"/>
      <point x="297.69" y="271.44"/>
      <point x="361.51" y="290" type="curve"/>
      <point x="688" y="290" type="line"/>
      <point x="688" y="324" type="line"/>
      <point x="21" y="324" type="line"/>
      <point x="21" y="290" type="line"/>
    </contour>
    <contour>
      <point x="21" y="372" type="line"/>
      <point x="688" y="372" type="line"/>
      <point x="688" y="406" type="line"/>
      <point x="575.2" y="406" type="line"/>
      <point x="590.13" y="432.21"/>
      <point x="599" y="465.35"/>
      <point x="599" y="508" type="curve" smooth="yes"/>
      <point x="599" y="638"/>
      <point x="511" y="720"/>
      <point x="376" y="720" type="curve" smooth="yes"/>
      <point x="274" y="720"/>
      <point x="180" y="673"/>
      <point x="111" y="583" type="curve"/>
      <point x="150" y="445" type="line"/>
      <point x="229" y="565"/>
      <point x="294" y="599"/>
      <point x="359" y="599" type="curve" smooth="yes"/>
      <point x="430" y="599"/>
      <point x="454" y="560"/>
      <point x="454" y="509" type="curve" smooth="yes"/>
      <point x="454" y="448.3"/>
      <point x="401.91" y="425.53"/>
      <point x="337.75" y="406" type="curve"/>
      <point x="21" y="406" type="line"/>
    </contour>
  </outline>
</glyph>
<glyph name="k.ss11" format="2">
  <advance width="582"/>
  <anchor x="286" y="-20" name="bottom"/>
  <anchor x="136" y="750" name="top"/>
  <outline>
    <contour>
      <point x="62" y="0" type="line" name="av01"/>
      <point x="207" y="0" type="line"/>
      <point x="207" y="700" type="line" name="av02"/>
      <point x="62" y="700" type="line"/>
    </contour>
    <contour>
      <point x="104" y="253" type="line"/>
      <point x="311" y="253" type="line" name="iv01"/>
      <point x="403" y="0" type="line" name="ab02"/>
      <point x="565" y="0" type="line"/>
      <point x="427" y="283" type="line"/>
      <point x="552" y="500" type="line" name="av02"/>
      <point x="412" y="500" type="line"/>
      <point x="330" y="358" type="line" name="iv02"/>
      <point x="103" y="358" type="line"/>
    </contour>
  </outline>
</glyph>
<glyph name="lslash.ss11" format="2">
  <advance width="272"/>
  <outline>
    <contour>
      <point x="63" y="0" type="line" name="av01"/>
      <point x="208" y="0" type="line"/>
      <point x="208" y="700" type="line" name="av02"/>
      <point x="63" y="700" type="line"/>
    </contour>
    <contour>
      <point x="13" y="237" type="line"/>
      <point x="259" y="409" type="line"/>
      <point x="259" y="505" type="line"/>
      <point x="13" y="333" type="line"/>
    </contour>
  </outline>
</glyph>
<glyph name="nine.osf" format="2">
  <advance width="631"/>
  <outline>
    <contour>
      <point x="53.145" y="-85" type="line"/>
      <point x="101.145" y="-133"/>
      <point x="192" y="-168"/>
      <point x="287" y="-168" type="curve" smooth="yes"/>
      <point x="483" y="-168"/>
      <point x="599" y="-29"/>
      <point x="599" y="222" type="curve" smooth="yes"/>
      <point x="599" y="452"/>
      <point x="497" y="572"/>
      <point x="311" y="572" type="curve" smooth="yes"/>
      <point x="137" y="572"/>
      <point x="28" y="466.222"/>
      <point x="28" y="316.536" type="curve" smooth="yes"/>
      <point x="28" y="178.824"/>
      <point x="125" y="95"/>
      <point x="270" y="95" type="curve" smooth="yes"/>
      <point x="361.044" y="95"/>
      <point x="446.46" y="137.147"/>
      <point x="476.805" y="197.044" type="curve"/>
      <point x="465.495" y="211.087" type="line"/>
      <point x="473.438" y="42.94"/>
      <point x="391.596" y="-48"/>
      <point x="287.215" y="-48" type="curve" smooth="yes"/>
      <point x="229.145" y="-48"/>
      <point x="178.145" y="-29"/>
      <point x="141.145" y="3" type="curve"/>
    </contour>
    <contour>
      <point x="173" y="325" type="curve" smooth="yes"/>
      <point x="173" y="403"/>
      <point x="222" y="452"/>
      <point x="311" y="452" type="curve" smooth="yes"/>
      <point x="392" y="452"/>
      <point x="441" y="412"/>
      <point x="441" y="334" type="curve" smooth="yes"/>
      <point x="441" y="253"/>
      <point x="389" y="205"/>
      <point x="302" y="205" type="curve" smooth="yes"/>
      <point x="221" y="205"/>
      <point x="173" y="247"/>
    </contour>
  </outline>
</glyph>
<glyph name="nine.osf.ss10" format="2">
  <advance width="667"/>
  <outline>
    <contour>
      <point x="193" y="324" type="curve" smooth="yes"/>
      <point x="193" y="245"/>
      <point x="241" y="200"/>
      <point x="321" y="200" type="curve" smooth="yes"/>
      <point x="409" y="200"/>
      <point x="468" y="254"/>
      <point x="468" y="336" type="curve" smooth="yes"/>
      <point x="468" y="410"/>
      <point x="419" y="452"/>
      <point x="333" y="452" type="curve" smooth="yes"/>
      <point x="242" y="452"/>
      <point x="193" y="404"/>
    </contour>
    <contour>
      <point x="82" y="107" type="line"/>
      <point x="165" y="-13"/>
      <point x="233" y="-47"/>
      <point x="318" y="-47" type="curve" smooth="yes"/>
      <point x="444.175" y="-47"/>
      <point x="514.895" y="26.9412"/>
      <point x="508.614" y="214.509" type="curve"/>
      <point x="516.766" y="203.93" type="line"/>
      <point x="473.37" y="134.093"/>
      <point x="411.422" y="89"/>
      <point x="301" y="89" type="curve" smooth="yes"/>
      <point x="141" y="89"/>
      <point x="47" y="183"/>
      <point x="47" y="324" type="curve" smooth="yes"/>
      <point x="47" y="466"/>
      <point x="143" y="572"/>
      <point x="324" y="572" type="curve" smooth="yes"/>
      <point x="521" y="572"/>
      <point x="624" y="446"/>
      <point x="624" y="210" type="curve" smooth="yes"/>
      <point x="624" y="-31"/>
      <point x="517" y="-168"/>
      <point x="322" y="-168" type="curve" smooth="yes"/>
      <point x="208" y="-168"/>
      <point x="113" y="-121"/>
      <point x="43" y="-31" type="curve"/>
    </contour>
  </outline>
</glyph>
<glyph name="nine.ss10.osf" format="2">
  <advance width="667"/>
  <outline>
    <contour>
      <point x="193" y="324" type="curve" smooth="yes"/>
      <point x="193" y="245"/>
      <point x="241" y="200"/>
      <point x="321" y="200" type="curve" smooth="yes"/>
      <point x="409" y="200"/>
      <point x="468" y="254"/>
      <point x="468" y="336" type="curve" smooth="yes"/>
      <point x="468" y="410"/>
      <point x="419" y="452"/>
      <point x="333" y="452" type="curve" smooth="yes"/>
      <point x="242" y="452"/>
      <point x="193" y="404"/>
    </contour>
    <contour>
      <point x="318" y="-47" type="curve" smooth="yes"/>
      <point x="439" y="-47"/>
      <point x="509" y="21"/>
      <point x="509" y="192" type="curve"/>
      <point x="466" y="129"/>
      <point x="405" y="89"/>
      <point x="301" y="89" type="curve" smooth="yes"/>
      <point x="141" y="89"/>
      <point x="47" y="183"/>
      <point x="47" y="324" type="curve" smooth="yes"/>
      <point x="47" y="466"/>
      <point x="143" y="572"/>
      <point x="324" y="572" type="curve" smooth="yes"/>
      <point x="521" y="572"/>
      <point x="624" y="446"/>
      <point x="624" y="210" type="curve" smooth="yes"/>
      <point x="624" y="-31"/>
      <point x="517" y="-168"/>
      <point x="322" y="-168" type="curve" smooth="yes"/>
      <point x="208" y="-168"/>
      <point x="113" y="-121"/>
      <point x="43" y="-31" type="curve"/>
      <point x="82" y="107" type="line"/>
      <point x="165" y="-13"/>
      <point x="233" y="-47"/>
    </contour>
  </outline>
</glyph>
<glyph name="oe.ss10" format="2">
  <advance width="944"/>
  <outline>
    <contour>
      <point x="295.76" y="-20" type="curve" smooth="yes" name="dv01"/>
      <point x="464.54" y="-20"/>
      <point x="546.99" y="84"/>
      <point x="546.99" y="255" type="curve" smooth="yes"/>
      <point x="546.99" y="416"/>
      <point x="463.57" y="520"/>
      <point x="295.76" y="520" type="curve" smooth="yes" name="at01"/>
      <point x="138.62" y="520"/>
      <point x="44.53" y="416"/>
      <point x="44.53" y="255" type="curve" smooth="yes"/>
      <point x="44.53" y="84"/>
      <point x="139.59" y="-20"/>
    </contour>
    <contour>
      <point x="295.76" y="90" type="curve" smooth="yes" name="dv02"/>
      <point x="225.92" y="90"/>
      <point x="188.09" y="146.352"/>
      <point x="188.09" y="255.031" type="curve" smooth="yes"/>
      <point x="188.09" y="359.686"/>
      <point x="223.01" y="410"/>
      <point x="295.76" y="410" type="curve" smooth="yes" name="sv01"/>
      <point x="369.48" y="410"/>
      <point x="403.43" y="357.673"/>
      <point x="403.43" y="253.019" type="curve" smooth="yes"/>
      <point x="403.43" y="145.346"/>
      <point x="372.39" y="90"/>
    </contour>
    <contour>
      <point x="548.48" y="311" type="line"/>
      <point x="548.48" y="359"/>
      <point x="585.34" y="410"/>
      <point x="656.15" y="410" type="curve" smooth="yes"/>
      <point x="728.9" y="410"/>
      <point x="758" y="355"/>
      <point x="758" y="311" type="curve"/>
    </contour>
    <contour>
      <point x="851.12" y="201" type="line"/>
      <point x="802.62" y="122"/>
      <point x="752.18" y="90"/>
      <point x="678.46" y="90" type="curve" smooth="yes"/>
      <point x="601.83" y="90"/>
      <point x="547.51" y="132"/>
      <point x="547.51" y="218" type="curve"/>
      <point x="901.56" y="218" type="line"/>
      <point x="911.56" y="410"/>
      <point x="811.527" y="520"/>
      <point x="658.566" y="520" type="curve" smooth="yes"/>
      <point x="504.638" y="520"/>
      <point x="406.86" y="410"/>
      <point x="406.86" y="255" type="curve" smooth="yes"/>
      <point x="406.86" y="90"/>
      <point x="495.919" y="-20"/>
      <point x="664.802" y="-20" type="curve" smooth="yes"/>
      <point x="764.064" y="-20"/>
      <point x="839.57" y="18"/>
      <point x="884.1" y="83" type="curve"/>
    </contour>
  </outline>
</glyph>
<glyph name="one.osf" format="2">
  <advance width="610"/>
  <outline>
    <contour>
      <point x="274" y="0" type="line"/>
      <point x="420" y="0" type="line"/>
      <point x="420" y="548" type="line"/>
      <point x="297" y="548" type="line"/>
      <point x="240" y="456"/>
      <point x="166" y="383"/>
      <point x="60" y="363" type="curve"/>
      <point x="60" y="248" type="line"/>
      <point x="188" y="279"/>
      <point x="222" y="309"/>
      <point x="274" y="363" type="curve"/>
    </contour>
    <contour>
      <point x="50" y="0" type="line"/>
      <point x="560.111" y="0" type="line"/>
      <point x="560.111" y="120" type="line"/>
      <point x="50" y="120" type="line"/>
    </contour>
  </outline>
</glyph>
<glyph name="one.ss09" format="2">
  <advance width="514"/>
  <outline>
    <contour>
      <point x="203.5" y="0" type="line"/>
      <point x="348" y="0" type="line"/>
      <point x="348" y="700" type="line"/>
      <point x="210" y="700" type="line"/>
      <point x="210" y="615.4"/>
      <point x="149.187" y="559"/>
      <point x="39.5" y="559" type="curve"/>
      <point x="39.5" y="439" type="line"/>
      <point x="99.129" y="439"/>
      <point x="203" y="479.389"/>
      <point x="203" y="547" type="curve"/>
    </contour>
    <contour>
      <point x="36" y="0" type="line"/>
      <point x="488" y="0" type="line"/>
      <point x="488" y="120" type="line"/>
      <point x="36" y="120" type="line"/>
    </contour>
  </outline>
</glyph>
<glyph name="one.ss09.osf" format="2">
  <advance width="544"/>
  <outline>
    <contour>
      <point x="220" y="548" type="line"/>
      <point x="220" y="463.4"/>
      <point x="159.187" y="407"/>
      <point x="49.5" y="407" type="curve"/>
      <point x="49.5" y="287" type="line"/>
      <point x="109.129" y="287"/>
      <point x="213" y="327.389"/>
      <point x="213" y="395" type="curve"/>
      <point x="213.5" y="0" type="line"/>
      <point x="358" y="0" type="line"/>
      <point x="358" y="548" type="line"/>
    </contour>
    <contour>
      <point x="46" y="0" type="line"/>
      <point x="498" y="0" type="line"/>
      <point x="498" y="120" type="line"/>
      <point x="46" y="120" type="line"/>
    </contour>
  </outline>
</glyph>
<glyph name="ruble.osf" format="2">
  <advance width="700"/>
  <outline>
    <contour>
      <point x="45" y="92" type="line"/>
      <point x="500" y="92" type="line"/>
      <point x="500" y="142" type="line"/>
      <point x="45" y="142" type="line"/>
    </contour>
    <contour>
      <point x="155" y="0" type="line"/>
      <point x="300" y="0" type="line"/>
      <point x="300" y="430" type="line"/>
      <point x="408" y="430" type="line" smooth="yes"/>
      <point x="462" y="430"/>
      <point x="486" y="409"/>
      <point x="486" y="373" type="curve" smooth="yes"/>
      <point x="486" y="339"/>
      <point x="462" y="318"/>
      <point x="408" y="318" type="curve" smooth="yes"/>
      <point x="45" y="318" type="line"/>
      <point x="45" y="208" type="line"/>
      <point x="437" y="208" type="line" smooth="yes"/>
      <point x="558" y="208"/>
      <point x="631" y="268"/>
      <point x="631" y="369" type="curve" smooth="yes"/>
      <point x="631" y="474"/>
      <point x="557" y="540"/>
      <point x="438" y="540" type="curve" smooth="yes"/>
      <point x="155" y="540" type="line"/>
    </contour>
  </outline>
</glyph>
<glyph name="s.ss10" format="2">
  <advance width="502"/>
  <anchor x="243" y="520" name="top"/>
  <anchor x="255" y="-20" name="bottom"/>
  <outline>
    <contour>
      <point x="31" y="83" type="line"/>
      <point x="89" y="1"/>
      <point x="173" y="-20"/>
      <point x="256" y="-20" type="curve" smooth="yes"/>
      <point x="396" y="-20"/>
      <point x="468" y="40"/>
      <point x="468" y="137.118" type="curve" smooth="yes"/>
      <point x="468" y="249.303"/>
      <point x="371.927" y="273.911"/>
      <point x="291.537" y="294.503" type="curve" smooth="yes"/>
      <point x="233.711" y="309.314"/>
      <point x="184" y="322.048"/>
      <point x="184" y="363.803" type="curve" smooth="yes"/>
      <point x="184" y="394"/>
      <point x="210" y="410"/>
      <point x="256" y="410" type="curve" smooth="yes"/>
      <point x="324" y="410"/>
      <point x="376" y="375"/>
      <point x="425" y="302" type="curve"/>
      <point x="456" y="421" type="line"/>
      <point x="432" y="465"/>
      <point x="352" y="520"/>
      <point x="239" y="520" type="curve" smooth="yes"/>
      <point x="115" y="520"/>
      <point x="39" y="454"/>
      <point x="39" y="362.629" type="curve" smooth="yes"/>
      <point x="39" y="257.844"/>
      <point x="138.953" y="225.429"/>
      <point x="220.264" y="199.059" type="curve" smooth="yes"/>
      <point x="276.014" y="180.98"/>
      <point x="323" y="165.742"/>
      <point x="323" y="131.969" type="curve" smooth="yes"/>
      <point x="323" y="102"/>
      <point x="286" y="90"/>
      <point x="256" y="90" type="curve" smooth="yes"/>
      <point x="167" y="90"/>
      <point x="115" y="122"/>
      <point x="65" y="201" type="curve"/>
    </contour>
  </outline>
</glyph>
<glyph name="scedilla.ss10" format="2">
  <advance width="522"/>
  <anchor x="253" y="520" name="top"/>
  <anchor x="245" y="-218" name="bottom"/>
  <outline>
    <contour>
      <point x="37" y="83" type="line"/>
      <point x="95" y="1"/>
      <point x="179" y="-20"/>
      <point x="262" y="-20" type="curve" smooth="yes"/>
      <point x="402" y="-20"/>
      <point x="474" y="40"/>
      <point x="474" y="137.118" type="curve" smooth="yes"/>
      <point x="474" y="249.303"/>
      <point x="377.927" y="273.911"/>
      <point x="297.537" y="294.503" type="curve" smooth="yes"/>
      <point x="239.711" y="309.314"/>
      <point x="190" y="322.048"/>
      <point x="190" y="363.803" type="curve" smooth="yes"/>
      <point x="190" y="394"/>
      <point x="216" y="410"/>
      <point x="262" y="410" type="curve" smooth="yes"/>
      <point x="330" y="410"/>
      <point x="382" y="375"/>
      <point x="431" y="302" type="curve"/>
      <point x="462" y="421" type="line"/>
      <point x="438" y="465"/>
      <point x="358" y="520"/>
      <point x="245" y="520" type="curve" smooth="yes"/>
      <point x="121" y="520"/>
      <point x="45" y="454"/>
      <point x="45" y="362.629" type="curve" smooth="yes"/>
      <point x="45" y="257.844"/>
      <point x="144.953" y="225.429"/>
      <point x="226.264" y="199.059" type="curve" smooth="yes"/>
      <point x="282.014" y="180.98"/>
      <point x="329" y="165.742"/>
      <point x="329" y="131.969" type="curve" smooth="yes"/>
      <point x="329" y="102"/>
      <point x="292" y="90"/>
      <point x="262" y="90" type="curve" smooth="yes"/>
      <point x="173" y="90"/>
      <point x="121" y="122"/>
      <point x="71" y="201" type="curve"/>
    </contour>
    <contour>
      <point x="128" y="-205" type="line"/>
      <point x="152" y="-213"/>
      <point x="186" y="-218"/>
      <point x="225" y="-218" type="curve" smooth="yes"/>
      <point x="320" y="-218"/>
      <point x="369" y="-188"/>
      <point x="369" y="-135" type="curve" smooth="yes"/>
      <point x="369" y="-89"/>
      <point x="333" y="-64"/>
      <point x="271" y="-64" type="curve"/>
      <point x="315.665" y="16.274" type="line"/>
      <point x="229.665" y="16.274" type="line"/>
      <point x="172" y="-96" type="line"/>
      <point x="188" y="-94"/>
      <point x="201" y="-92"/>
      <point x="215" y="-92" type="curve" smooth="yes"/>
      <point x="249" y="-92"/>
      <point x="269" y="-105"/>
      <point x="269" y="-132" type="curve" smooth="yes"/>
      <point x="269" y="-158"/>
      <point x="249" y="-172"/>
      <point x="216" y="-172" type="curve" smooth="yes"/>
      <point x="196" y="-172"/>
      <point x="168" y="-167"/>
      <point x="148" y="-161" type="curve"/>
    </contour>
  </outline>
</glyph>
<glyph name="scedilla.ss12" format="2">
  <advance width="510"/>
  <anchor x="245" y="520" name="top"/>
  <anchor x="245" y="-218" name="bottom"/>
  <outline>
    <contour>
      <point x="37" y="91" type="line"/>
      <point x="95" y="20"/>
      <point x="162" y="-20"/>
      <point x="264" y="-20" type="curve" smooth="yes"/>
      <point x="393" y="-20"/>
      <point x="462" y="45"/>
      <point x="462" y="148.833" type="curve" smooth="yes"/>
      <point x="462" y="259.693"/>
      <point x="365.526" y="282.443"/>
      <point x="285.835" y="301.235" type="curve" smooth="yes"/>
      <point x="229.763" y="314.458"/>
      <point x="182" y="325.721"/>
      <point x="182" y="364.339" type="curve" smooth="yes"/>
      <point x="182" y="390"/>
      <point x="203" y="410"/>
      <point x="253" y="410" type="curve" smooth="yes"/>
      <point x="306" y="410"/>
      <point x="365" y="388"/>
      <point x="435" y="337" type="curve"/>
      <point x="442" y="421" type="line"/>
      <point x="398" y="482"/>
      <point x="320" y="520"/>
      <point x="230" y="520" type="curve" smooth="yes"/>
      <point x="110" y="520"/>
      <point x="37" y="453"/>
      <point x="37" y="348.172" type="curve" smooth="yes"/>
      <point x="37" y="240.214"/>
      <point x="132.304" y="217.869"/>
      <point x="211.708" y="199.253" type="curve" smooth="yes"/>
      <point x="268.407" y="185.959"/>
      <point x="317" y="174.567"/>
      <point x="317" y="135.262" type="curve" smooth="yes"/>
      <point x="317" y="110"/>
      <point x="297" y="90"/>
      <point x="244" y="90" type="curve" smooth="yes"/>
      <point x="180" y="90"/>
      <point x="101" y="120"/>
      <point x="44" y="174" type="curve"/>
    </contour>
    <contour>
      <point x="128" y="-205" type="line"/>
      <point x="152" y="-213"/>
      <point x="186" y="-218"/>
      <point x="225" y="-218" type="curve" smooth="yes"/>
      <point x="320" y="-218"/>
      <point x="369" y="-188"/>
      <point x="369" y="-135" type="curve" smooth="yes"/>
      <point x="369" y="-89"/>
      <point x="333" y="-64"/>
      <point x="271" y="-64" type="curve"/>
      <point x="315.665" y="16.274" type="line"/>
      <point x="229.665" y="16.274" type="line"/>
      <point x="172" y="-96" type="line"/>
      <point x="188" y="-94"/>
      <point x="201" y="-92"/>
      <point x="215" y="-92" type="curve" smooth="yes"/>
      <point x="249" y="-92"/>
      <point x="269" y="-105"/>
      <point x="269" y="-132" type="curve" smooth="yes"/>
      <point x="269" y="-158"/>
      <point x="249" y="-172"/>
      <point x="216" y="-172" type="curve" smooth="yes"/>
      <point x="196" y="-172"/>
      <point x="168" y="-167"/>
      <point x="148" y="-161" type="curve"/>
    </contour>
  </outline>
</glyph>
<glyph name="schwa.ss09" format="2">
  <advance width="566"/>
  <anchor x="283" y="-20" name="bottom"/>
  <anchor x="283" y="520" name="top"/>
  <outline>
    <contour>
      <point x="32" y="289" type="line"/>
      <point x="31" y="281"/>
      <point x="30" y="268"/>
      <point x="30" y="251" type="curve" smooth="yes"/>
      <point x="30" y="81"/>
      <point x="123" y="-20"/>
      <point x="278" y="-20" type="curve" smooth="yes"/>
      <point x="438" y="-20"/>
      <point x="536" y="89"/>
      <point x="536" y="250" type="curve" smooth="yes"/>
      <point x="536" y="398"/>
      <point x="453" y="520"/>
      <point x="279" y="520" type="curve" smooth="yes"/>
      <point x="154" y="520"/>
      <point x="65" y="449.586"/>
      <point x="34" y="350" type="curve"/>
      <point x="180" y="350" type="line"/>
      <point x="194.21" y="385.593"/>
      <point x="225.675" y="410"/>
      <point x="274.395" y="410" type="curve" smooth="yes"/>
      <point x="345.445" y="410"/>
      <point x="383" y="371"/>
      <point x="391" y="289" type="curve"/>
    </contour>
    <contour>
      <point x="389" y="199" type="line"/>
      <point x="377.62" y="126"/>
      <point x="341.909" y="90"/>
      <point x="280.991" y="90" type="curve" smooth="yes"/>
      <point x="212.721" y="90"/>
      <point x="178.061" y="132"/>
      <point x="174" y="199" type="curve"/>
    </contour>
  </outline>
</glyph>
<glyph name="schwa.ss10" format="2">
  <advance width="600"/>
  <anchor x="300" y="-20" name="bottom"/>
  <anchor x="300" y="520" name="top"/>
  <outline>
    <contour>
      <point x="402" y="199" type="curve"/>
      <point x="196" y="199" type="line"/>
      <point x="204" y="121"/>
      <point x="242" y="90"/>
      <point x="296" y="90" type="curve" smooth="yes"/>
      <point x="359" y="90"/>
      <point x="395" y="132"/>
    </contour>
    <contour>
      <point x="293" y="520" type="curve" smooth="yes"/>
      <point x="449" y="520"/>
      <point x="551" y="422"/>
      <point x="551" y="247" type="curve" smooth="yes"/>
      <point x="551" y="82"/>
      <point x="460" y="-20"/>
      <point x="305" y="-20" type="curve" smooth="yes"/>
      <point x="147" y="-20"/>
      <point x="50" y="86"/>
      <point x="50" y="246" type="curve" smooth="yes"/>
      <point x="50" y="269"/>
      <point x="52" y="280"/>
      <point x="53" y="289" type="curve"/>
      <point x="403" y="289" type="line"/>
      <point x="396" y="365"/>
      <point x="359" y="410"/>
      <point x="277" y="410" type="curve" smooth="yes"/>
      <point x="212" y="410"/>
      <point x="156" y="381"/>
      <point x="105" y="302" type="curve"/>
      <point x="71" y="420" type="line"/>
      <point x="117" y="485"/>
      <point x="200" y="520"/>
    </contour>
  </outline>
</glyph>
<glyph name="schwa.ss12" format="2">
  <advance width="600"/>
  <anchor x="300" y="-20" name="bottom"/>
  <anchor x="300" y="520" name="top"/>
  <outline>
    <contour>
      <point x="404" y="194" type="line"/>
      <point x="398" y="133"/>
      <point x="362" y="90"/>
      <point x="298" y="90" type="curve" smooth="yes"/>
      <point x="238" y="90"/>
      <point x="203" y="128"/>
      <point x="196" y="194" type="curve"/>
    </contour>
    <contour>
      <point x="296" y="520" type="curve" smooth="yes"/>
      <point x="198" y="520"/>
      <point x="118" y="483"/>
      <point x="73" y="421" type="curve"/>
      <point x="80" y="337" type="line"/>
      <point x="150" y="388"/>
      <point x="209" y="410"/>
      <point x="267" y="410" type="curve" smooth="yes"/>
      <point x="346" y="410"/>
      <point x="397" y="368"/>
      <point x="404" y="290" type="curve"/>
      <point x="50" y="290" type="line"/>
      <point x="50" y="253" type="line" smooth="yes"/>
      <point x="50" y="108"/>
      <point x="132" y="-20"/>
      <point x="297" y="-20" type="curve" smooth="yes"/>
      <point x="452" y="-20"/>
      <point x="551" y="92"/>
      <point x="551" y="255" type="curve" smooth="yes"/>
      <point x="551" y="397"/>
      <point x="476" y="520"/>
    </contour>
  </outline>
</glyph>
<glyph name="six.ss09" format="2">
  <advance width="650"/>
  <outline>
    <contour>
      <point x="200" y="223" type="curve" smooth="yes"/>
      <point x="200" y="297"/>
      <point x="254" y="347"/>
      <point x="342" y="347" type="curve" smooth="yes"/>
      <point x="426" y="347"/>
      <point x="473" y="303"/>
      <point x="473" y="226" type="curve" smooth="yes"/>
      <point x="473" y="147"/>
      <point x="424" y="100"/>
      <point x="340" y="100" type="curve" smooth="yes"/>
      <point x="255" y="100"/>
      <point x="200" y="149"/>
    </contour>
    <contour>
      <point x="601" y="502" type="line"/>
      <point x="576.171" y="633"/>
      <point x="495" y="720"/>
      <point x="345" y="720" type="curve" smooth="yes"/>
      <point x="152" y="720"/>
      <point x="43" y="585"/>
      <point x="43" y="355" type="curve" smooth="yes"/>
      <point x="43" y="116"/>
      <point x="155" y="-20"/>
      <point x="344" y="-20" type="curve" smooth="yes"/>
      <point x="520" y="-20"/>
      <point x="620" y="90"/>
      <point x="620" y="225" type="curve" smooth="yes"/>
      <point x="620" y="364"/>
      <point x="515" y="453"/>
      <point x="363" y="453" type="curve" smooth="yes"/>
      <point x="284" y="453"/>
      <point x="219" y="429"/>
      <point x="176" y="378" type="curve"/>
      <point x="176" y="527"/>
      <point x="232" y="599"/>
      <point x="337" y="599" type="curve" smooth="yes"/>
      <point x="402" y="599"/>
      <point x="442.393" y="572"/>
      <point x="458" y="502" type="curve"/>
    </contour>
  </outline>
</glyph>
<glyph name="six.ss12" format="2">
  <advance width="650"/>
  <outline>
    <contour>
      <point x="474" y="228" type="curve" smooth="yes"/>
      <point x="474" y="307"/>
      <point x="426" y="352"/>
      <point x="346" y="352" type="curve" smooth="yes"/>
      <point x="258" y="352"/>
      <point x="199" y="298"/>
      <point x="199" y="216" type="curve" smooth="yes"/>
      <point x="199" y="142"/>
      <point x="248" y="100"/>
      <point x="334" y="100" type="curve" smooth="yes"/>
      <point x="425" y="100"/>
      <point x="474" y="148"/>
    </contour>
    <contour>
      <point x="349" y="599" type="curve" smooth="yes"/>
      <point x="228" y="599"/>
      <point x="158" y="531"/>
      <point x="158" y="360" type="curve"/>
      <point x="201" y="423"/>
      <point x="262" y="463"/>
      <point x="366" y="463" type="curve" smooth="yes"/>
      <point x="526" y="463"/>
      <point x="620" y="369"/>
      <point x="620" y="228" type="curve" smooth="yes"/>
      <point x="620" y="86"/>
      <point x="524" y="-20"/>
      <point x="343" y="-20" type="curve" smooth="yes"/>
      <point x="146" y="-20"/>
      <point x="43" y="106"/>
      <point x="43" y="342" type="curve" smooth="yes"/>
      <point x="43" y="583"/>
      <point x="150" y="720"/>
      <point x="345" y="720" type="curve" smooth="yes"/>
      <point x="453" y="720"/>
      <point x="540" y="678"/>
      <point x="616" y="585" type="curve"/>
      <point x="606" y="490" type="line"/>
      <point x="525" y="568"/>
      <point x="437" y="599"/>
    </contour>
  </outline>
</glyph>
<glyph name="sterling.ss09" format="2">
  <advance width="660"/>
  <outline>
    <contour>
      <point x="33" y="377" type="line"/>
      <point x="463" y="377" type="line"/>
      <point x="453" y="287" type="line"/>
      <point x="23" y="287" type="line"/>
    </contour>
    <contour>
      <point x="318" y="720" type="curve" smooth="yes"/>
      <point x="472" y="720"/>
      <point x="566" y="633"/>
      <point x="592" y="502" type="curve"/>
      <point x="449" y="502" type="line"/>
      <point x="432" y="572"/>
      <point x="389" y="600"/>
      <point x="328" y="600" type="curve" smooth="yes"/>
      <point x="251" y="600"/>
      <point x="204" y="557.909"/>
      <point x="204" y="485.754" type="curve" smooth="yes"/>
      <point x="204" y="378.524"/>
      <point x="306.5" y="346.455"/>
      <point x="306.5" y="241.228" type="curve" smooth="yes"/>
      <point x="306.5" y="215.172"/>
      <point x="301.46" y="160.054"/>
      <point x="243" y="135" type="curve"/>
      <point x="337" y="161.282"/>
      <point x="354" y="94"/>
      <point x="417" y="94" type="curve" smooth="yes"/>
      <point x="450" y="94"/>
      <point x="466" y="113"/>
      <point x="477" y="156" type="curve"/>
      <point x="620" y="156" type="line"/>
      <point x="603" y="45"/>
      <point x="545" y="-26"/>
      <point x="429" y="-26" type="curve" smooth="yes"/>
      <point x="311" y="-26"/>
      <point x="294" y="47"/>
      <point x="202" y="47" type="curve" smooth="yes"/>
      <point x="176" y="47"/>
      <point x="146" y="41"/>
      <point x="52" y="-39" type="curve"/>
      <point x="52" y="41" type="line"/>
      <point x="100.777" y="80"/>
      <point x="161.5" y="139"/>
      <point x="161.5" y="221" type="curve" smooth="yes"/>
      <point x="161.5" y="328"/>
      <point x="59" y="374"/>
      <point x="59" y="504" type="curve" smooth="yes"/>
      <point x="59" y="640"/>
      <point x="171" y="720"/>
    </contour>
  </outline>
</glyph>
<glyph name="sterling.ss12" format="2">
  <advance width="600"/>
  <outline>
    <contour>
      <point x="48" y="0" type="line"/>
      <point x="118" y="41"/>
      <point x="151" y="50"/>
      <point x="178" y="50" type="curve" smooth="yes"/>
      <point x="254" y="50"/>
      <point x="260" y="-20"/>
      <point x="360" y="-20" type="curve" smooth="yes"/>
      <point x="431" y="-20"/>
      <point x="496" y="15"/>
      <point x="559" y="91" type="curve"/>
      <point x="552" y="184" type="line"/>
      <point x="501" y="127"/>
      <point x="433" y="100"/>
      <point x="386" y="100" type="curve" smooth="yes"/>
      <point x="323" y="100"/>
      <point x="354" y="150"/>
      <point x="251" y="150" type="curve"/>
      <point x="291" y="185"/>
      <point x="311" y="218"/>
      <point x="292" y="270" type="curve"/>
      <point x="459" y="270" type="line"/>
      <point x="459" y="366" type="line"/>
      <point x="257" y="366" type="line"/>
      <point x="232" y="400"/>
      <point x="199" y="451"/>
      <point x="199" y="504" type="curve" smooth="yes"/>
      <point x="199" y="562"/>
      <point x="238" y="600"/>
      <point x="322" y="600" type="curve" smooth="yes"/>
      <point x="400" y="600"/>
      <point x="461" y="568"/>
      <point x="545" y="490" type="curve"/>
      <point x="555" y="585" type="line"/>
      <point x="482" y="678"/>
      <point x="399" y="720"/>
      <point x="302" y="720" type="curve" smooth="yes"/>
      <point x="163" y="720"/>
      <point x="55" y="633"/>
      <point x="55" y="515" type="curve" smooth="yes"/>
      <point x="55" y="460"/>
      <point x="79" y="414"/>
      <point x="105" y="366" type="curve"/>
      <point x="41" y="366" type="line"/>
      <point x="41" y="270" type="line"/>
      <point x="150" y="270" type="line"/>
      <point x="181" y="153"/>
      <point x="140" y="129"/>
      <point x="48" y="67" type="curve"/>
    </contour>
  </outline>
</glyph>
<glyph name="t.ss11" format="2">
  <advance width="353"/>
  <anchor x="161" y="-20" name="bottom"/>
  <anchor x="158" y="630" name="top"/>
  <anchor x="262" y="700" name="topright"/>
  <outline>
    <contour>
      <point x="84" y="0" type="line"/>
      <point x="229" y="0" type="line"/>
      <point x="229" y="390" type="line"/>
      <point x="344" y="390" type="line"/>
      <point x="344" y="500" type="line"/>
      <point x="229" y="500" type="line"/>
      <point x="229" y="620" type="line"/>
      <point x="84" y="620" type="line"/>
      <point x="84" y="500" type="line"/>
      <point x="19" y="500" type="line"/>
      <point x="19" y="390" type="line"/>
      <point x="84" y="390" type="line"/>
    </contour>
  </outline>
</glyph>
<glyph name="thorn.ss11" format="2">
  <advance width="635"/>
  <outline>
    <contour>
      <point x="73" y="-200" type="line" name="av01"/>
      <point x="218" y="-200" type="line"/>
      <point x="218.28" y="89.09" type="line"/>
      <point x="249.07" y="21.95"/>
      <point x="300.42" y="-20"/>
      <point x="366" y="-20" type="curve" smooth="yes" name="dv01"/>
      <point x="502" y="-20"/>
      <point x="585" y="99"/>
      <point x="585" y="255" type="curve" smooth="yes"/>
      <point x="585" y="411"/>
      <point x="511" y="520"/>
      <point x="372" y="520" type="curve" smooth="yes" name="at01"/>
      <point x="304.54" y="520"/>
      <point x="250.39" y="480.46"/>
      <point x="218.28" y="413.99" type="curve"/>
      <point x="218.28" y="700" type="line"/>
      <point x="73.45" y="700" type="line"/>
    </contour>
    <contour>
      <point x="440" y="255.51" type="curve" smooth="yes"/>
      <point x="440" y="158.21"/>
      <point x="393.79" y="90"/>
      <point x="329.5" y="90" type="curve" smooth="yes" name="dv02"/>
      <point x="263.45" y="90"/>
      <point x="218.28" y="152.33"/>
      <point x="218.28" y="247.2" type="curve" smooth="yes"/>
      <point x="218.28" y="318.519"/>
      <point x="236.934" y="410"/>
      <point x="328.49" y="410" type="curve" smooth="yes" name="sv01"/>
      <point x="395.8" y="410"/>
      <point x="440" y="348.8"/>
    </contour>
  </outline>
</glyph>
<glyph name="three.ss09" format="2">
  <advance width="550"/>
  <outline>
    <contour>
      <point x="192" y="332" type="line"/>
      <point x="400" y="332"/>
      <point x="500" y="393.777"/>
      <point x="500" y="516.246" type="curve" smooth="yes"/>
      <point x="500" y="633.296"/>
      <point x="418" y="720"/>
      <point x="272" y="720" type="curve" smooth="yes"/>
      <point x="127" y="720"/>
      <point x="39" y="632"/>
      <point x="15" y="502" type="curve"/>
      <point x="158" y="502" type="line"/>
      <point x="172" y="571"/>
      <point x="210" y="599"/>
      <point x="271" y="599" type="curve" smooth="yes"/>
      <point x="331" y="599"/>
      <point x="354" y="557.713"/>
      <point x="354" y="504.629" type="curve" smooth="yes"/>
      <point x="354" y="446.826"/>
      <point x="309" y="402"/>
      <point x="192" y="402" type="curve"/>
    </contour>
    <contour>
      <point x="16" y="198" type="line"/>
      <point x="40" y="67"/>
      <point x="129" y="-20"/>
      <point x="281" y="-20" type="curve" smooth="yes"/>
      <point x="426" y="-20"/>
      <point x="520" y="64.29"/>
      <point x="520" y="183.349" type="curve" smooth="yes"/>
      <point x="520" y="310.836"/>
      <point x="414" y="373"/>
      <point x="192" y="373" type="curve"/>
      <point x="192" y="303" type="line"/>
      <point x="324" y="303"/>
      <point x="374" y="257.495"/>
      <point x="374" y="190.901" type="curve" smooth="yes"/>
      <point x="374" y="133.187"/>
      <point x="337" y="101"/>
      <point x="273" y="101" type="curve" smooth="yes"/>
      <point x="211" y="101"/>
      <point x="173" y="129"/>
      <point x="159" y="198" type="curve"/>
    </contour>
  </outline>
</glyph>
